# Blender3D v249 OBJ File: chiffres.blend
# www.blender3d.org
mtllib 0.mtl
v -0.074231 0.026857 0.220000
v -0.133907 0.087956 0.220000
v -0.174823 0.189103 0.220000
v -0.189818 0.324975 0.220000
v -0.174823 0.460847 0.220000
v -0.133907 0.561993 0.220000
v -0.074231 0.623092 0.220000
v 0.000000 0.643826 0.220000
v 0.074231 0.623092 0.220000
v 0.133907 0.561993 0.220000
v 0.174823 0.460847 0.220000
v 0.189818 0.324975 0.220000
v 0.174823 0.189103 0.220000
v 0.133907 0.087956 0.220000
v 0.074231 0.026857 0.220000
v -0.000000 0.006123 0.220000
v -0.069561 0.589690 0.220000
v -0.116702 0.527233 0.220000
v -0.143287 0.438146 0.220000
v -0.152091 0.324975 0.220000
v -0.143287 0.211804 0.220000
v -0.116702 0.122716 0.220000
v -0.069561 0.060259 0.220000
v -0.000000 0.036236 0.220000
v 0.069561 0.060259 0.220000
v 0.116702 0.122716 0.220000
v 0.143287 0.211804 0.220000
v 0.152091 0.324975 0.220000
v 0.143287 0.438146 0.220000
v 0.116702 0.527233 0.220000
v 0.069561 0.589690 0.220000
v 0.000000 0.613713 0.220000
v -0.074231 0.026857 -0.220000
v -0.133907 0.087956 -0.220000
v -0.174823 0.189103 -0.220000
v -0.189818 0.324975 -0.220000
v -0.174823 0.460847 -0.220000
v -0.133907 0.561993 -0.220000
v -0.074231 0.623092 -0.220000
v 0.000000 0.643826 -0.220000
v 0.074231 0.623092 -0.220000
v 0.133907 0.561993 -0.220000
v 0.174823 0.460847 -0.220000
v 0.189818 0.324975 -0.220000
v 0.174823 0.189103 -0.220000
v 0.133907 0.087956 -0.220000
v 0.074231 0.026857 -0.220000
v -0.000000 0.006123 -0.220000
v -0.069561 0.589690 -0.220000
v -0.116702 0.527233 -0.220000
v -0.143287 0.438146 -0.220000
v -0.152091 0.324975 -0.220000
v -0.143287 0.211804 -0.220000
v -0.116702 0.122716 -0.220000
v -0.069561 0.060259 -0.220000
v -0.000000 0.036236 -0.220000
v 0.069561 0.060259 -0.220000
v 0.116702 0.122716 -0.220000
v 0.143287 0.211804 -0.220000
v 0.152091 0.324975 -0.220000
v 0.143287 0.438145 -0.220000
v 0.116702 0.527233 -0.220000
v 0.069561 0.589690 -0.220000
v 0.000000 0.613713 -0.220000
v -0.084785 0.009040 -0.200000
v -0.150969 0.076802 -0.200000
v -0.194399 0.184163 -0.200000
v -0.209939 0.324975 -0.200000
v -0.194399 0.465786 -0.200000
v -0.150969 0.573147 -0.200000
v -0.084785 0.640910 -0.200000
v 0.000000 0.664592 -0.200000
v 0.084785 0.640910 -0.200000
v 0.150969 0.573147 -0.200000
v 0.194399 0.465786 -0.200000
v 0.209939 0.324975 -0.200000
v 0.194399 0.184163 -0.200000
v 0.150969 0.076802 -0.200000
v 0.084785 0.009040 -0.200000
v -0.000000 -0.014643 -0.200000
v -0.084785 0.009040 0.200000
v -0.150969 0.076802 0.200000
v -0.194399 0.184163 0.200000
v -0.209939 0.324975 0.200000
v -0.194399 0.465786 0.200000
v -0.150969 0.573147 0.200000
v -0.084785 0.640910 0.200000
v 0.000000 0.664592 0.200000
v 0.084785 0.640910 0.200000
v 0.150969 0.573147 0.200000
v 0.194399 0.465786 0.200000
v 0.209939 0.324975 0.200000
v 0.194399 0.184163 0.200000
v 0.150969 0.076802 0.200000
v 0.084785 0.009040 0.200000
v -0.000000 -0.014643 0.200000
v -0.057270 0.572776 -0.200000
v -0.098567 0.518061 -0.200000
v -0.123512 0.434469 -0.200000
v -0.132030 0.324975 -0.200000
v -0.123512 0.215480 -0.200000
v -0.098567 0.131888 -0.200000
v -0.057270 0.077174 -0.200000
v -0.000000 0.057395 -0.200000
v 0.057270 0.077174 -0.200000
v 0.098567 0.131888 -0.200000
v 0.123512 0.215480 -0.200000
v 0.132030 0.324975 -0.200000
v 0.123512 0.434469 -0.200000
v 0.098567 0.518061 -0.200000
v 0.057270 0.572776 -0.200000
v 0.000000 0.592554 -0.200000
v -0.057270 0.572776 0.200000
v -0.098567 0.518061 0.200000
v -0.123512 0.434469 0.200000
v -0.132030 0.324975 0.200000
v -0.123512 0.215480 0.200000
v -0.098567 0.131889 0.200000
v -0.057270 0.077174 0.200000
v -0.000000 0.057395 0.200000
v 0.057270 0.077174 0.200000
v 0.098567 0.131889 0.200000
v 0.123512 0.215480 0.200000
v 0.132030 0.324975 0.200000
v 0.123512 0.434469 0.200000
v 0.098567 0.518061 0.200000
v 0.057270 0.572776 0.200000
v 0.000000 0.592554 0.200000
vt 0.000000 0.000000
vt 1.000000 0.000000
vt 1.000000 1.000000
vt 0.000000 1.000000
vn -0.000000 0.000001 1.000000
vn 0.000000 0.000000 1.000000
vn 0.000000 -0.289804 0.957060
vn 0.186102 -0.319742 0.929014
vn 0.052614 -0.888363 0.456069
vn 0.612201 -0.684561 0.395642
vn -0.186102 -0.319742 0.929014
vn -0.526414 -0.751640 0.397320
vn -0.326518 -0.190558 0.925748
vn -0.818140 -0.424451 0.387890
vn -0.371899 -0.082888 0.924528
vn -0.906491 -0.174261 0.384503
vn -0.504288 0.000000 0.863491
vn -0.951903 -0.016755 0.305887
vn -0.371899 0.082888 0.924528
vn -0.913053 0.136387 0.384320
vn -0.326518 0.190558 0.925748
vn -0.846156 0.366039 0.387310
vn -0.186102 0.319742 0.929014
vn -0.612201 0.684561 0.395642
vn 0.000000 0.289804 0.957060
vn -0.052614 0.888363 0.456069
vn 0.186102 0.319742 0.929014
vn 0.526414 0.751640 0.397320
vn 0.326518 0.190558 0.925748
vn 0.818140 0.424451 0.387890
vn 0.444899 0.099155 0.890042
vn 0.906491 0.174261 0.384503
vn 0.435499 0.000000 0.900174
vn 0.951903 0.016755 0.305887
vn 0.371899 -0.082888 0.924528
vn 0.913053 -0.136387 0.384320
vn 0.326518 -0.190558 0.925748
vn 0.846156 -0.366039 0.387310
vn 0.526414 -0.751640 -0.397320
vn -0.052614 -0.888363 -0.456069
vn -0.612201 -0.684561 -0.395642
vn -0.846156 -0.366039 -0.387310
vn -0.913053 -0.136387 -0.384320
vn -0.951903 0.016755 -0.305887
vn -0.906491 0.174261 -0.384503
vn -0.818140 0.424451 -0.387890
vn -0.526414 0.751640 -0.397320
vn 0.052614 0.888363 -0.456069
vn 0.612201 0.684561 -0.395642
vn 0.846156 0.366039 -0.387310
vn 0.913053 0.136387 -0.384320
vn 0.951903 -0.016755 -0.305887
vn 0.906491 -0.174261 -0.384503
vn 0.818140 -0.424451 -0.387890
vn 0.461989 -0.793725 0.395642
vn 0.000000 -0.644490 0.764580
vn -0.461989 -0.793725 0.395642
vn -0.796258 -0.464675 0.387310
vn -0.901059 -0.200842 0.384320
vn -0.959441 0.000000 -0.281838
vn -0.901059 0.200842 0.384320
vn -0.796258 0.464675 0.387310
vn -0.461989 0.793725 0.395642
vn 0.000000 0.644490 0.764580
vn 0.461989 0.793725 0.395642
vn 0.796258 0.464675 0.387310
vn 0.974425 0.217200 -0.057375
vn 0.998138 0.000000 0.060701
vn 0.901059 -0.200842 0.384320
vn 0.796258 -0.464675 0.387310
vn 0.000000 -0.579760 0.814753
vn -0.186102 -0.258461 0.947905
vn -0.480483 -0.783441 0.394116
vn -0.059908 -0.947172 0.315043
vn 0.186102 -0.258461 0.947905
vn 0.396252 -0.829829 0.392834
vn 0.328532 -0.185247 0.926115
vn 0.736625 -0.553728 0.388226
vn 0.372265 -0.075900 0.924986
vn 0.883358 -0.266640 0.385418
vn 0.251289 0.000000 0.967895
vn 0.898465 -0.016999 0.438643
vn 0.372265 0.075900 0.924986
vn 0.896298 0.218635 0.385754
vn 0.328532 0.185247 0.926115
vn 0.776727 0.495376 0.388897
vn 0.186102 0.258461 0.947905
vn 0.480483 0.783441 0.394116
vn 0.000000 0.579760 0.814753
vn 0.059908 0.947172 0.315043
vn -0.186102 0.258461 0.947905
vn -0.396252 0.829829 0.392834
vn -0.328532 0.185247 0.926115
vn -0.736625 0.553728 0.388226
vn -0.372265 0.075900 0.924986
vn -0.883358 0.266640 0.385418
vn -0.303415 0.000000 0.952849
vn -0.898465 0.016999 0.438643
vn -0.318430 -0.064913 0.945708
vn -0.896298 -0.218635 0.385754
vn -0.328532 -0.185247 0.926115
vn -0.776727 -0.495376 0.388897
vn -0.396252 -0.829829 -0.392834
vn 0.059908 -0.947172 -0.315043
vn 0.480483 -0.783441 -0.394116
vn 0.776727 -0.495376 -0.388897
vn 0.896298 -0.218635 -0.385754
vn 0.898465 0.016999 -0.438643
vn 0.883358 0.266640 -0.385418
vn 0.736625 0.553728 -0.388226
vn 0.396252 0.829829 -0.392834
vn -0.059908 0.947172 -0.315043
vn -0.480483 0.783441 -0.394116
vn -0.776727 0.495376 -0.388897
vn -0.896298 0.218635 -0.385754
vn -0.898465 -0.016999 -0.438643
vn -0.883358 -0.266640 -0.385418
vn -0.736625 -0.553728 -0.388226
vn 0.000000 -0.830287 -0.557268
vn -0.431440 -0.599170 0.674367
vn 0.431440 -0.599170 0.674367
vn 0.802728 -0.452589 0.388226
vn 0.904111 -0.184362 0.385418
vn 0.477584 0.000000 0.878567
vn 0.904111 0.184362 0.385418
vn 0.802728 0.452589 0.388226
vn 0.431440 0.599170 0.674367
vn 0.000000 0.830287 -0.557268
vn -0.431440 0.599170 0.674367
vn -0.802728 0.452589 0.388226
vn -0.904111 0.184362 0.385418
vn -0.663320 0.000000 0.748314
vn -0.730796 -0.148991 0.666097
vn -0.802728 -0.452589 0.388226
usemtl (null)
s off
f 7/1/1 9/2/1 8/3/1
f 7/1/2 32/2/2 9/3/2
f 32/1/2 31/2/2 9/3/2
f 31/1/2 10/2/2 9/3/2
f 6/1/2 17/2/2 7/3/2
f 17/1/2 32/2/2 7/3/2
f 6/1/2 18/2/2 17/3/2
f 30/1/2 10/2/2 31/3/2
f 5/1/2 18/2/2 6/3/2
f 30/1/2 11/2/2 10/3/2
f 5/1/2 19/2/2 18/3/2
f 29/1/2 11/2/2 30/3/2
f 4/1/2 19/2/2 5/3/2
f 29/1/2 12/2/2 11/3/2
f 4/1/2 20/2/2 19/3/2
f 28/1/2 12/2/2 29/3/2
f 3/1/2 20/2/2 4/3/2
f 3/1/2 21/2/2 20/3/2
f 27/1/2 12/2/2 28/3/2
f 27/1/2 13/2/2 12/3/2
f 26/1/2 13/2/2 27/3/2
f 3/1/2 22/2/2 21/3/2
f 2/1/2 22/2/2 3/3/2
f 26/1/2 14/2/2 13/3/2
f 2/1/2 23/2/2 22/3/2
f 25/1/2 14/2/2 26/3/2
f 1/1/2 23/2/2 2/3/2
f 25/1/2 15/2/2 14/3/2
f 1/1/2 24/2/2 23/3/2
f 24/1/2 15/2/2 25/3/2
f 1/1/2 15/2/2 24/3/2
f 15/1/1 1/2/1 16/3/1
f 39/1/1 41/2/1 40/3/1
f 39/1/2 64/2/2 41/3/2
f 64/1/2 63/2/2 41/3/2
f 63/1/2 42/2/2 41/3/2
f 38/1/2 49/2/2 39/3/2
f 49/1/2 64/2/2 39/3/2
f 38/1/2 50/2/2 49/3/2
f 62/1/2 42/2/2 63/3/2
f 37/1/2 50/2/2 38/3/2
f 62/1/2 43/2/2 42/3/2
f 37/1/2 51/2/2 50/3/2
f 61/1/2 43/2/2 62/3/2
f 36/1/2 51/2/2 37/3/2
f 61/1/2 44/2/2 43/3/2
f 36/1/2 52/2/2 51/3/2
f 60/1/2 44/2/2 61/3/2
f 35/1/2 52/2/2 36/3/2
f 35/1/2 53/2/2 52/3/2
f 59/1/2 44/2/2 60/3/2
f 59/1/2 45/2/2 44/3/2
f 58/1/2 45/2/2 59/3/2
f 35/1/2 54/2/2 53/3/2
f 34/1/2 54/2/2 35/3/2
f 58/1/2 46/2/2 45/3/2
f 34/1/2 55/2/2 54/3/2
f 57/1/2 46/2/2 58/3/2
f 33/1/2 55/2/2 34/3/2
f 57/1/2 47/2/2 46/3/2
f 33/1/2 56/2/2 55/3/2
f 56/1/2 47/2/2 57/3/2
f 33/1/2 47/2/2 56/3/2
f 48/1/1 47/2/1 33/3/1
s 1
f 32/1/3 17/2/4 128/4/5
f 17/2/4 113/3/6 128/4/5
f 31/1/7 32/2/3 128/3/5
f 31/1/7 128/3/5 127/4/8
f 30/1/9 31/2/7 127/3/8
f 30/1/9 127/3/8 126/4/10
f 29/1/11 30/2/9 126/3/10
f 29/1/11 126/3/10 125/4/12
f 28/1/13 29/2/11 125/3/12
f 28/1/13 125/3/12 124/4/14
f 27/1/15 28/2/13 123/4/16
f 28/2/13 124/3/14 123/4/16
f 26/1/17 27/2/15 122/4/18
f 27/2/15 123/3/16 122/4/18
f 25/1/19 26/2/17 121/4/20
f 26/2/17 122/3/18 121/4/20
f 24/1/21 25/2/19 120/4/22
f 25/2/19 121/3/20 120/4/22
f 23/1/23 24/2/21 120/3/22
f 23/1/23 120/3/22 119/4/24
f 22/1/25 23/2/23 119/3/24
f 22/1/25 119/3/24 118/4/26
f 21/1/27 22/2/25 118/3/26
f 21/1/27 118/3/26 117/4/28
f 20/1/29 21/2/27 117/3/28
f 20/1/29 117/3/28 116/4/30
f 19/1/31 20/2/29 115/4/32
f 20/2/29 116/3/30 115/4/32
f 18/1/33 19/2/31 114/4/34
f 19/2/31 115/3/32 114/4/34
f 17/1/4 18/2/33 113/4/6
f 18/2/33 114/3/34 113/4/6
f 128/1/5 113/2/6 97/3/35
f 128/1/5 97/3/35 112/4/36
f 127/1/8 128/2/5 112/3/36
f 127/1/8 112/3/36 111/4/37
f 126/1/10 127/2/8 111/3/37
f 126/1/10 111/3/37 110/4/38
f 125/1/12 126/2/10 110/3/38
f 125/1/12 110/3/38 109/4/39
f 124/1/14 125/2/12 109/3/39
f 124/1/14 109/3/39 108/4/40
f 123/1/16 124/2/14 108/3/40
f 123/1/16 108/3/40 107/4/41
f 122/1/18 123/2/16 107/3/41
f 122/1/18 107/3/41 106/4/42
f 121/1/20 122/2/18 106/3/42
f 121/1/20 106/3/42 105/4/43
f 120/1/22 121/2/20 105/3/43
f 120/1/22 105/3/43 104/4/44
f 119/1/24 120/2/22 104/3/44
f 119/1/24 104/3/44 103/4/45
f 118/1/26 119/2/24 103/3/45
f 118/1/26 103/3/45 102/4/46
f 117/1/28 118/2/26 102/3/46
f 117/1/28 102/3/46 101/4/47
f 116/1/30 117/2/28 101/3/47
f 116/1/30 101/3/47 100/4/48
f 115/1/32 116/2/30 100/3/48
f 115/1/32 100/3/48 99/4/49
f 114/1/34 115/2/32 99/3/49
f 114/1/34 99/3/49 98/4/50
f 113/1/6 114/2/34 98/3/50
f 113/1/6 98/3/50 97/4/35
f 112/1/36 97/2/35 49/3/51
f 112/1/36 49/3/51 64/4/52
f 111/1/37 112/2/36 63/4/53
f 112/2/36 64/3/52 63/4/53
f 110/1/38 111/2/37 62/4/54
f 111/2/37 63/3/53 62/4/54
f 109/1/39 110/2/38 61/4/55
f 110/2/38 62/3/54 61/4/55
f 108/1/40 109/2/39 60/4/56
f 109/2/39 61/3/55 60/4/56
f 107/1/41 108/2/40 60/3/56
f 107/1/41 60/3/56 59/4/57
f 106/1/42 107/2/41 59/3/57
f 106/1/42 59/3/57 58/4/58
f 105/1/43 106/2/42 58/3/58
f 105/1/43 58/3/58 57/4/59
f 104/1/44 105/2/43 57/3/59
f 104/1/44 57/3/59 56/4/60
f 103/1/45 104/2/44 55/4/61
f 104/2/44 56/3/60 55/4/61
f 102/1/46 103/2/45 54/4/62
f 103/2/45 55/3/61 54/4/62
f 101/1/47 102/2/46 53/4/63
f 102/2/46 54/3/62 53/4/63
f 100/1/48 101/2/47 52/4/64
f 101/2/47 53/3/63 52/4/64
f 99/1/49 100/2/48 52/3/64
f 99/1/49 52/3/64 51/4/65
f 98/1/50 99/2/49 51/3/65
f 98/1/50 51/3/65 50/4/66
f 97/1/35 98/2/50 50/3/66
f 97/1/35 50/3/66 49/4/51
f 16/1/67 1/2/68 81/3/69
f 16/1/67 81/3/69 96/4/70
f 15/1/71 16/2/67 95/4/72
f 16/2/67 96/3/70 95/4/72
f 14/1/73 15/2/71 94/4/74
f 15/2/71 95/3/72 94/4/74
f 13/1/75 14/2/73 93/4/76
f 14/2/73 94/3/74 93/4/76
f 12/1/77 13/2/75 92/4/78
f 13/2/75 93/3/76 92/4/78
f 11/1/79 12/2/77 92/3/78
f 11/1/79 92/3/78 91/4/80
f 10/1/81 11/2/79 91/3/80
f 10/1/81 91/3/80 90/4/82
f 9/1/83 10/2/81 90/3/82
f 9/1/83 90/3/82 89/4/84
f 8/1/85 9/2/83 89/3/84
f 8/1/85 89/3/84 88/4/86
f 7/1/87 8/2/85 87/4/88
f 8/2/85 88/3/86 87/4/88
f 6/1/89 7/2/87 86/4/90
f 7/2/87 87/3/88 86/4/90
f 5/1/91 6/2/89 85/4/92
f 6/2/89 86/3/90 85/4/92
f 4/1/93 5/2/91 84/4/94
f 5/2/91 85/3/92 84/4/94
f 3/1/95 4/2/93 84/3/94
f 3/1/95 84/3/94 83/4/96
f 2/1/97 3/2/95 83/3/96
f 2/1/97 83/3/96 82/4/98
f 1/1/68 2/2/97 82/3/98
f 1/1/68 82/3/98 81/4/69
f 96/1/70 81/2/69 65/3/99
f 96/1/70 65/3/99 80/4/100
f 95/1/72 96/2/70 80/3/100
f 95/1/72 80/3/100 79/4/101
f 94/1/74 95/2/72 79/3/101
f 94/1/74 79/3/101 78/4/102
f 93/1/76 94/2/74 78/3/102
f 93/1/76 78/3/102 77/4/103
f 92/1/78 93/2/76 77/3/103
f 92/1/78 77/3/103 76/4/104
f 91/1/80 92/2/78 76/3/104
f 91/1/80 76/3/104 75/4/105
f 90/1/82 91/2/80 75/3/105
f 90/1/82 75/3/105 74/4/106
f 89/1/84 90/2/82 74/3/106
f 89/1/84 74/3/106 73/4/107
f 88/1/86 89/2/84 73/3/107
f 88/1/86 73/3/107 72/4/108
f 87/1/88 88/2/86 72/3/108
f 87/1/88 72/3/108 71/4/109
f 86/1/90 87/2/88 71/3/109
f 86/1/90 71/3/109 70/4/110
f 85/1/92 86/2/90 70/3/110
f 85/1/92 70/3/110 69/4/111
f 84/1/94 85/2/92 69/3/111
f 84/1/94 69/3/111 68/4/112
f 83/1/96 84/2/94 68/3/112
f 83/1/96 68/3/112 67/4/113
f 82/1/98 83/2/96 67/3/113
f 82/1/98 67/3/113 66/4/114
f 81/1/69 82/2/98 66/3/114
f 81/1/69 66/3/114 65/4/99
f 80/1/100 65/2/99 48/4/115
f 65/2/99 33/3/116 48/4/115
f 79/1/101 80/2/100 48/3/115
f 79/1/101 48/3/115 47/4/117
f 78/1/102 79/2/101 47/3/117
f 78/1/102 47/3/117 46/4/118
f 77/1/103 78/2/102 46/3/118
f 77/1/103 46/3/118 45/4/119
f 76/1/104 77/2/103 45/3/119
f 76/1/104 45/3/119 44/4/120
f 75/1/105 76/2/104 43/4/121
f 76/2/104 44/3/120 43/4/121
f 74/1/106 75/2/105 42/4/122
f 75/2/105 43/3/121 42/4/122
f 73/1/107 74/2/106 41/4/123
f 74/2/106 42/3/122 41/4/123
f 72/1/108 73/2/107 40/4/124
f 73/2/107 41/3/123 40/4/124
f 71/1/109 72/2/108 40/3/124
f 71/1/109 40/3/124 39/4/125
f 70/1/110 71/2/109 39/3/125
f 70/1/110 39/3/125 38/4/126
f 69/1/111 70/2/110 38/3/126
f 69/1/111 38/3/126 37/4/127
f 68/1/112 69/2/111 37/3/127
f 68/1/112 37/3/127 36/4/128
f 67/1/113 68/2/112 35/4/129
f 68/2/112 36/3/128 35/4/129
f 66/1/114 67/2/113 34/4/130
f 67/2/113 35/3/129 34/4/130
f 65/1/99 66/2/114 33/4/116
f 66/2/114 34/3/130 33/4/116
