# Blender3D v249 OBJ File: chiffres.blend
# www.blender3d.org
mtllib 0.mtl
v -0.094742 0.154395 0.030000
v -0.105537 0.106480 0.030000
v -0.112015 0.053914 0.030000
v -0.114174 -0.003303 0.030000
v -0.101510 -0.144890 0.030000
v -0.063518 -0.229843 0.030000
v -0.000198 -0.258161 0.030000
v 0.063330 -0.229469 0.030000
v 0.101446 -0.143396 0.030000
v 0.114152 0.000061 0.030000
v 0.111868 0.055948 0.030000
v 0.105017 0.108016 0.030000
v 0.093599 0.156264 0.030000
v 0.069849 0.212941 0.030000
v 0.038459 0.246947 0.030000
v -0.000571 0.258282 0.030000
v -0.039934 0.246739 0.030000
v -0.071324 0.212110 0.030000
v -0.155280 -0.185291 0.030000
v -0.173757 -0.132932 0.030000
v -0.184843 -0.070526 0.030000
v -0.188539 0.001929 0.030000
v -0.184802 0.073678 0.030000
v -0.173591 0.135462 0.030000
v -0.154906 0.187280 0.030000
v -0.118368 0.239805 0.030000
v -0.069040 0.271320 0.030000
v -0.006924 0.281824 0.030000
v 0.061212 0.271818 0.030000
v 0.114650 0.241798 0.030000
v 0.153390 0.191765 0.030000
v 0.172905 0.140735 0.030000
v 0.184614 0.076834 0.030000
v 0.188517 0.000061 0.030000
v 0.166801 -0.156475 0.030000
v 0.101654 -0.250396 0.030000
v -0.006924 -0.281703 0.030000
v -0.069082 -0.270991 0.030000
v -0.118534 -0.238853 0.030000
v -0.094742 0.154395 -0.030000
v -0.105537 0.106480 -0.030000
v -0.112015 0.053914 -0.030000
v -0.114174 -0.003303 -0.030000
v -0.101510 -0.144890 -0.030000
v -0.063518 -0.229843 -0.030000
v -0.000198 -0.258161 -0.030000
v 0.063330 -0.229469 -0.030000
v 0.101446 -0.143396 -0.030000
v 0.114152 0.000061 -0.030000
v 0.111868 0.055948 -0.030000
v 0.105017 0.108016 -0.030000
v 0.093599 0.156264 -0.030000
v 0.069849 0.212941 -0.030000
v 0.038459 0.246947 -0.030000
v -0.000571 0.258282 -0.030000
v -0.039934 0.246739 -0.030000
v -0.071324 0.212110 -0.030000
v -0.155280 -0.185291 -0.030000
v -0.173757 -0.132932 -0.030000
v -0.184843 -0.070526 -0.030000
v -0.188539 0.001929 -0.030000
v -0.184802 0.073678 -0.030000
v -0.173591 0.135462 -0.030000
v -0.154906 0.187280 -0.030000
v -0.118368 0.239805 -0.030000
v -0.069040 0.271320 -0.030000
v -0.006924 0.281824 -0.030000
v 0.061212 0.271818 -0.030000
v 0.114650 0.241798 -0.030000
v 0.153390 0.191765 -0.030000
v 0.172905 0.140735 -0.030000
v 0.184614 0.076834 -0.030000
v 0.188517 0.000061 -0.030000
v 0.166801 -0.156475 -0.030000
v 0.101654 -0.250396 -0.030000
v -0.006924 -0.281703 -0.030000
v -0.069082 -0.270991 -0.030000
v -0.118534 -0.238853 -0.030000
v -0.085167 0.151396 -0.020000
v -0.095673 0.104765 -0.020000
v -0.102038 0.053112 -0.020000
v -0.104157 -0.003045 -0.020000
v -0.091699 -0.142334 -0.020000
v -0.055948 -0.222274 -0.020000
v -0.000218 -0.247197 -0.020000
v 0.055733 -0.221928 -0.020000
v 0.091632 -0.140862 -0.020000
v 0.104134 0.000299 -0.020000
v 0.101895 0.055090 -0.020000
v 0.095169 0.106208 -0.020000
v 0.084058 0.153159 -0.020000
v 0.061306 0.207452 -0.020000
v 0.032998 0.238119 -0.020000
v -0.000558 0.247865 -0.020000
v -0.034417 0.237936 -0.020000
v -0.062724 0.206708 -0.020000
v -0.085167 0.151396 0.020000
v -0.095673 0.104765 0.020000
v -0.102038 0.053112 0.020000
v -0.104157 -0.003045 0.020000
v -0.091699 -0.142334 0.020000
v -0.055948 -0.222274 0.020000
v -0.000218 -0.247197 0.020000
v 0.055733 -0.221928 0.020000
v 0.091632 -0.140862 0.020000
v 0.104134 0.000299 0.020000
v 0.101895 0.055090 0.020000
v 0.095169 0.106208 0.020000
v 0.084058 0.153159 0.020000
v 0.061306 0.207452 0.020000
v 0.032998 0.238119 0.020000
v -0.000558 0.247865 0.020000
v -0.034417 0.237936 0.020000
v -0.062724 0.206708 0.020000
v -0.164271 -0.189861 -0.020000
v -0.183460 -0.135488 -0.020000
v -0.194798 -0.071659 -0.020000
v -0.198552 0.001934 -0.020000
v -0.194755 0.074835 -0.020000
v -0.183281 0.138068 -0.020000
v -0.163867 0.191911 -0.020000
v -0.125435 0.247156 -0.020000
v -0.072711 0.280841 -0.020000
v -0.007034 0.291948 -0.020000
v 0.064496 0.281443 -0.020000
v 0.121316 0.249523 -0.020000
v 0.162202 0.196718 -0.020000
v 0.182575 0.143445 -0.020000
v 0.194568 0.077994 -0.020000
v 0.198552 -0.000376 -0.020000
v 0.176378 -0.160213 -0.020000
v 0.107843 -0.259019 -0.020000
v -0.006360 -0.291948 -0.020000
v -0.072807 -0.280496 -0.020000
v -0.125653 -0.246153 -0.020000
v -0.164271 -0.189861 0.020000
v -0.183460 -0.135488 0.020000
v -0.194798 -0.071659 0.020000
v -0.198552 0.001935 0.020000
v -0.194755 0.074835 0.020000
v -0.183281 0.138068 0.020000
v -0.163867 0.191911 0.020000
v -0.125435 0.247156 0.020000
v -0.072711 0.280841 0.020000
v -0.007034 0.291948 0.020000
v 0.064496 0.281443 0.020000
v 0.121316 0.249523 0.020000
v 0.162202 0.196718 0.020000
v 0.182575 0.143445 0.020000
v 0.194568 0.077994 0.020000
v 0.198552 -0.000376 0.020000
v 0.176378 -0.160213 0.020000
v 0.107843 -0.259019 0.020000
v -0.006360 -0.291948 0.020000
v -0.072807 -0.280496 0.020000
v -0.125653 -0.246153 0.020000
vn -0.000000 0.000000 1.000000
vn -0.000000 -0.000001 1.000000
vn -0.280557 -0.251900 0.926176
vn -0.346141 -0.157231 0.924894
vn -0.825648 -0.411878 0.385479
vn -0.650655 -0.652120 0.389050
vn -0.192877 -0.407697 0.892483
vn -0.346080 -0.853511 0.389447
vn -0.009583 -0.449324 0.893277
vn 0.038545 -0.919523 0.391095
vn 0.242439 -0.337779 0.909452
vn 0.488632 -0.811274 0.320994
vn 0.358776 -0.108127 0.927122
vn 0.828211 -0.401654 0.390728
vn 0.326243 -0.003906 0.945250
vn 0.920713 -0.069216 0.383953
vn 0.302438 0.035218 0.952483
vn 0.894345 0.094058 0.437300
vn 0.370281 0.091586 0.924375
vn 0.890347 0.244453 0.384045
vn 0.339610 0.169439 0.925169
vn 0.807886 0.445112 0.386212
vn 0.218024 0.252693 0.942625
vn 0.653340 0.690451 0.310404
vn 0.119388 0.436201 0.891873
vn 0.350841 0.852443 0.387555
vn -0.005432 0.500778 0.865535
vn 0.014557 0.897458 0.440809
vn -0.135289 0.350902 0.926572
vn -0.300821 0.901700 0.310434
vn -0.238380 0.217017 0.946593
vn -0.593097 0.705222 0.388379
vn -0.345073 0.159551 0.924894
vn -0.800501 0.459151 0.385174
vn -0.371166 0.088839 0.924284
vn -0.884732 0.264595 0.383679
vn -0.380383 0.036042 0.924100
vn -0.914975 0.126164 0.383251
vn -0.304727 0.000153 0.952422
vn -0.899380 0.008423 0.437025
vn -0.380474 -0.035310 0.924100
vn -0.918027 -0.101199 0.383312
vn -0.444502 -0.104190 0.889676
vn -0.894040 -0.230995 0.383770
vn -0.803491 -0.453841 -0.385174
vn -0.598285 -0.700858 -0.388318
vn -0.276711 -0.878811 -0.388684
vn 0.120640 -0.912778 -0.390149
vn 0.612262 -0.722526 -0.320994
vn 0.861568 -0.322794 -0.391766
vn 0.922605 -0.035157 -0.384106
vn 0.892026 0.114078 -0.437300
vn 0.881008 0.276376 -0.383892
vn 0.780999 0.491073 -0.385815
vn 0.587298 0.747459 -0.310404
vn 0.288339 0.875301 -0.388165
vn -0.034028 0.896939 -0.440809
vn -0.382427 0.870266 -0.310434
vn -0.646016 0.656697 -0.389080
vn -0.822901 0.417371 -0.385479
vn -0.892819 0.235603 -0.383801
vn -0.917783 0.103336 -0.383343
vn -0.899380 -0.007447 -0.437025
vn -0.915311 -0.123569 -0.383221
vn -0.886258 -0.259468 -0.383648
vn -0.685690 -0.615619 0.388318
vn -0.840205 -0.381634 0.385174
vn -0.426923 -0.902402 -0.058138
vn -0.021302 -0.998047 -0.058382
vn 0.581866 -0.810694 0.064241
vn 0.881314 -0.265633 0.390728
vn 0.747246 -0.008942 0.664449
vn 0.660298 0.076937 0.747002
vn 0.896329 0.221717 0.383892
vn 0.825495 0.411878 0.385815
vn 0.514237 0.595996 0.616688
vn 0.263588 0.962859 -0.057955
vn -0.010407 0.958678 -0.284280
vn -0.331370 0.859401 0.389325
vn -0.549303 0.500076 0.669424
vn -0.837611 0.387280 0.385174
vn -0.898068 0.214972 0.383679
vn -0.919492 0.087130 0.383251
vn -0.665059 0.000336 0.746757
vn -0.919675 -0.085360 0.383221
vn -0.972015 -0.227821 -0.057253
vn 0.307810 -0.219733 0.925687
vn 0.360973 -0.123997 0.924253
vn 0.808283 -0.443556 0.387158
vn 0.888455 -0.251778 0.383648
vn 0.200232 -0.397931 0.895260
vn 0.558794 -0.729820 0.393811
vn 0.000305 -0.243202 0.969970
vn 0.045778 -0.891476 0.450697
vn -0.198492 -0.399121 0.895108
vn -0.470840 -0.788873 0.394940
vn -0.305704 -0.222755 0.925687
vn -0.770440 -0.506058 0.387646
vn -0.359569 -0.128025 0.924284
vn -0.876736 -0.289865 0.383770
vn -0.374798 -0.075381 0.924009
vn -0.908017 -0.169469 0.383099
vn -0.434614 -0.037385 0.899808
vn -0.947844 -0.091281 0.305338
vn -0.456496 0.020692 0.889462
vn -0.923612 0.002014 0.383282
vn -0.360942 0.114750 0.925474
vn -0.904324 0.180853 0.386608
vn -0.223487 0.286538 0.931608
vn -0.725852 0.557665 0.402600
vn -0.000336 0.197150 0.980346
vn -0.069521 0.880642 0.468612
vn 0.222449 0.287332 0.931608
vn 0.632160 0.660390 0.405255
vn 0.308359 0.098941 0.946074
vn 0.889950 0.240974 0.387188
vn 0.381664 0.017914 0.924100
vn 0.923185 0.027100 0.383312
vn 0.434858 -0.034913 0.899808
vn 0.949858 -0.067110 0.305338
vn 0.375530 -0.071657 0.924009
vn 0.912564 -0.143132 0.383038
vn 0.879879 -0.280129 -0.383770
vn 0.775506 -0.498215 -0.387738
vn 0.475204 -0.786096 -0.395215
vn -0.043458 -0.891598 -0.450697
vn -0.553758 -0.733757 -0.393536
vn -0.803552 -0.452101 -0.387097
vn -0.885647 -0.261513 -0.383648
vn -0.911222 -0.151402 -0.383038
vn -0.949492 -0.071932 -0.305338
vn -0.923246 0.025330 -0.383343
vn -0.890530 0.238868 -0.387097
vn -0.634571 0.658071 -0.405255
vn 0.066286 0.880886 -0.468612
vn 0.723808 0.560320 -0.402600
vn 0.903958 0.182470 -0.386670
vn 0.923612 0.004212 -0.383251
vn 0.948393 -0.085360 -0.305338
vn 0.909604 -0.160741 -0.383068
vn 0.873348 -0.299997 0.383648
vn 0.750420 -0.535661 0.387158
vn 0.448714 -0.891690 -0.059023
vn 0.000580 -0.464827 0.885372
vn -0.444533 -0.893796 -0.058992
vn -0.745140 -0.543016 0.387097
vn -0.869961 -0.309732 0.383648
vn -0.905576 -0.182195 0.383038
vn -0.994476 -0.085543 0.060579
vn -0.997314 0.045198 -0.057192
vn -0.878872 0.279397 0.386608
vn -0.562975 0.721763 0.402600
vn -0.000610 0.338481 0.940947
vn 0.560320 0.723808 0.402600
vn 0.708945 0.227515 0.667531
vn 0.922605 0.043306 0.383251
vn 0.994934 -0.079928 0.060579
vn 0.907346 -0.173193 0.383038
usemtl (null)
s off
f 27//1 29//1 28//1
f 27//1 30//1 29//1
f 26//1 16//1 27//1
f 16//2 30//2 27//2
f 26//1 17//1 16//1
f 15//1 30//1 16//1
f 14//1 30//1 15//1
f 26//1 18//1 17//1
f 14//1 31//1 30//1
f 25//1 18//1 26//1
f 13//1 31//1 14//1
f 25//1 1//1 18//1
f 13//1 32//1 31//1
f 24//1 1//1 25//1
f 12//1 32//1 13//1
f 2//1 1//1 24//1
f 12//1 33//1 32//1
f 23//1 2//1 24//1
f 11//1 33//1 12//1
f 23//1 3//1 2//1
f 11//1 34//1 33//1
f 22//1 3//1 23//1
f 10//1 34//1 11//1
f 22//1 4//1 3//1
f 21//1 4//1 22//1
f 9//1 34//1 10//1
f 9//1 35//1 34//1
f 21//1 5//1 4//1
f 20//1 5//1 21//1
f 19//1 5//1 20//1
f 8//1 35//1 9//1
f 19//1 6//1 5//1
f 8//1 36//1 35//1
f 39//1 6//1 19//1
f 7//1 36//1 8//1
f 39//1 7//1 6//1
f 38//1 7//1 39//1
f 7//1 37//1 36//1
f 38//1 37//1 7//1
f 66//1 68//1 67//1
f 66//1 69//1 68//1
f 65//1 55//1 66//1
f 55//2 69//2 66//2
f 65//1 56//1 55//1
f 54//1 69//1 55//1
f 53//1 69//1 54//1
f 65//1 57//1 56//1
f 53//1 70//1 69//1
f 64//1 57//1 65//1
f 52//1 70//1 53//1
f 64//1 40//1 57//1
f 52//1 71//1 70//1
f 63//1 40//1 64//1
f 51//1 71//1 52//1
f 63//1 41//1 40//1
f 51//1 72//1 71//1
f 62//1 41//1 63//1
f 50//1 72//1 51//1
f 62//1 42//1 41//1
f 50//1 73//1 72//1
f 61//1 42//1 62//1
f 49//1 73//1 50//1
f 61//1 43//1 42//1
f 60//1 43//1 61//1
f 48//1 73//1 49//1
f 48//1 74//1 73//1
f 60//1 44//1 43//1
f 59//1 44//1 60//1
f 58//1 44//1 59//1
f 47//1 74//1 48//1
f 58//1 45//1 44//1
f 47//1 75//1 74//1
f 78//1 45//1 58//1
f 46//1 75//1 47//1
f 78//1 46//1 45//1
f 77//1 46//1 78//1
f 46//1 76//1 75//1
f 77//1 76//1 46//1
s 1
f 39//3 19//4 136//5
f 39//3 136//5 156//6
f 38//7 39//3 156//6
f 38//7 156//6 155//8
f 37//9 38//7 155//8
f 37//9 155//8 154//10
f 36//11 37//9 154//10
f 36//11 154//10 153//12
f 35//13 36//11 152//14
f 36//11 153//12 152//14
f 34//15 35//13 151//16
f 35//13 152//14 151//16
f 33//17 34//15 150//18
f 34//15 151//16 150//18
f 32//19 33//17 150//18
f 32//19 150//18 149//20
f 31//21 32//19 149//20
f 31//21 149//20 148//22
f 30//23 31//21 148//22
f 30//23 148//22 147//24
f 29//25 30//23 146//26
f 30//23 147//24 146//26
f 28//27 29//25 145//28
f 29//25 146//26 145//28
f 27//29 28//27 145//28
f 27//29 145//28 144//30
f 26//31 27//29 143//32
f 27//29 144//30 143//32
f 25//33 26//31 142//34
f 26//31 143//32 142//34
f 24//35 25//33 141//36
f 25//33 142//34 141//36
f 23//37 24//35 140//38
f 24//35 141//36 140//38
f 22//39 23//37 139//40
f 23//37 140//38 139//40
f 21//41 22//39 139//40
f 21//41 139//40 138//42
f 20//43 21//41 138//42
f 20//43 138//42 137//44
f 19//4 20//43 137//44
f 19//4 137//44 136//5
f 156//6 136//5 115//45
f 156//6 115//45 135//46
f 155//8 156//6 135//46
f 155//8 135//46 134//47
f 154//10 155//8 134//47
f 154//10 134//47 133//48
f 153//12 154//10 133//48
f 153//12 133//48 132//49
f 152//14 153//12 132//49
f 152//14 132//49 131//50
f 151//16 152//14 131//50
f 151//16 131//50 130//51
f 150//18 151//16 130//51
f 150//18 130//51 129//52
f 149//20 150//18 129//52
f 149//20 129//52 128//53
f 148//22 149//20 128//53
f 148//22 128//53 127//54
f 147//24 148//22 127//54
f 147//24 127//54 126//55
f 146//26 147//24 126//55
f 146//26 126//55 125//56
f 145//28 146//26 125//56
f 145//28 125//56 124//57
f 144//30 145//28 124//57
f 144//30 124//57 123//58
f 143//32 144//30 123//58
f 143//32 123//58 122//59
f 142//34 143//32 122//59
f 142//34 122//59 121//60
f 141//36 142//34 121//60
f 141//36 121//60 120//61
f 140//38 141//36 120//61
f 140//38 120//61 119//62
f 139//40 140//38 119//62
f 139//40 119//62 118//63
f 138//42 139//40 118//63
f 138//42 118//63 117//64
f 137//44 138//42 117//64
f 137//44 117//64 116//65
f 136//5 137//44 116//65
f 136//5 116//65 115//45
f 135//46 115//45 78//66
f 115//45 58//67 78//66
f 134//47 135//46 77//68
f 135//46 78//66 77//68
f 133//48 134//47 76//69
f 134//47 77//68 76//69
f 132//49 133//48 75//70
f 133//48 76//69 75//70
f 131//50 132//49 75//70
f 131//50 75//70 74//71
f 130//51 131//50 74//71
f 130//51 74//71 73//72
f 129//52 130//51 73//72
f 129//52 73//72 72//73
f 128//53 129//52 71//74
f 129//52 72//73 71//74
f 127//54 128//53 70//75
f 128//53 71//74 70//75
f 126//55 127//54 69//76
f 127//54 70//75 69//76
f 125//56 126//55 69//76
f 125//56 69//76 68//77
f 124//57 125//56 68//77
f 124//57 68//77 67//78
f 123//58 124//57 66//79
f 124//57 67//78 66//79
f 122//59 123//58 66//79
f 122//59 66//79 65//80
f 121//60 122//59 65//80
f 121//60 65//80 64//81
f 120//61 121//60 64//81
f 120//61 64//81 63//82
f 119//62 120//61 63//82
f 119//62 63//82 62//83
f 118//63 119//62 62//83
f 118//63 62//83 61//84
f 117//64 118//63 60//85
f 118//63 61//84 60//85
f 116//65 117//64 59//86
f 117//64 60//85 59//86
f 115//45 116//65 58//67
f 116//65 59//86 58//67
f 18//87 1//88 114//89
f 1//88 97//90 114//89
f 17//91 18//87 113//92
f 18//87 114//89 113//92
f 16//93 17//91 112//94
f 17//91 113//92 112//94
f 15//95 16//93 112//94
f 15//95 112//94 111//96
f 14//97 15//95 111//96
f 14//97 111//96 110//98
f 13//99 14//97 110//98
f 13//99 110//98 109//100
f 12//101 13//99 109//100
f 12//101 109//100 108//102
f 11//103 12//101 108//102
f 11//103 108//102 107//104
f 10//105 11//103 106//106
f 11//103 107//104 106//106
f 9//107 10//105 105//108
f 10//105 106//106 105//108
f 8//109 9//107 104//110
f 9//107 105//108 104//110
f 7//111 8//109 103//112
f 8//109 104//110 103//112
f 6//113 7//111 103//112
f 6//113 103//112 102//114
f 5//115 6//113 102//114
f 5//115 102//114 101//116
f 4//117 5//115 101//116
f 4//117 101//116 100//118
f 3//119 4//117 100//118
f 3//119 100//118 99//120
f 2//121 3//119 98//122
f 3//119 99//120 98//122
f 1//88 2//121 97//90
f 2//121 98//122 97//90
f 114//89 97//90 79//123
f 114//89 79//123 96//124
f 113//92 114//89 96//124
f 113//92 96//124 95//125
f 112//94 113//92 95//125
f 112//94 95//125 94//126
f 111//96 112//94 94//126
f 111//96 94//126 93//127
f 110//98 111//96 93//127
f 110//98 93//127 92//128
f 109//100 110//98 92//128
f 109//100 92//128 91//129
f 108//102 109//100 91//129
f 108//102 91//129 90//130
f 107//104 108//102 90//130
f 107//104 90//130 89//131
f 106//106 107//104 89//131
f 106//106 89//131 88//132
f 105//108 106//106 88//132
f 105//108 88//132 87//133
f 104//110 105//108 87//133
f 104//110 87//133 86//134
f 103//112 104//110 86//134
f 103//112 86//134 85//135
f 102//114 103//112 85//135
f 102//114 85//135 84//136
f 101//116 102//114 84//136
f 101//116 84//136 83//137
f 100//118 101//116 83//137
f 100//118 83//137 82//138
f 99//120 100//118 82//138
f 99//120 82//138 81//139
f 98//122 99//120 81//139
f 98//122 81//139 80//140
f 97//90 98//122 80//140
f 97//90 80//140 79//123
f 96//124 79//123 40//141
f 96//124 40//141 57//142
f 95//125 96//124 57//142
f 95//125 57//142 56//143
f 94//126 95//125 56//143
f 94//126 56//143 55//144
f 93//127 94//126 54//145
f 94//126 55//144 54//145
f 92//128 93//127 53//146
f 93//127 54//145 53//146
f 91//129 92//128 52//147
f 92//128 53//146 52//147
f 90//130 91//129 51//148
f 91//129 52//147 51//148
f 89//131 90//130 50//149
f 90//130 51//148 50//149
f 88//132 89//131 50//149
f 88//132 50//149 49//150
f 87//133 88//132 49//150
f 87//133 49//150 48//151
f 86//134 87//133 48//151
f 86//134 48//151 47//152
f 85//135 86//134 47//152
f 85//135 47//152 46//153
f 84//136 85//135 45//154
f 85//135 46//153 45//154
f 83//137 84//136 44//155
f 84//136 45//154 44//155
f 82//138 83//137 43//156
f 83//137 44//155 43//156
f 81//139 82//138 42//157
f 82//138 43//156 42//157
f 80//140 81//139 42//157
f 80//140 42//157 41//158
f 79//123 80//140 41//158
f 79//123 41//158 40//141
