# Blender3D v249 OBJ File: chiffres.blend
# www.blender3d.org
mtllib 1.mtl
v -0.044753 0.228400 0.020000
v -0.044753 -0.246389 0.020000
v -0.077265 -0.246389 0.020000
v -0.077265 -0.288811 0.020000
v 0.077265 -0.288811 0.020000
v 0.077265 -0.246389 0.020000
v 0.049611 -0.246389 0.020000
v 0.049611 0.288811 0.020000
v -0.077265 0.266186 0.020000
v -0.077265 0.223916 0.020000
v -0.044753 0.228400 -0.020000
v -0.044753 -0.246389 -0.020000
v -0.077265 -0.246389 -0.020000
v -0.077265 -0.288811 -0.020000
v 0.077265 -0.288811 -0.020000
v 0.077265 -0.246389 -0.020000
v 0.049611 -0.246389 -0.020000
v 0.049611 0.288811 -0.020000
v -0.077265 0.266186 -0.020000
v -0.077265 0.223916 -0.020000
v -0.034753 0.239874 -0.030000
v -0.034753 -0.256389 -0.030000
v -0.067265 -0.256389 -0.030000
v -0.067265 -0.278811 -0.030000
v 0.067265 -0.278811 -0.030000
v 0.067265 -0.256389 -0.030000
v 0.039611 -0.256389 -0.030000
v 0.039611 0.276870 -0.030000
v -0.067265 0.257811 -0.030000
v -0.067265 0.235390 -0.030000
v -0.034753 0.239874 0.030000
v -0.034753 -0.256389 0.030000
v -0.067265 -0.256389 0.030000
v -0.067265 -0.278811 0.030000
v 0.067265 -0.278811 0.030000
v 0.067265 -0.256389 0.030000
v 0.039611 -0.256389 0.030000
v 0.039611 0.276870 0.030000
v -0.067265 0.257811 0.030000
v -0.067265 0.235390 0.030000
vn 0.000000 0.000000 1.000000
vn -0.403546 -0.809290 -0.426771
vn -0.720450 0.446120 -0.530931
vn -0.468337 -0.537370 -0.701315
vn -0.674490 0.564867 0.475326
vn 0.378002 0.817774 -0.433943
vn 0.584124 0.697501 -0.415021
vn 0.676290 0.478195 -0.560259
vn 0.255043 0.255043 0.932676
vn 0.574511 0.644215 -0.504807
vn 0.445875 0.891781 -0.076479
vn 0.644215 -0.574511 -0.504807
vn 0.729576 -0.364788 -0.578478
vn -0.574511 -0.644215 -0.504807
vn -0.287942 -0.575915 0.765069
vn -0.773675 0.487869 -0.404157
vn -0.521867 0.521867 -0.674734
vn -0.390881 0.781793 -0.485733
vn -0.781793 0.390881 0.485733
vn -0.639882 -0.496170 -0.586779
vn -0.222175 -0.254921 0.941069
vn -0.746574 -0.510330 0.426771
vn -0.565691 0.630940 0.530931
vn 0.738731 0.515702 0.433943
vn 0.478195 0.676290 0.560259
vn 0.773675 0.487869 0.404157
vn 0.574511 -0.644215 0.504807
vn -0.644215 -0.574511 0.504807
vn -0.574511 0.644215 0.504807
vn -0.644215 0.574511 0.504807
vn -0.404065 -0.701682 0.586779
vn -0.286905 -0.329173 0.899594
vn -0.232032 0.194311 0.953093
vn 0.225990 0.269875 0.935972
vn 0.128422 0.128422 0.983367
vn 0.270577 0.270577 0.923856
vn 0.202063 -0.404157 0.892056
vn -0.223670 -0.111820 0.968200
vn -0.202063 0.404157 0.892056
vn -0.263833 0.131901 0.955473
vn -0.111118 -0.127506 0.985565
usemtl (null)
s off
f 24//1 25//1 26//1
f 24//1 26//1 27//1
f 24//1 27//1 22//1
f 24//1 22//1 23//1
f 22//1 27//1 21//1
f 30//1 21//1 29//1
f 21//1 27//1 28//1
f 29//1 21//1 28//1
f 34//1 35//1 36//1
f 34//1 36//1 37//1
f 34//1 37//1 32//1
f 34//1 32//1 33//1
f 32//1 37//1 31//1
f 40//1 31//1 39//1
f 31//1 37//1 38//1
f 39//1 31//1 38//1
s 1
f 20//2 19//3 30//4
f 19//3 29//5 30//4
f 19//3 18//6 28//7
f 19//3 28//7 29//5
f 18//6 17//8 28//7
f 17//8 27//9 28//7
f 17//8 16//10 26//11
f 17//8 26//11 27//9
f 16//10 15//12 25//13
f 16//10 25//13 26//11
f 15//12 14//14 24//15
f 15//12 24//15 25//13
f 14//14 13//16 23//17
f 14//14 23//17 24//15
f 13//16 12//18 23//17
f 12//18 22//19 23//17
f 12//18 11//20 22//19
f 11//20 21//21 22//19
f 11//20 20//2 30//4
f 11//20 30//4 21//21
f 10//22 9//23 19//3
f 10//22 19//3 20//2
f 9//23 8//24 18//6
f 9//23 18//6 19//3
f 8//24 7//25 17//8
f 8//24 17//8 18//6
f 7//25 6//26 16//10
f 7//25 16//10 17//8
f 6//26 5//27 15//12
f 6//26 15//12 16//10
f 5//27 4//28 14//14
f 5//27 14//14 15//12
f 4//28 3//29 13//16
f 4//28 13//16 14//14
f 3//29 2//30 12//18
f 3//29 12//18 13//16
f 2//30 1//31 11//20
f 2//30 11//20 12//18
f 1//31 10//22 20//2
f 1//31 20//2 11//20
f 40//32 39//33 9//23
f 40//32 9//23 10//22
f 39//33 38//34 9//23
f 38//34 8//24 9//23
f 38//34 37//35 7//25
f 38//34 7//25 8//24
f 37//35 36//36 7//25
f 36//36 6//26 7//25
f 36//36 35//37 5//27
f 36//36 5//27 6//26
f 35//37 34//38 4//28
f 35//37 4//28 5//27
f 34//38 33//39 3//29
f 34//38 3//29 4//28
f 33//39 32//40 2//30
f 33//39 2//30 3//29
f 1//31 2//30 32//40
f 1//31 32//40 31//41
f 10//22 1//31 40//32
f 1//31 31//41 40//32
