# Blender3D v249 OBJ File: chiffres.blend
# www.blender3d.org
mtllib 4.mtl
v 0.020284 -0.063991 0.020000
v -0.105661 -0.063991 0.020000
v 0.020590 0.146529 0.020000
v 0.020284 -0.063991 -0.020000
v -0.105661 -0.063991 -0.020000
v 0.020590 0.146529 -0.020000
v 0.151256 -0.282795 0.020000
v 0.151256 -0.240374 0.020000
v 0.114634 -0.240374 0.020000
v 0.114634 -0.143034 0.020000
v 0.175172 -0.143034 0.020000
v 0.175172 -0.063991 0.020000
v 0.114634 -0.063991 0.020000
v 0.114634 0.282795 0.020000
v 0.052252 0.282795 0.020000
v -0.175172 -0.097387 0.020000
v -0.175172 -0.143034 0.020000
v 0.020269 -0.143034 0.020000
v 0.020269 -0.240374 0.020000
v -0.015605 -0.240374 0.020000
v -0.015605 -0.282795 0.020000
v 0.151256 -0.282795 -0.020000
v 0.151256 -0.240374 -0.020000
v 0.114634 -0.240374 -0.020000
v 0.114634 -0.143034 -0.020000
v 0.175172 -0.143034 -0.020000
v 0.175172 -0.063991 -0.020000
v 0.114634 -0.063991 -0.020000
v 0.114634 0.282795 -0.020000
v 0.052252 0.282795 -0.020000
v -0.175172 -0.097387 -0.020000
v -0.175172 -0.143034 -0.020000
v 0.020269 -0.143034 -0.020000
v 0.020269 -0.240374 -0.020000
v -0.015605 -0.240374 -0.020000
v -0.015605 -0.282795 -0.020000
v 0.030269 -0.073991 -0.030000
v -0.123318 -0.073991 -0.030000
v 0.030643 0.182735 -0.030000
v 0.141256 -0.272795 -0.030000
v 0.141256 -0.250374 -0.030000
v 0.104634 -0.250374 -0.030000
v 0.104634 -0.133034 -0.030000
v 0.165172 -0.133034 -0.030000
v 0.165172 -0.073991 -0.030000
v 0.104634 -0.073991 -0.030000
v 0.104634 0.272795 -0.030000
v 0.057922 0.272795 -0.030000
v -0.165172 -0.100149 -0.030000
v -0.165172 -0.133034 -0.030000
v 0.030269 -0.133034 -0.030000
v 0.030269 -0.250374 -0.030000
v -0.005605 -0.250374 -0.030000
v -0.005605 -0.272795 -0.030000
v 0.030269 -0.073991 0.030000
v -0.123318 -0.073991 0.030000
v 0.030643 0.182735 0.030000
v 0.141256 -0.272795 0.030000
v 0.141256 -0.250374 0.030000
v 0.104634 -0.250374 0.030000
v 0.104634 -0.133034 0.030000
v 0.165172 -0.133034 0.030000
v 0.165172 -0.073991 0.030000
v 0.104634 -0.073991 0.030000
v 0.104634 0.272795 0.030000
v 0.057922 0.272795 0.030000
v -0.165172 -0.100149 0.030000
v -0.165172 -0.133034 0.030000
v 0.030269 -0.133034 0.030000
v 0.030269 -0.250374 0.030000
v -0.005605 -0.250374 0.030000
v -0.005605 -0.272795 0.030000
vn 0.000000 0.000000 1.000000
vn 0.000000 0.000000 0.000000
vn -0.574511 -0.644215 -0.504807
vn -0.773675 0.487869 -0.404157
vn -0.521867 0.521867 -0.674734
vn -0.287942 -0.575915 0.765069
vn -0.478195 0.676290 -0.560259
vn -0.255043 0.255043 0.932676
vn -0.644215 -0.574511 -0.504807
vn -0.729576 -0.364788 -0.578478
vn -0.487869 -0.773675 -0.404157
vn -0.521867 -0.521867 -0.674734
vn -0.871426 0.196844 -0.449263
vn -0.228492 0.063112 0.971465
vn -0.470626 0.770592 -0.429731
vn -0.644887 0.761528 -0.064455
vn 0.487869 0.773675 -0.404157
vn 0.653279 0.653279 -0.382672
vn 0.676290 0.478195 -0.560259
vn 0.255043 0.255043 0.932676
vn 0.574511 0.644215 -0.504807
vn 0.445875 0.891781 -0.076479
vn 0.773675 -0.487869 -0.404157
vn 0.653279 -0.653279 -0.382672
vn 0.478195 -0.676290 -0.560259
vn 0.610126 -0.610126 0.505448
vn 0.644215 0.574511 -0.504807
vn 0.781793 0.390881 0.485733
vn 0.644215 -0.574511 -0.504807
vn 0.729576 -0.364788 -0.578478
vn -0.644215 -0.574511 0.504807
vn -0.574511 0.644215 0.504807
vn -0.644215 0.574511 0.504807
vn -0.478195 -0.676290 0.560259
vn -0.773675 -0.487869 0.404157
vn -0.848872 0.278390 0.449263
vn -0.292673 0.857143 0.423780
vn 0.773675 0.487869 0.404157
vn 0.478195 0.676290 0.560259
vn 0.574511 -0.644215 0.504807
vn 0.644215 -0.574511 0.504807
vn -0.223670 -0.111820 0.968200
vn -0.202063 0.404157 0.892056
vn -0.223670 0.111820 0.968200
vn -0.270577 -0.270577 0.923856
vn -0.327403 -0.327403 0.886319
vn -0.154118 0.042573 0.987121
vn -0.267953 0.316416 0.909970
vn 0.270577 0.270577 0.923856
vn 0.128422 0.128422 0.983367
vn 0.160161 -0.320353 0.933622
vn 0.320353 -0.160161 0.933622
vn 0.156224 0.156224 0.975280
vn 0.202063 -0.404157 0.892056
vn -0.399121 -0.367321 -0.840083
vn 0.702078 0.309030 -0.641499
vn 0.994873 -0.016602 -0.099521
vn -0.027924 -0.100558 0.994507
vn -0.487594 0.773949 -0.403943
vn -0.704001 0.705008 0.085391
vn 0.152593 -0.520493 0.840083
vn 0.404859 0.701376 0.586627
vn -0.773247 0.488723 0.403943
vn -0.015656 -0.056429 0.998260
vn 0.282296 -0.004700 0.959288
vn -0.229469 0.229804 0.945769
usemtl (null)
s off
f 54//1 40//1 41//1
f 54//1 41//1 42//1
f 54//1 42//1 52//1
f 54//1 52//1 53//1
f 52//1 42//1 43//1
f 43//2 44//2 51//2
f 52//1 43//1 51//1
f 51//2 44//2 50//2
f 50//1 44//1 49//1
f 49//1 44//1 45//1
f 49//1 45//1 46//1
f 49//1 46//1 37//1
f 49//1 37//1 38//1
f 37//1 46//1 39//1
f 49//1 38//1 39//1
f 39//1 46//1 47//1
f 39//1 47//1 48//1
f 49//1 39//1 48//1
f 72//1 58//1 59//1
f 72//1 59//1 60//1
f 72//1 60//1 70//1
f 72//1 70//1 71//1
f 70//1 60//1 61//1
f 61//2 62//2 69//2
f 70//1 61//1 69//1
f 69//2 62//2 68//2
f 68//1 62//1 67//1
f 67//1 62//1 63//1
f 67//1 63//1 64//1
f 67//1 64//1 55//1
f 67//1 55//1 56//1
f 55//1 64//1 57//1
f 67//1 56//1 57//1
f 57//1 64//1 65//1
f 57//1 65//1 66//1
f 67//1 57//1 66//1
s 1
f 36//3 35//4 53//5
f 36//3 53//5 54//6
f 35//4 34//7 53//5
f 34//7 52//8 53//5
f 34//7 33//9 51//10
f 34//7 51//10 52//8
f 33//9 32//11 50//12
f 33//9 50//12 51//10
f 32//11 31//13 50//12
f 31//13 49//14 50//12
f 31//13 30//15 48//16
f 31//13 48//16 49//14
f 30//15 29//17 47//18
f 30//15 47//18 48//16
f 29//17 28//19 47//18
f 28//19 46//20 47//18
f 28//19 27//21 45//22
f 28//19 45//22 46//20
f 27//21 26//23 44//24
f 27//21 44//24 45//22
f 26//23 25//25 44//24
f 25//25 43//26 44//24
f 25//25 24//27 42//28
f 25//25 42//28 43//26
f 24//27 23//21 41//22
f 24//27 41//22 42//28
f 23//21 22//29 40//30
f 23//21 40//30 41//22
f 22//29 36//3 54//6
f 22//29 54//6 40//30
f 21//31 20//32 35//4
f 21//31 35//4 36//3
f 20//32 19//33 34//7
f 20//32 34//7 35//4
f 19//33 18//34 33//9
f 19//33 33//9 34//7
f 18//34 17//35 32//11
f 18//34 32//11 33//9
f 17//35 16//36 31//13
f 17//35 31//13 32//11
f 16//36 15//37 30//15
f 16//36 30//15 31//13
f 15//37 14//38 29//17
f 15//37 29//17 30//15
f 14//38 13//39 28//19
f 14//38 28//19 29//17
f 13//39 12//38 27//21
f 13//39 27//21 28//19
f 12//38 11//40 26//23
f 12//38 26//23 27//21
f 11//40 10//41 25//25
f 11//40 25//25 26//23
f 10//41 9//39 24//27
f 10//41 24//27 25//25
f 9//39 8//38 23//21
f 9//39 23//21 24//27
f 8//38 7//40 22//29
f 8//38 22//29 23//21
f 7//40 21//31 36//3
f 7//40 36//3 22//29
f 72//42 71//43 20//32
f 72//42 20//32 21//31
f 71//43 70//44 19//33
f 71//43 19//33 20//32
f 70//44 69//45 18//34
f 70//44 18//34 19//33
f 69//45 68//46 18//34
f 68//46 17//35 18//34
f 68//46 67//47 16//36
f 68//46 16//36 17//35
f 67//47 66//48 16//36
f 66//48 15//37 16//36
f 66//48 65//49 15//37
f 65//49 14//38 15//37
f 65//49 64//50 13//39
f 65//49 13//39 14//38
f 64//50 63//49 13//39
f 63//49 12//38 13//39
f 63//49 62//51 11//40
f 63//49 11//40 12//38
f 62//51 61//52 10//41
f 62//51 10//41 11//40
f 61//52 60//53 9//39
f 61//52 9//39 10//41
f 60//53 59//49 9//39
f 59//49 8//38 9//39
f 59//49 58//54 7//40
f 59//49 7//40 8//38
f 58//54 72//42 21//31
f 58//54 21//31 7//40
f 6//55 5//56 38//57
f 6//55 38//57 39//58
f 5//56 4//59 37//60
f 5//56 37//60 38//57
f 4//59 6//55 37//60
f 6//55 39//58 37//60
f 3//61 2//62 5//56
f 3//61 5//56 6//55
f 2//62 1//63 4//59
f 2//62 4//59 5//56
f 1//63 3//61 6//55
f 1//63 6//55 4//59
f 57//64 56//65 3//61
f 56//65 2//62 3//61
f 1//63 2//62 55//66
f 2//62 56//65 55//66
f 3//61 1//63 55//66
f 3//61 55//66 57//64
