# Blender3D v249 OBJ File: chiffres.blend
# www.blender3d.org
mtllib 5.mtl
v -0.117534 0.287128 0.020000
v -0.143574 -0.000522 0.020000
v -0.099677 -0.003265 0.020000
v -0.069192 0.020133 0.020000
v -0.043085 0.032156 0.020000
v -0.017684 0.036055 0.020000
v 0.011611 0.031006 0.020000
v 0.036566 0.015922 0.020000
v 0.058018 -0.010080 0.020000
v 0.071816 -0.038454 0.020000
v 0.080181 -0.069792 0.020000
v 0.082991 -0.104070 0.020000
v 0.080334 -0.139290 0.020000
v 0.072448 -0.170361 0.020000
v 0.059536 -0.197187 0.020000
v 0.039029 -0.221212 0.020000
v 0.014003 -0.235276 0.020000
v -0.016547 -0.240042 0.020000
v -0.043736 -0.236222 0.020000
v -0.068246 -0.224754 0.020000
v -0.090442 -0.205304 0.020000
v -0.107102 -0.181597 0.020000
v -0.117047 -0.155649 0.020000
v -0.120429 -0.126770 0.020000
v -0.120251 -0.120725 0.020000
v -0.119676 -0.114049 0.020000
v -0.117058 -0.095412 0.020000
v -0.175575 -0.096021 0.020000
v -0.169533 -0.152090 0.020000
v -0.154514 -0.193988 0.020000
v -0.129466 -0.231340 0.020000
v -0.095167 -0.262239 0.020000
v -0.054942 -0.280949 0.020000
v -0.009523 -0.287128 0.020000
v 0.042432 -0.281661 0.020000
v 0.087351 -0.265104 0.020000
v 0.124969 -0.237350 0.020000
v 0.153188 -0.200145 0.020000
v 0.170032 -0.155427 0.020000
v 0.175575 -0.103668 0.020000
v 0.170118 -0.052300 0.020000
v 0.153550 -0.007743 0.020000
v 0.125789 0.029574 0.020000
v 0.088722 0.057568 0.020000
v 0.044391 0.074283 0.020000
v -0.006671 0.079778 0.020000
v -0.040981 0.076659 0.020000
v -0.074664 0.067353 0.020000
v -0.091259 0.059612 0.020000
v -0.078713 0.197622 0.020000
v 0.137979 0.197622 0.020000
v 0.163002 0.287128 0.020000
v -0.117534 0.287128 -0.020000
v -0.143574 -0.000522 -0.020000
v -0.099677 -0.003265 -0.020000
v -0.069192 0.020133 -0.020000
v -0.043085 0.032156 -0.020000
v -0.017684 0.036055 -0.020000
v 0.011611 0.031006 -0.020000
v 0.036566 0.015922 -0.020000
v 0.058018 -0.010080 -0.020000
v 0.071816 -0.038454 -0.020000
v 0.080181 -0.069792 -0.020000
v 0.082991 -0.104070 -0.020000
v 0.080334 -0.139290 -0.020000
v 0.072448 -0.170361 -0.020000
v 0.059536 -0.197187 -0.020000
v 0.039029 -0.221212 -0.020000
v 0.014003 -0.235276 -0.020000
v -0.016547 -0.240042 -0.020000
v -0.043736 -0.236222 -0.020000
v -0.068246 -0.224754 -0.020000
v -0.090442 -0.205304 -0.020000
v -0.107102 -0.181597 -0.020000
v -0.117047 -0.155649 -0.020000
v -0.120429 -0.126770 -0.020000
v -0.120251 -0.120725 -0.020000
v -0.119676 -0.114049 -0.020000
v -0.117058 -0.095412 -0.020000
v -0.175575 -0.096021 -0.020000
v -0.169533 -0.152090 -0.020000
v -0.154514 -0.193988 -0.020000
v -0.129466 -0.231340 -0.020000
v -0.095167 -0.262239 -0.020000
v -0.054942 -0.280949 -0.020000
v -0.009523 -0.287128 -0.020000
v 0.042432 -0.281661 -0.020000
v 0.087351 -0.265104 -0.020000
v 0.124969 -0.237350 -0.020000
v 0.153188 -0.200145 -0.020000
v 0.170032 -0.155427 -0.020000
v 0.175575 -0.103668 -0.020000
v 0.170118 -0.052300 -0.020000
v 0.153550 -0.007743 -0.020000
v 0.125789 0.029574 -0.020000
v 0.088722 0.057568 -0.020000
v 0.044391 0.074283 -0.020000
v -0.006671 0.079778 -0.020000
v -0.040981 0.076659 -0.020000
v -0.074664 0.067353 -0.020000
v -0.091259 0.059612 -0.020000
v -0.078713 0.197622 -0.020000
v 0.137979 0.197622 -0.020000
v 0.163002 0.287128 -0.020000
v -0.108398 0.277128 -0.030000
v -0.132688 0.008817 -0.030000
v -0.102793 0.006949 -0.030000
v -0.074392 0.028748 -0.030000
v -0.045992 0.041827 -0.030000
v -0.017591 0.046187 -0.030000
v 0.015169 0.040540 -0.030000
v 0.043196 0.023599 -0.030000
v 0.066490 -0.004635 -0.030000
v 0.081230 -0.034946 -0.030000
v 0.090074 -0.068080 -0.030000
v 0.093022 -0.104038 -0.030000
v 0.090240 -0.140909 -0.030000
v 0.081894 -0.173793 -0.030000
v 0.067985 -0.202692 -0.030000
v 0.045480 -0.229058 -0.030000
v 0.017329 -0.244878 -0.030000
v -0.016470 -0.250151 -0.030000
v -0.046614 -0.245916 -0.030000
v -0.073769 -0.233210 -0.030000
v -0.097935 -0.212035 -0.030000
v -0.115996 -0.186333 -0.030000
v -0.126834 -0.158057 -0.030000
v -0.130446 -0.127206 -0.030000
v -0.130238 -0.120148 -0.030000
v -0.129616 -0.112923 -0.030000
v -0.128577 -0.105532 -0.030000
v -0.164452 -0.105906 -0.030000
v -0.159719 -0.149836 -0.030000
v -0.145518 -0.189447 -0.030000
v -0.121851 -0.224740 -0.030000
v -0.089589 -0.253805 -0.030000
v -0.052095 -0.271244 -0.030000
v -0.009370 -0.277057 -0.030000
v 0.040145 -0.271846 -0.030000
v 0.082559 -0.256213 -0.030000
v 0.117872 -0.230159 -0.030000
v 0.144342 -0.195260 -0.030000
v 0.160224 -0.153095 -0.030000
v 0.165518 -0.103664 -0.030000
v 0.160307 -0.054606 -0.030000
v 0.144674 -0.012566 -0.030000
v 0.118620 0.022457 -0.030000
v 0.083846 0.048719 -0.030000
v 0.042055 0.064477 -0.030000
v -0.006754 0.069729 -0.030000
v -0.039182 0.066781 -0.030000
v -0.071195 0.057937 -0.030000
v -0.102793 0.043197 -0.030000
v -0.087845 0.207622 -0.030000
v 0.130391 0.207622 -0.030000
v 0.149823 0.277128 -0.030000
v -0.108398 0.277128 0.030000
v -0.132688 0.008817 0.030000
v -0.102793 0.006949 0.030000
v -0.074392 0.028748 0.030000
v -0.045992 0.041827 0.030000
v -0.017591 0.046187 0.030000
v 0.015169 0.040540 0.030000
v 0.043196 0.023599 0.030000
v 0.066490 -0.004635 0.030000
v 0.081230 -0.034946 0.030000
v 0.090074 -0.068080 0.030000
v 0.093022 -0.104038 0.030000
v 0.090240 -0.140909 0.030000
v 0.081894 -0.173793 0.030000
v 0.067985 -0.202692 0.030000
v 0.045480 -0.229058 0.030000
v 0.017329 -0.244878 0.030000
v -0.016470 -0.250151 0.030000
v -0.046614 -0.245916 0.030000
v -0.073769 -0.233210 0.030000
v -0.097935 -0.212035 0.030000
v -0.115996 -0.186333 0.030000
v -0.126834 -0.158057 0.030000
v -0.130446 -0.127206 0.030000
v -0.130238 -0.120148 0.030000
v -0.129616 -0.112923 0.030000
v -0.128577 -0.105532 0.030000
v -0.164452 -0.105906 0.030000
v -0.159719 -0.149836 0.030000
v -0.145518 -0.189447 0.030000
v -0.121851 -0.224740 0.030000
v -0.089589 -0.253805 0.030000
v -0.052095 -0.271244 0.030000
v -0.009370 -0.277057 0.030000
v 0.040145 -0.271846 0.030000
v 0.082559 -0.256213 0.030000
v 0.117872 -0.230159 0.030000
v 0.144342 -0.195260 0.030000
v 0.160224 -0.153095 0.030000
v 0.165518 -0.103664 0.030000
v 0.160307 -0.054606 0.030000
v 0.144674 -0.012566 0.030000
v 0.118620 0.022457 0.030000
v 0.083846 0.048719 0.030000
v 0.042055 0.064477 0.030000
v -0.006754 0.069729 0.030000
v -0.039182 0.066781 0.030000
v -0.071195 0.057937 0.030000
v -0.102793 0.043197 0.030000
v -0.087845 0.207622 0.030000
v 0.130391 0.207622 0.030000
v 0.149823 0.277128 0.030000
vn 0.000000 0.000000 1.000000
vn 0.526383 0.719596 -0.452803
vn 0.697714 -0.557268 -0.450117
vn 0.716880 0.543962 -0.436048
vn 0.328562 -0.774163 -0.541002
vn 0.378948 -0.795465 -0.472823
vn 0.565142 -0.335093 0.753838
vn 0.573870 0.453108 -0.682150
vn 0.151189 0.215186 0.964782
vn -0.323374 0.864925 -0.383801
vn -0.277902 0.694021 0.664144
vn -0.170049 0.907529 -0.383984
vn -0.208075 0.976409 -0.057283
vn 0.002380 0.923185 -0.384259
vn -0.021882 0.882962 -0.468886
vn 0.207312 0.899197 -0.385296
vn 0.175604 0.906034 0.385022
vn 0.431776 0.847804 -0.307779
vn 0.445235 0.807886 0.386029
vn 0.623035 0.680502 -0.385632
vn 0.553575 0.499496 0.666311
vn 0.788812 0.478591 -0.385601
vn 0.830683 0.401532 0.385601
vn 0.888791 0.248665 -0.384960
vn 0.906491 0.173406 0.384960
vn 0.898556 0.016053 -0.438520
vn 0.663472 -0.000275 0.748192
vn 0.899258 -0.206915 -0.385296
vn 0.732688 -0.141667 0.665639
vn 0.847530 -0.432264 -0.307840
vn 0.873714 -0.482498 0.061159
vn 0.678823 -0.624836 -0.385662
vn 0.497635 -0.555223 0.666372
vn 0.475753 -0.790521 -0.385571
vn 0.254952 -0.531846 0.807520
vn 0.246651 -0.889370 -0.384899
vn 0.186010 -0.980834 -0.057466
vn 0.004944 -0.898434 -0.439039
vn -0.014557 -0.959014 -0.282937
vn -0.236335 -0.921537 -0.308054
vn -0.280892 -0.957762 0.061220
vn -0.469802 -0.793908 -0.385907
vn -0.349315 -0.474746 0.807794
vn -0.671896 -0.632740 -0.384899
vn -0.721824 -0.575152 0.384899
vn -0.806055 -0.449538 -0.384869
vn -0.679617 -0.308542 0.665487
vn -0.871364 -0.218970 -0.438978
vn -0.355388 -0.081606 0.931120
vn -0.670980 0.524613 -0.523942
vn -0.927732 0.364635 -0.079623
vn 0.504379 0.749290 -0.429090
vn 0.533525 0.468734 -0.703970
vn 0.916990 -0.112125 -0.382763
vn 0.918851 -0.095737 0.382763
vn 0.921720 -0.061953 -0.382794
vn 0.997192 -0.048158 -0.057100
vn 0.923368 0.017731 -0.383435
vn 0.996033 0.067782 -0.057222
vn 0.876736 0.195837 -0.439253
vn 0.643483 0.158330 0.748894
vn 0.817621 0.427931 -0.385144
vn 0.899808 0.432417 -0.057466
vn 0.724967 0.616535 -0.306955
vn 0.742515 0.667013 0.060976
vn 0.540483 0.747765 -0.385571
vn 0.467483 0.795465 0.385571
vn 0.277596 0.853786 -0.440413
vn 0.262490 0.884182 0.386334
vn 0.024689 0.951048 -0.307962
vn -0.007569 0.998077 0.061190
vn -0.267129 0.856258 -0.442091
vn -0.215827 0.623280 0.751579
vn -0.578082 0.717917 -0.387768
vn -0.587207 0.807337 -0.057863
vn -0.769311 0.509507 -0.385388
vn -0.750664 0.536790 0.385083
vn -0.865841 0.320292 -0.384289
vn -0.856716 0.344157 0.384136
vn -0.910520 0.153356 -0.383892
vn -0.980224 0.189367 -0.057283
vn -0.951933 0.013855 -0.305887
vn -0.998138 -0.003235 0.060732
vn -0.914151 -0.130131 -0.383831
vn -0.904752 -0.184545 0.383831
vn -0.875057 -0.294534 -0.384014
vn -0.854396 -0.349986 0.384014
vn -0.795679 -0.467818 -0.384716
vn -0.756066 -0.529435 0.384716
vn -0.641285 -0.662618 -0.386822
vn -0.608631 -0.791314 -0.057802
vn -0.340526 -0.829524 -0.442579
vn -0.230415 -0.617450 0.752068
vn -0.017060 -0.921934 -0.386944
vn -0.047212 -0.743278 0.667287
vn 0.258400 -0.885617 -0.385846
vn 0.223914 -0.895108 0.385510
vn 0.471938 -0.793237 -0.384686
vn 0.483688 -0.873348 -0.057405
vn 0.285531 -0.868831 -0.404431
vn 0.356029 -0.796472 -0.488693
vn -0.539872 -0.735954 -0.408490
vn -0.510208 -0.437696 0.740287
vn -0.654714 0.524125 -0.544603
vn -0.588214 0.643880 0.489273
vn 0.834773 0.313211 0.452803
vn 0.505234 -0.729514 0.460952
vn 0.621113 -0.612659 0.488693
vn 0.231727 0.693503 0.682150
vn -0.294961 0.875057 0.383679
vn -0.138188 0.912992 0.383831
vn 0.038148 0.922483 0.384106
vn 0.251778 0.887875 0.385022
vn 0.486160 0.817835 0.307779
vn 0.659932 0.644551 0.385968
vn 0.814112 0.433851 0.385968
vn 0.899808 0.204718 0.385235
vn 0.898556 -0.016816 0.438520
vn 0.887997 -0.251411 0.385022
vn 0.817255 -0.487106 0.307840
vn 0.642506 -0.661916 0.386029
vn 0.431104 -0.815577 0.385937
vn 0.203040 -0.900204 0.385174
vn -0.032197 -0.897855 0.439039
vn -0.298837 -0.903195 0.308054
vn -0.515397 -0.764916 0.386303
vn -0.701621 -0.599414 0.385144
vn -0.826746 -0.409986 0.385144
vn -0.879604 -0.183203 0.438978
vn -0.409070 0.762780 0.500778
vn 0.808008 0.403668 0.429090
vn 0.918119 -0.102542 0.382794
vn 0.922361 -0.051759 0.382794
vn 0.922452 0.044069 0.383526
vn 0.867489 0.233345 0.439253
vn 0.796045 0.467025 0.384869
vn 0.690451 0.654988 0.306955
vn 0.498184 0.776421 0.385937
vn 0.233253 0.866939 0.440413
vn -0.039125 0.950591 0.307962
vn -0.319590 0.838069 0.442091
vn -0.626667 0.676229 0.387219
vn -0.794214 0.469985 0.385083
vn -0.877804 0.286142 0.384136
vn -0.915250 0.122410 0.383770
vn -0.951842 -0.020051 0.305887
vn -0.908994 -0.162053 0.383984
vn -0.863338 -0.327158 0.384167
vn -0.772973 -0.504257 0.384960
vn -0.595752 -0.703574 0.387341
vn -0.286172 -0.849818 0.442579
vn 0.041536 -0.921354 0.386486
vn 0.306619 -0.870235 0.385510
vn 0.506211 -0.771935 0.384472
vn 0.156560 -0.902188 0.401898
vn -0.809503 -0.421613 0.408490
vn -0.462966 0.699301 0.544603
vn 0.265877 0.201758 0.942625
vn 0.190466 -0.448805 0.873074
vn 0.222266 -0.131779 0.966033
vn 0.074221 0.105625 0.991607
vn -0.121372 0.303110 0.945158
vn -0.095126 0.446333 0.889767
vn -0.013886 0.560228 0.828181
vn 0.072359 0.373394 0.924833
vn 0.183081 0.332194 0.925230
vn 0.241127 0.217597 0.945769
vn 0.341899 0.165258 0.925077
vn 0.373608 0.071474 0.924802
vn 0.303537 -0.000122 0.952818
vn 0.319437 -0.061739 0.945585
vn 0.378948 -0.209265 0.901425
vn 0.216773 -0.241829 0.945769
vn 0.122379 -0.255318 0.959044
vn 0.084811 -0.447188 0.890378
vn -0.007630 -0.502670 0.864437
vn -0.121738 -0.415113 0.901578
vn -0.167638 -0.227851 0.959136
vn -0.297555 -0.237068 0.924772
vn -0.296335 -0.134526 0.945524
vn -0.208441 -0.047853 0.976836
vn -0.321787 0.126469 0.938292
vn 0.326060 0.286477 0.900876
vn 0.380505 -0.039644 0.923917
vn 0.456984 -0.022065 0.889187
vn 0.455733 0.031007 0.889553
vn 0.294168 0.072359 0.953001
vn 0.410260 0.197150 0.890378
vn 0.322886 0.290078 0.900876
vn 0.192419 0.327433 0.925047
vn 0.107883 0.363353 0.925352
vn -0.003265 0.432722 0.901486
vn -0.098392 0.284127 0.953703
vn -0.266243 0.366039 0.891659
vn -0.309305 0.221168 0.924863
vn -0.353740 0.142094 0.924467
vn -0.448134 0.086581 0.889737
vn -0.435469 -0.001404 0.900174
vn -0.373821 -0.076235 0.924345
vn -0.352886 -0.144536 0.924406
vn -0.311777 -0.218329 0.924711
vn -0.276223 -0.359111 0.891446
vn -0.104984 -0.281320 0.953825
vn -0.020539 -0.323374 0.946013
vn 0.092166 -0.368480 0.925016
vn 0.220740 -0.398572 0.890133
vn 0.220313 -0.492843 0.841731
vn -0.185369 -0.159032 0.969695
vn -0.197241 0.215888 0.956267
usemtl (null)
s off
f 138//1 139//1 137//1
f 137//1 139//1 140//1
f 137//1 140//1 136//1
f 136//1 140//1 122//1
f 136//1 122//1 123//1
f 122//1 140//1 121//1
f 136//1 123//1 124//1
f 121//1 140//1 141//1
f 121//1 141//1 120//1
f 136//1 124//1 135//1
f 135//1 124//1 125//1
f 120//1 141//1 119//1
f 119//1 141//1 142//1
f 135//1 125//1 134//1
f 134//1 125//1 126//1
f 119//1 142//1 118//1
f 134//1 126//1 127//1
f 118//1 142//1 143//1
f 134//1 127//1 133//1
f 118//1 143//1 117//1
f 133//1 127//1 128//1
f 133//1 128//1 129//1
f 133//1 129//1 130//1
f 133//1 130//1 132//1
f 132//1 130//1 131//1
f 117//1 143//1 116//1
f 116//1 143//1 144//1
f 116//1 144//1 115//1
f 115//1 144//1 145//1
f 115//1 145//1 114//1
f 114//1 145//1 146//1
f 114//1 146//1 113//1
f 113//1 146//1 147//1
f 113//1 147//1 112//1
f 106//1 107//1 108//1
f 112//1 147//1 111//1
f 106//1 108//1 109//1
f 106//1 109//1 153//1
f 153//1 109//1 110//1
f 111//1 147//1 148//1
f 110//1 111//1 148//1
f 110//1 148//1 152//1
f 153//1 110//1 152//1
f 152//1 148//1 149//1
f 152//1 149//1 151//1
f 151//1 149//1 150//1
f 106//1 153//1 154//1
f 154//1 155//1 156//1
f 154//1 156//1 105//1
f 106//1 154//1 105//1
f 190//1 191//1 189//1
f 189//1 191//1 192//1
f 189//1 192//1 188//1
f 188//1 192//1 174//1
f 188//1 174//1 175//1
f 174//1 192//1 173//1
f 188//1 175//1 176//1
f 173//1 192//1 193//1
f 173//1 193//1 172//1
f 188//1 176//1 187//1
f 187//1 176//1 177//1
f 172//1 193//1 171//1
f 171//1 193//1 194//1
f 187//1 177//1 186//1
f 186//1 177//1 178//1
f 171//1 194//1 170//1
f 186//1 178//1 179//1
f 170//1 194//1 195//1
f 186//1 179//1 185//1
f 170//1 195//1 169//1
f 185//1 179//1 180//1
f 185//1 180//1 181//1
f 185//1 181//1 182//1
f 185//1 182//1 184//1
f 184//1 182//1 183//1
f 169//1 195//1 168//1
f 168//1 195//1 196//1
f 168//1 196//1 167//1
f 167//1 196//1 197//1
f 167//1 197//1 166//1
f 166//1 197//1 198//1
f 166//1 198//1 165//1
f 165//1 198//1 199//1
f 165//1 199//1 164//1
f 158//1 159//1 160//1
f 164//1 199//1 163//1
f 158//1 160//1 161//1
f 158//1 161//1 205//1
f 205//1 161//1 162//1
f 163//1 199//1 200//1
f 162//1 163//1 200//1
f 162//1 200//1 204//1
f 205//1 162//1 204//1
f 204//1 200//1 201//1
f 204//1 201//1 203//1
f 203//1 201//1 202//1
f 158//1 205//1 206//1
f 206//1 207//1 208//1
f 206//1 208//1 157//1
f 158//1 206//1 157//1
s 1
f 104//2 103//3 156//4
f 103//3 155//5 156//4
f 103//3 102//6 155//5
f 102//6 154//7 155//5
f 102//6 101//8 154//7
f 101//8 153//9 154//7
f 101//8 100//10 152//11
f 101//8 152//11 153//9
f 100//10 99//12 151//13
f 100//10 151//13 152//11
f 99//12 98//14 150//15
f 99//12 150//15 151//13
f 98//14 97//16 149//17
f 98//14 149//17 150//15
f 97//16 96//18 148//19
f 97//16 148//19 149//17
f 96//18 95//20 148//19
f 95//20 147//21 148//19
f 95//20 94//22 147//21
f 94//22 146//23 147//21
f 94//22 93//24 146//23
f 93//24 145//25 146//23
f 93//24 92//26 145//25
f 92//26 144//27 145//25
f 92//26 91//28 143//29
f 92//26 143//29 144//27
f 91//28 90//30 142//31
f 91//28 142//31 143//29
f 90//30 89//32 142//31
f 89//32 141//33 142//31
f 89//32 88//34 141//33
f 88//34 140//35 141//33
f 88//34 87//36 140//35
f 87//36 139//37 140//35
f 87//36 86//38 139//37
f 86//38 138//39 139//37
f 86//38 85//40 137//41
f 86//38 137//41 138//39
f 85//40 84//42 137//41
f 84//42 136//43 137//41
f 84//42 83//44 136//43
f 83//44 135//45 136//43
f 83//44 82//46 135//45
f 82//46 134//47 135//45
f 82//46 81//48 134//47
f 81//48 133//49 134//47
f 81//48 80//50 132//51
f 81//48 132//51 133//49
f 80//50 79//52 131//53
f 80//50 131//53 132//51
f 79//52 78//54 131//53
f 78//54 130//55 131//53
f 78//54 77//56 130//55
f 77//56 129//57 130//55
f 77//56 76//58 129//57
f 76//58 128//59 129//57
f 76//58 75//60 128//59
f 75//60 127//61 128//59
f 75//60 74//62 126//63
f 75//60 126//63 127//61
f 74//62 73//64 125//65
f 74//62 125//65 126//63
f 73//64 72//66 125//65
f 72//66 124//67 125//65
f 72//66 71//68 124//67
f 71//68 123//69 124//67
f 71//68 70//70 122//71
f 71//68 122//71 123//69
f 70//70 69//72 122//71
f 69//72 121//73 122//71
f 69//72 68//74 120//75
f 69//72 120//75 121//73
f 68//74 67//76 119//77
f 68//74 119//77 120//75
f 67//76 66//78 118//79
f 67//76 118//79 119//77
f 66//78 65//80 117//81
f 66//78 117//81 118//79
f 65//80 64//82 116//83
f 65//80 116//83 117//81
f 64//82 63//84 116//83
f 63//84 115//85 116//83
f 63//84 62//86 115//85
f 62//86 114//87 115//85
f 62//86 61//88 114//87
f 61//88 113//89 114//87
f 61//88 60//90 113//89
f 60//90 112//91 113//89
f 60//90 59//92 112//91
f 59//92 111//93 112//91
f 59//92 58//94 110//95
f 59//92 110//95 111//93
f 58//94 57//96 109//97
f 58//94 109//97 110//95
f 57//96 56//98 108//99
f 57//96 108//99 109//97
f 56//98 55//100 107//101
f 56//98 107//101 108//99
f 55//100 54//102 106//103
f 55//100 106//103 107//101
f 54//102 53//104 106//103
f 53//104 105//105 106//103
f 53//104 104//2 156//4
f 53//104 156//4 105//105
f 52//106 51//107 103//3
f 52//106 103//3 104//2
f 51//107 50//108 102//6
f 51//107 102//6 103//3
f 50//108 49//109 101//8
f 50//108 101//8 102//6
f 49//109 48//110 100//10
f 49//109 100//10 101//8
f 48//110 47//111 99//12
f 48//110 99//12 100//10
f 47//111 46//112 98//14
f 47//111 98//14 99//12
f 46//112 45//113 97//16
f 46//112 97//16 98//14
f 45//113 44//114 96//18
f 45//113 96//18 97//16
f 44//114 43//115 95//20
f 44//114 95//20 96//18
f 43//115 42//116 94//22
f 43//115 94//22 95//20
f 42//116 41//117 93//24
f 42//116 93//24 94//22
f 41//117 40//118 92//26
f 41//117 92//26 93//24
f 40//118 39//119 91//28
f 40//118 91//28 92//26
f 39//119 38//120 90//30
f 39//119 90//30 91//28
f 38//120 37//121 89//32
f 38//120 89//32 90//30
f 37//121 36//122 88//34
f 37//121 88//34 89//32
f 36//122 35//123 87//36
f 36//122 87//36 88//34
f 35//123 34//124 86//38
f 35//123 86//38 87//36
f 34//124 33//125 85//40
f 34//124 85//40 86//38
f 33//125 32//126 84//42
f 33//125 84//42 85//40
f 32//126 31//127 83//44
f 32//126 83//44 84//42
f 31//127 30//128 82//46
f 31//127 82//46 83//44
f 30//128 29//129 81//48
f 30//128 81//48 82//46
f 29//129 28//130 80//50
f 29//129 80//50 81//48
f 28//130 27//131 79//52
f 28//130 79//52 80//50
f 27//131 26//132 78//54
f 27//131 78//54 79//52
f 26//132 25//133 77//56
f 26//132 77//56 78//54
f 25//133 24//134 76//58
f 25//133 76//58 77//56
f 24//134 23//135 75//60
f 24//134 75//60 76//58
f 23//135 22//136 74//62
f 23//135 74//62 75//60
f 22//136 21//137 73//64
f 22//136 73//64 74//62
f 21//137 20//138 72//66
f 21//137 72//66 73//64
f 20//138 19//139 71//68
f 20//138 71//68 72//66
f 19//139 18//140 70//70
f 19//139 70//70 71//68
f 18//140 17//141 69//72
f 18//140 69//72 70//70
f 17//141 16//142 68//74
f 17//141 68//74 69//72
f 16//142 15//143 67//76
f 16//142 67//76 68//74
f 15//143 14//144 66//78
f 15//143 66//78 67//76
f 14//144 13//145 65//80
f 14//144 65//80 66//78
f 13//145 12//146 64//82
f 13//145 64//82 65//80
f 12//146 11//147 63//84
f 12//146 63//84 64//82
f 11//147 10//148 62//86
f 11//147 62//86 63//84
f 10//148 9//149 61//88
f 10//148 61//88 62//86
f 9//149 8//150 60//90
f 9//149 60//90 61//88
f 8//150 7//151 59//92
f 8//150 59//92 60//90
f 7//151 6//152 58//94
f 7//151 58//94 59//92
f 6//152 5//153 57//96
f 6//152 57//96 58//94
f 5//153 4//154 56//98
f 5//153 56//98 57//96
f 4//154 3//155 55//100
f 4//154 55//100 56//98
f 3//155 2//156 54//102
f 3//155 54//102 55//100
f 2//156 1//157 53//104
f 2//156 53//104 54//102
f 1//157 52//106 104//2
f 1//157 104//2 53//104
f 208//158 207//159 51//107
f 208//158 51//107 52//106
f 207//159 206//160 50//108
f 207//159 50//108 51//107
f 206//160 205//161 49//109
f 206//160 49//109 50//108
f 205//161 204//162 49//109
f 204//162 48//110 49//109
f 204//162 203//163 48//110
f 203//163 47//111 48//110
f 203//163 202//164 47//111
f 202//164 46//112 47//111
f 202//164 201//165 46//112
f 201//165 45//113 46//112
f 201//165 200//166 45//113
f 200//166 44//114 45//113
f 200//166 199//167 43//115
f 200//166 43//115 44//114
f 199//167 198//168 42//116
f 199//167 42//116 43//115
f 198//168 197//169 41//117
f 198//168 41//117 42//116
f 197//169 196//170 40//118
f 197//169 40//118 41//117
f 196//170 195//171 40//118
f 195//171 39//119 40//118
f 195//171 194//172 39//119
f 194//172 38//120 39//119
f 194//172 193//173 37//121
f 194//172 37//121 38//120
f 193//173 192//174 36//122
f 193//173 36//122 37//121
f 192//174 191//175 35//123
f 192//174 35//123 36//122
f 191//175 190//176 34//124
f 191//175 34//124 35//123
f 190//176 189//177 34//124
f 189//177 33//125 34//124
f 189//177 188//178 32//126
f 189//177 32//126 33//125
f 188//178 187//179 31//127
f 188//178 31//127 32//126
f 187//179 186//180 30//128
f 187//179 30//128 31//127
f 186//180 185//181 29//129
f 186//180 29//129 30//128
f 185//181 184//182 29//129
f 184//182 28//130 29//129
f 184//182 183//183 28//130
f 183//183 27//131 28//130
f 183//183 182//184 26//132
f 183//183 26//132 27//131
f 182//184 181//185 25//133
f 182//184 25//133 26//132
f 181//185 180//186 24//134
f 181//185 24//134 25//133
f 180//186 179//187 23//135
f 180//186 23//135 24//134
f 179//187 178//188 23//135
f 178//188 22//136 23//135
f 178//188 177//189 22//136
f 177//189 21//137 22//136
f 177//189 176//190 20//138
f 177//189 20//138 21//137
f 176//190 175//191 19//139
f 176//190 19//139 20//138
f 175//191 174//192 19//139
f 174//192 18//140 19//139
f 174//192 173//193 17//141
f 174//192 17//141 18//140
f 173//193 172//194 17//141
f 172//194 16//142 17//141
f 172//194 171//195 16//142
f 171//195 15//143 16//142
f 171//195 170//196 15//143
f 170//196 14//144 15//143
f 170//196 169//197 14//144
f 169//197 13//145 14//144
f 169//197 168//198 13//145
f 168//198 12//146 13//145
f 168//198 167//199 11//147
f 168//198 11//147 12//146
f 167//199 166//200 10//148
f 167//199 10//148 11//147
f 166//200 165//201 9//149
f 166//200 9//149 10//148
f 165//201 164//202 8//150
f 165//201 8//150 9//149
f 164//202 163//203 7//151
f 164//202 7//151 8//150
f 163//203 162//204 7//151
f 162//204 6//152 7//151
f 162//204 161//205 6//152
f 161//205 5//153 6//152
f 161//205 160//206 5//153
f 160//206 4//154 5//153
f 160//206 159//207 4//154
f 159//207 3//155 4//154
f 159//207 158//208 3//155
f 158//208 2//156 3//155
f 1//157 2//156 158//208
f 1//157 158//208 157//209
f 52//106 1//157 208//158
f 1//157 157//209 208//158
