# Blender3D v249 OBJ File: chiffres.blend
# www.blender3d.org
mtllib 6.mtl
v 0.003227 0.059776 0.200000
v -0.052313 0.073394 0.200000
v -0.097210 0.112528 0.200000
v -0.122006 0.173737 0.200000
v -0.118208 0.256816 0.200000
v -0.083947 0.277339 0.200000
v -0.057250 0.289029 0.200000
v -0.030444 0.295242 0.200000
v 0.000120 0.297048 0.200000
v 0.048233 0.288543 0.200000
v 0.087389 0.264445 0.200000
v 0.113398 0.227781 0.200000
v 0.122711 0.182152 0.200000
v 0.114165 0.132582 0.200000
v 0.089730 0.093724 0.200000
v 0.051799 0.068603 0.200000
v 0.003227 0.059776 -0.200000
v -0.052313 0.073394 -0.200000
v -0.097210 0.112528 -0.200000
v -0.122006 0.173737 -0.200000
v -0.118208 0.256816 -0.200000
v -0.083947 0.277339 -0.200000
v -0.057250 0.289029 -0.200000
v -0.030444 0.295242 -0.200000
v 0.000120 0.297048 -0.200000
v 0.048233 0.288543 -0.200000
v 0.087389 0.264445 -0.200000
v 0.113398 0.227781 -0.200000
v 0.122711 0.182152 -0.200000
v 0.114165 0.132582 -0.200000
v 0.089730 0.093724 -0.200000
v 0.051799 0.068603 -0.200000
v 0.107194 0.604055 0.200000
v 0.061022 0.662749 0.200000
v -0.047537 0.572725 0.200000
v -0.131642 0.462781 0.200000
v -0.182980 0.343390 0.200000
v -0.200351 0.219106 0.200000
v -0.184938 0.123884 0.200000
v -0.142050 0.050906 0.200000
v -0.076064 0.003958 0.200000
v 0.009467 -0.012800 0.200000
v 0.082905 0.002635 0.200000
v 0.143668 0.044524 0.200000
v 0.185056 0.106227 0.200000
v 0.200351 0.181095 0.200000
v 0.186539 0.256039 0.200000
v 0.148557 0.315801 0.200000
v 0.091372 0.355395 0.200000
v 0.018918 0.369922 0.200000
v -0.010894 0.367673 0.200000
v -0.037920 0.361624 0.200000
v -0.061849 0.353029 0.200000
v -0.107225 0.331610 0.200000
v -0.065261 0.428180 0.200000
v -0.016153 0.498071 0.200000
v 0.045827 0.560322 0.200000
v 0.107194 0.604055 -0.200000
v 0.061022 0.662749 -0.200000
v -0.047537 0.572725 -0.200000
v -0.131642 0.462781 -0.200000
v -0.182980 0.343390 -0.200000
v -0.200351 0.219106 -0.200000
v -0.184938 0.123883 -0.200000
v -0.142050 0.050906 -0.200000
v -0.076064 0.003958 -0.200000
v 0.009467 -0.012800 -0.200000
v 0.082905 0.002635 -0.200000
v 0.143668 0.044524 -0.200000
v 0.185056 0.106227 -0.200000
v 0.200351 0.181095 -0.200000
v 0.186539 0.256038 -0.200000
v 0.148557 0.315801 -0.200000
v 0.091372 0.355395 -0.200000
v 0.018918 0.369922 -0.200000
v -0.010894 0.367673 -0.200000
v -0.037920 0.361624 -0.200000
v -0.061849 0.353029 -0.200000
v -0.107225 0.331610 -0.200000
v -0.065261 0.428180 -0.200000
v -0.016153 0.498071 -0.200000
v 0.045827 0.560322 -0.200000
v 0.002606 0.039336 -0.220000
v -0.061793 0.055126 -0.220000
v -0.113953 0.100590 -0.220000
v -0.142185 0.170282 -0.220000
v -0.137696 0.268456 -0.220000
v -0.093134 0.295150 -0.220000
v -0.063572 0.308094 -0.220000
v -0.033313 0.315107 -0.220000
v 0.001287 0.317152 -0.220000
v 0.055469 0.307574 -0.220000
v 0.101343 0.279341 -0.220000
v 0.132150 0.235913 -0.220000
v 0.143060 0.182464 -0.220000
v 0.133202 0.125285 -0.220000
v 0.104367 0.079429 -0.220000
v 0.059417 0.049660 -0.220000
v 0.078509 0.608172 -0.220000
v 0.057991 0.634254 -0.220000
v -0.033027 0.558775 -0.220000
v -0.114249 0.452601 -0.220000
v -0.163545 0.337960 -0.220000
v -0.180126 0.219324 -0.220000
v -0.165795 0.130783 -0.220000
v -0.126973 0.064724 -0.220000
v -0.067985 0.022755 -0.220000
v 0.009327 0.007608 -0.220000
v 0.074861 0.021381 -0.220000
v 0.129180 0.058828 -0.220000
v 0.166250 0.114093 -0.220000
v 0.179977 0.181291 -0.220000
v 0.167575 0.248591 -0.220000
v 0.133847 0.301660 -0.220000
v 0.083386 0.336598 -0.220000
v 0.017682 0.349771 -0.220000
v -0.007942 0.347839 -0.220000
v -0.032334 0.342380 -0.220000
v -0.054182 0.334532 -0.220000
v -0.146750 0.290837 -0.220000
v -0.082794 0.438015 -0.220000
v -0.031534 0.510969 -0.220000
v 0.032845 0.575630 -0.220000
v 0.002606 0.039336 0.220000
v -0.061793 0.055126 0.220000
v -0.113953 0.100590 0.220000
v -0.142185 0.170282 0.220000
v -0.137696 0.268456 0.220000
v -0.093134 0.295150 0.220000
v -0.063572 0.308094 0.220000
v -0.033313 0.315107 0.220000
v 0.001287 0.317152 0.220000
v 0.055469 0.307574 0.220000
v 0.101343 0.279341 0.220000
v 0.132150 0.235913 0.220000
v 0.143060 0.182464 0.220000
v 0.133202 0.125285 0.220000
v 0.104367 0.079429 0.220000
v 0.059417 0.049660 0.220000
v 0.078509 0.608172 0.220000
v 0.057991 0.634254 0.220000
v -0.033027 0.558775 0.220000
v -0.114249 0.452601 0.220000
v -0.163545 0.337960 0.220000
v -0.180126 0.219324 0.220000
v -0.165795 0.130783 0.220000
v -0.126973 0.064724 0.220000
v -0.067985 0.022755 0.220000
v 0.009327 0.007608 0.220000
v 0.074861 0.021381 0.220000
v 0.129180 0.058828 0.220000
v 0.166250 0.114093 0.220000
v 0.179977 0.181291 0.220000
v 0.167575 0.248591 0.220000
v 0.133847 0.301660 0.220000
v 0.083386 0.336598 0.220000
v 0.017682 0.349771 0.220000
v -0.007942 0.347839 0.220000
v -0.032334 0.342380 0.220000
v -0.054182 0.334532 0.220000
v -0.146750 0.290838 0.220000
v -0.082794 0.438015 0.220000
v -0.031534 0.510969 0.220000
v 0.032845 0.575630 0.220000
vt 0.000000 0.000000
vt 1.000000 0.000000
vt 1.000000 1.000000
vt 0.000000 1.000000
vn 0.000000 0.000001 1.000000
vn 0.000000 0.000000 1.000000
vn 0.577227 -0.720786 -0.383709
vn 0.690329 -0.613300 -0.383740
vn 0.666860 -0.742943 -0.057253
vn 0.724174 -0.572954 0.383740
vn 0.789453 -0.478683 -0.384167
vn 0.820032 -0.424146 0.384167
vn 0.580645 0.227302 -0.781762
vn 0.061800 0.063753 0.996033
vn -0.356029 0.852321 -0.383038
vn -0.235725 0.543931 0.805292
vn -0.260628 0.886074 -0.383312
vn -0.298196 0.952788 -0.057192
vn -0.139714 0.912870 -0.383526
vn -0.170782 0.983642 -0.057222
vn 0.049257 0.921262 -0.385723
vn 0.013672 0.882351 -0.470351
vn 0.330332 0.891263 -0.310617
vn 0.360118 0.847652 0.389538
vn 0.619800 0.681783 -0.388501
vn 0.449110 0.377026 0.810022
vn 0.834254 0.391614 -0.388073
vn 0.877804 0.280709 0.388073
vn 0.896268 0.021210 -0.442946
vn 0.472976 -0.004547 0.881039
vn 0.892544 -0.327342 -0.310129
vn 0.920774 -0.385144 0.061708
vn 0.658284 -0.608783 -0.442701
vn 0.468886 -0.462966 0.752159
vn 0.372936 -0.842280 -0.389141
vn 0.337870 -0.661519 0.669485
vn 0.016999 -0.920927 -0.389294
vn 0.065462 -0.878140 -0.473861
vn -0.332194 -0.890408 -0.311106
vn -0.363567 -0.845912 0.390149
vn -0.633137 -0.669057 -0.389172
vn -0.721580 -0.572558 0.389172
vn -0.845973 -0.366008 -0.387707
vn -0.884976 -0.257790 0.387707
vn -0.920774 -0.056246 -0.385937
vn -0.744743 0.029359 0.666677
vn -0.898953 0.208289 -0.385266
vn -0.876736 0.287851 0.385266
vn -0.815119 0.432905 -0.384899
vn -0.776574 0.498733 0.384899
vn -0.659719 0.610096 -0.438765
vn -0.344188 0.330912 0.878628
vn 0.040681 0.859371 -0.509720
vn -0.180242 0.792596 -0.582476
vn 0.907590 0.082522 -0.411603
vn 0.911191 -0.130741 -0.390637
vn 0.600635 -0.701346 0.383831
vn 0.710410 -0.589862 0.383862
vn 0.807764 -0.446944 0.384350
vn 0.209174 0.587420 0.781762
vn -0.339946 0.858882 0.383007
vn -0.238960 0.892178 0.383221
vn -0.113804 0.916501 0.383435
vn 0.098605 0.917447 0.385388
vn 0.412183 0.856502 0.310617
vn 0.671377 0.630634 0.389233
vn 0.861263 0.327219 0.388745
vn 0.895688 -0.038484 0.442946
vn 0.859798 -0.405621 0.310129
vn 0.617115 -0.650472 0.442701
vn 0.305979 -0.869167 0.388440
vn -0.055910 -0.919706 0.388562
vn -0.417432 -0.853755 0.311106
vn -0.686361 -0.613788 0.389996
vn -0.870235 -0.303110 0.388318
vn -0.922330 -0.001984 0.386334
vn -0.886685 0.255104 0.385601
vn -0.793085 0.471816 0.385174
vn -0.635548 0.635243 0.438765
vn 0.367840 0.790521 0.489608
vn 0.847743 -0.334422 0.411603
vn 0.304941 -0.339702 0.889706
vn 0.299264 -0.236763 0.924314
vn 0.338572 -0.175115 0.924467
vn 0.041108 0.042421 0.998230
vn -0.113407 0.261666 0.958434
vn -0.136479 0.436140 0.889431
vn -0.078127 0.450056 0.889553
vn 0.008667 0.558824 0.829218
vn 0.146977 0.345958 0.926664
vn 0.215094 0.180578 0.959746
vn 0.359386 0.114902 0.926054
vn 0.248360 -0.002380 0.968657
vn 0.396558 -0.165868 0.902860
vn 0.213599 -0.210913 0.953856
vn 0.146611 -0.287057 0.946593
vn 0.041261 -0.553667 0.831690
vn -0.148198 -0.344798 0.926878
vn -0.294717 -0.233863 0.926511
vn -0.362621 -0.105625 0.925901
vn -0.324259 0.012787 0.945860
vn -0.361095 0.118564 0.924924
vn -0.320109 0.205603 0.924772
vn -0.181097 0.174108 0.967925
vn -0.099368 0.436964 0.893948
vn 0.370983 -0.053224 0.927091
vn -0.313273 0.897427 -0.310556
vn -0.617298 0.649159 -0.444380
vn -0.372387 0.925993 0.061800
vn -0.470107 0.459120 0.753746
vn -0.856410 0.339427 -0.388958
vn -0.836909 0.385723 0.388256
vn -0.950468 0.025941 -0.309671
vn -0.958220 -0.014649 -0.285623
vn -0.834346 -0.326518 -0.444075
vn -0.603198 -0.261574 0.753441
vn -0.637471 -0.664815 -0.389325
vn -0.674032 -0.628193 0.388592
vn -0.336833 -0.857662 -0.388501
vn -0.413251 -0.908750 -0.057985
vn -0.059633 -0.921018 -0.384899
vn -0.089480 -0.918699 0.384655
vn 0.117954 -0.944670 -0.306009
vn 0.142644 -0.987884 0.060762
vn 0.269356 -0.857631 -0.438032
vn 0.290628 -0.876339 0.384075
vn 0.424238 -0.852412 -0.305612
vn 0.439833 -0.852748 -0.281594
vn 0.708335 -0.516709 -0.480880
vn 0.530412 -0.316782 0.786309
vn 0.943449 0.113865 -0.311258
vn 0.983734 0.168462 0.061953
vn 0.789544 0.473190 -0.390759
vn 0.704703 0.592181 0.390759
vn 0.444838 0.776360 -0.446455
vn 0.301645 0.581286 0.755699
vn 0.039155 0.919980 -0.389966
vn 0.093142 0.916440 0.389141
vn -0.395245 0.864467 0.310556
vn -0.663564 0.601794 0.444380
vn -0.880306 0.272500 0.388256
vn -0.949217 -0.055025 0.309671
vn -0.808588 -0.385937 0.444075
vn -0.582873 -0.713584 0.388592
vn -0.272256 -0.880551 0.387860
vn -0.017335 -0.922880 0.384655
vn 0.154057 -0.939451 0.306009
vn 0.296487 -0.848628 0.438032
vn 0.448592 -0.839839 0.305612
vn 0.790796 -0.378613 0.480880
vn 0.927580 0.206549 0.311258
vn 0.741752 0.544298 0.391766
vn 0.378704 0.810694 0.446455
vn -0.037385 0.920408 0.389141
vn -0.160161 0.398297 0.903134
vn -0.213813 0.208808 0.954283
vn -0.342509 0.157842 0.926145
vn -0.498825 -0.007630 0.866634
vn -0.274422 -0.118992 0.954192
vn -0.275643 -0.256905 0.926267
vn -0.187078 -0.411389 0.892026
vn -0.036897 -0.378887 0.924680
vn 0.062197 -0.430860 0.900266
vn 0.119999 -0.361888 0.924436
vn 0.231330 -0.448531 0.863277
vn 0.233222 -0.139286 0.962371
vn 0.422224 0.072298 0.903592
vn 0.286843 0.241035 0.927122
vn 0.136906 0.263833 0.954772
vn 0.038026 0.374340 0.926481
usemtl (null)
s off
f 108/1/1 109/2/1 107/3/1
f 107/1/2 109/2/2 83/3/2
f 83/1/2 109/2/2 98/3/2
f 107/1/2 83/2/2 84/3/2
f 98/1/2 109/2/2 110/3/2
f 107/1/2 84/2/2 106/3/2
f 98/1/2 110/2/2 97/3/2
f 106/1/2 84/2/2 85/3/2
f 97/1/2 110/2/2 111/3/2
f 97/1/2 111/2/2 96/3/2
f 106/1/2 85/2/2 105/3/2
f 105/1/2 85/2/2 86/3/2
f 96/1/2 111/2/2 112/3/2
f 96/1/2 112/2/2 95/3/2
f 105/1/2 86/2/2 104/3/2
f 95/1/2 112/2/2 94/3/2
f 94/1/2 112/2/2 113/3/2
f 104/1/2 86/2/2 87/3/2
f 94/1/2 113/2/2 93/3/2
f 104/1/2 87/2/2 120/3/2
f 120/1/2 87/2/2 88/3/2
f 93/1/2 113/2/2 114/3/2
f 93/1/2 114/2/2 92/3/2
f 120/1/2 88/2/2 89/3/2
f 120/1/2 89/2/2 90/3/2
f 92/1/2 114/2/2 91/3/2
f 91/1/2 114/2/2 119/3/2
f 90/1/2 91/2/2 119/3/2
f 120/1/2 90/2/2 119/3/2
f 119/1/2 114/2/2 115/3/2
f 104/1/2 120/2/2 103/3/2
f 119/1/2 115/2/2 118/3/2
f 118/1/2 115/2/2 117/3/2
f 117/1/2 115/2/2 116/3/2
f 103/1/2 120/2/2 121/3/2
f 103/1/2 121/2/2 102/3/2
f 102/1/2 121/2/2 122/3/2
f 102/1/2 122/2/2 101/3/2
f 101/1/2 122/2/2 123/3/2
f 101/1/2 123/2/2 99/3/2
f 101/1/2 99/2/2 100/3/2
f 149/1/1 150/2/1 148/3/1
f 148/1/2 150/2/2 124/3/2
f 124/1/2 150/2/2 139/3/2
f 148/1/2 124/2/2 125/3/2
f 139/1/2 150/2/2 151/3/2
f 148/1/2 125/2/2 147/3/2
f 139/1/2 151/2/2 138/3/2
f 147/1/2 125/2/2 126/3/2
f 138/1/2 151/2/2 152/3/2
f 138/1/2 152/2/2 137/3/2
f 147/1/2 126/2/2 146/3/2
f 146/1/2 126/2/2 127/3/2
f 137/1/2 152/2/2 153/3/2
f 137/1/2 153/2/2 136/3/2
f 146/1/2 127/2/2 145/3/2
f 136/1/2 153/2/2 135/3/2
f 135/1/2 153/2/2 154/3/2
f 145/1/2 127/2/2 128/3/2
f 135/1/2 154/2/2 134/3/2
f 145/1/2 128/2/2 161/3/2
f 161/1/2 128/2/2 129/3/2
f 134/1/2 154/2/2 155/3/2
f 134/1/2 155/2/2 133/3/2
f 161/1/2 129/2/2 130/3/2
f 161/1/2 130/2/2 131/3/2
f 133/1/2 155/2/2 132/3/2
f 132/1/2 155/2/2 160/3/2
f 131/1/2 132/2/2 160/3/2
f 161/1/2 131/2/2 160/3/2
f 160/1/2 155/2/2 156/3/2
f 145/1/2 161/2/2 144/3/2
f 160/1/2 156/2/2 159/3/2
f 159/1/2 156/2/2 158/3/2
f 158/1/2 156/2/2 157/3/2
f 144/1/2 161/2/2 162/3/2
f 144/1/2 162/2/2 143/3/2
f 143/1/2 162/2/2 163/3/2
f 143/1/2 163/2/2 142/3/2
f 142/1/2 163/2/2 164/3/2
f 142/1/2 164/2/2 140/3/2
f 142/1/2 140/2/2 141/3/2
s 1
f 82/1/3 81/2/4 123/4/5
f 81/2/4 122/3/6 123/4/5
f 81/1/4 80/2/7 122/4/6
f 80/2/7 121/3/8 122/4/6
f 80/1/7 79/2/9 121/4/8
f 79/2/9 120/3/10 121/4/8
f 79/1/9 78/2/11 119/3/12
f 79/1/9 119/3/12 120/4/10
f 78/1/11 77/2/13 118/3/14
f 78/1/11 118/3/14 119/4/12
f 77/1/13 76/2/15 117/3/16
f 77/1/13 117/3/16 118/4/14
f 76/1/15 75/2/17 116/3/18
f 76/1/15 116/3/18 117/4/16
f 75/1/17 74/2/19 115/3/20
f 75/1/17 115/3/20 116/4/18
f 74/1/19 73/2/21 115/4/20
f 73/2/21 114/3/22 115/4/20
f 73/1/21 72/2/23 114/4/22
f 72/2/23 113/3/24 114/4/22
f 72/1/23 71/2/25 113/4/24
f 71/2/25 112/3/26 113/4/24
f 71/1/25 70/2/27 111/3/28
f 71/1/25 111/3/28 112/4/26
f 70/1/27 69/2/29 111/4/28
f 69/2/29 110/3/30 111/4/28
f 69/1/29 68/2/31 109/3/32
f 69/1/29 109/3/32 110/4/30
f 68/1/31 67/2/33 108/3/34
f 68/1/31 108/3/34 109/4/32
f 67/1/33 66/2/35 107/3/36
f 67/1/33 107/3/36 108/4/34
f 66/1/35 65/2/37 107/4/36
f 65/2/37 106/3/38 107/4/36
f 65/1/37 64/2/39 106/4/38
f 64/2/39 105/3/40 106/4/38
f 64/1/39 63/2/41 105/4/40
f 63/2/41 104/3/42 105/4/40
f 63/1/41 62/2/43 104/4/42
f 62/2/43 103/3/44 104/4/42
f 62/1/43 61/2/45 103/4/44
f 61/2/45 102/3/46 103/4/44
f 61/1/45 60/2/47 102/4/46
f 60/2/47 101/3/48 102/4/46
f 60/1/47 59/2/49 100/3/50
f 60/1/47 100/3/50 101/4/48
f 59/1/49 58/2/51 99/3/52
f 59/1/49 99/3/52 100/4/50
f 58/1/51 82/2/3 99/4/52
f 82/2/3 123/3/5 99/4/52
f 57/1/53 56/2/54 81/3/4
f 57/1/53 81/3/4 82/4/3
f 56/1/54 55/2/55 80/3/7
f 56/1/54 80/3/7 81/4/4
f 55/1/55 54/2/56 79/3/9
f 55/1/55 79/3/9 80/4/7
f 54/1/56 53/2/57 78/3/11
f 54/1/56 78/3/11 79/4/9
f 53/1/57 52/2/58 77/3/13
f 53/1/57 77/3/13 78/4/11
f 52/1/58 51/2/59 76/3/15
f 52/1/58 76/3/15 77/4/13
f 51/1/59 50/2/60 75/3/17
f 51/1/59 75/3/17 76/4/15
f 50/1/60 49/2/61 74/3/19
f 50/1/60 74/3/19 75/4/17
f 49/1/61 48/2/62 73/3/21
f 49/1/61 73/3/21 74/4/19
f 48/1/62 47/2/63 72/3/23
f 48/1/62 72/3/23 73/4/21
f 47/1/63 46/2/64 71/3/25
f 47/1/63 71/3/25 72/4/23
f 46/1/64 45/2/65 70/3/27
f 46/1/64 70/3/27 71/4/25
f 45/1/65 44/2/66 69/3/29
f 45/1/65 69/3/29 70/4/27
f 44/1/66 43/2/67 68/3/31
f 44/1/66 68/3/31 69/4/29
f 43/1/67 42/2/68 67/3/33
f 43/1/67 67/3/33 68/4/31
f 42/1/68 41/2/69 66/3/35
f 42/1/68 66/3/35 67/4/33
f 41/1/69 40/2/70 65/3/37
f 41/1/69 65/3/37 66/4/35
f 40/1/70 39/2/71 64/3/39
f 40/1/70 64/3/39 65/4/37
f 39/1/71 38/2/72 63/3/41
f 39/1/71 63/3/41 64/4/39
f 38/1/72 37/2/73 62/3/43
f 38/1/72 62/3/43 63/4/41
f 37/1/73 36/2/74 61/3/45
f 37/1/73 61/3/45 62/4/43
f 36/1/74 35/2/75 60/3/47
f 36/1/74 60/3/47 61/4/45
f 35/1/75 34/2/76 59/3/49
f 35/1/75 59/3/49 60/4/47
f 34/1/76 33/2/77 58/3/51
f 34/1/76 58/3/51 59/4/49
f 33/1/77 57/2/53 82/3/3
f 33/1/77 82/3/3 58/4/51
f 164/1/78 163/2/79 56/3/54
f 164/1/78 56/3/54 57/4/53
f 163/1/79 162/2/80 55/3/55
f 163/1/79 55/3/55 56/4/54
f 162/1/80 161/2/81 54/3/56
f 162/1/80 54/3/56 55/4/55
f 161/1/81 160/2/82 54/4/56
f 160/2/82 53/3/57 54/4/56
f 160/1/82 159/2/83 53/4/57
f 159/2/83 52/3/58 53/4/57
f 159/1/83 158/2/84 52/4/58
f 158/2/84 51/3/59 52/4/58
f 158/1/84 157/2/85 51/4/59
f 157/2/85 50/3/60 51/4/59
f 157/1/85 156/2/86 50/4/60
f 156/2/86 49/3/61 50/4/60
f 156/1/86 155/2/87 48/3/62
f 156/1/86 48/3/62 49/4/61
f 155/1/87 154/2/88 47/3/63
f 155/1/87 47/3/63 48/4/62
f 154/1/88 153/2/89 46/3/64
f 154/1/88 46/3/64 47/4/63
f 153/1/89 152/2/90 46/4/64
f 152/2/90 45/3/65 46/4/64
f 152/1/90 151/2/91 44/3/66
f 152/1/90 44/3/66 45/4/65
f 151/1/91 150/2/92 44/4/66
f 150/2/92 43/3/67 44/4/66
f 150/1/92 149/2/93 43/4/67
f 149/2/93 42/3/68 43/4/67
f 149/1/93 148/2/94 42/4/68
f 148/2/94 41/3/69 42/4/68
f 148/1/94 147/2/95 40/3/70
f 148/1/94 40/3/70 41/4/69
f 147/1/95 146/2/96 39/3/71
f 147/1/95 39/3/71 40/4/70
f 146/1/96 145/2/97 38/3/72
f 146/1/96 38/3/72 39/4/71
f 145/1/97 144/2/98 37/3/73
f 145/1/97 37/3/73 38/4/72
f 144/1/98 143/2/99 36/3/74
f 144/1/98 36/3/74 37/4/73
f 143/1/99 142/2/100 35/3/75
f 143/1/99 35/3/75 36/4/74
f 142/1/100 141/2/101 35/4/75
f 141/2/101 34/3/76 35/4/75
f 141/1/101 140/2/102 34/4/76
f 140/2/102 33/3/77 34/4/76
f 140/1/102 164/2/78 57/3/53
f 140/1/102 57/3/53 33/4/77
f 32/1/103 31/2/104 98/4/105
f 31/2/104 97/3/106 98/4/105
f 31/1/104 30/2/107 96/3/108
f 31/1/104 96/3/108 97/4/106
f 30/1/107 29/2/109 95/3/110
f 30/1/107 95/3/110 96/4/108
f 29/1/109 28/2/111 95/4/110
f 28/2/111 94/3/112 95/4/110
f 28/1/111 27/2/113 93/3/114
f 28/1/111 93/3/114 94/4/112
f 27/1/113 26/2/115 92/3/116
f 27/1/113 92/3/116 93/4/114
f 26/1/115 25/2/117 91/3/118
f 26/1/115 91/3/118 92/4/116
f 25/1/117 24/2/119 90/3/120
f 25/1/117 90/3/120 91/4/118
f 24/1/119 23/2/121 90/4/120
f 23/2/121 89/3/122 90/4/120
f 23/1/121 22/2/123 88/3/124
f 23/1/121 88/3/124 89/4/122
f 22/1/123 21/2/125 88/4/124
f 21/2/125 87/3/126 88/4/124
f 21/1/125 20/2/127 86/3/128
f 21/1/125 86/3/128 87/4/126
f 20/1/127 19/2/129 86/4/128
f 19/2/129 85/3/130 86/4/128
f 19/1/129 18/2/131 85/4/130
f 18/2/131 84/3/132 85/4/130
f 18/1/131 17/2/133 83/3/134
f 18/1/131 83/3/134 84/4/132
f 17/1/133 32/2/103 98/3/105
f 17/1/133 98/3/105 83/4/134
f 16/1/135 15/2/136 31/3/104
f 16/1/135 31/3/104 32/4/103
f 15/1/136 14/2/137 30/3/107
f 15/1/136 30/3/107 31/4/104
f 14/1/137 13/2/138 29/3/109
f 14/1/137 29/3/109 30/4/107
f 13/1/138 12/2/139 28/3/111
f 13/1/138 28/3/111 29/4/109
f 12/1/139 11/2/140 27/3/113
f 12/1/139 27/3/113 28/4/111
f 11/1/140 10/2/141 26/3/115
f 11/1/140 26/3/115 27/4/113
f 10/1/141 9/2/142 25/3/117
f 10/1/141 25/3/117 26/4/115
f 9/1/142 8/2/143 24/3/119
f 9/1/142 24/3/119 25/4/117
f 8/1/143 7/2/144 23/3/121
f 8/1/143 23/3/121 24/4/119
f 7/1/144 6/2/145 22/3/123
f 7/1/144 22/3/123 23/4/121
f 6/1/145 5/2/146 21/3/125
f 6/1/145 21/3/125 22/4/123
f 5/1/146 4/2/147 20/3/127
f 5/1/146 20/3/127 21/4/125
f 4/1/147 3/2/148 19/3/129
f 4/1/147 19/3/129 20/4/127
f 3/1/148 2/2/149 18/3/131
f 3/1/148 18/3/131 19/4/129
f 2/1/149 1/2/150 17/3/133
f 2/1/149 17/3/133 18/4/131
f 1/1/150 16/2/135 32/3/103
f 1/1/150 32/3/103 17/4/133
f 139/1/151 138/2/152 15/3/136
f 139/1/151 15/3/136 16/4/135
f 138/1/152 137/2/153 15/4/136
f 137/2/153 14/3/137 15/4/136
f 137/1/153 136/2/154 14/4/137
f 136/2/154 13/3/138 14/4/137
f 136/1/154 135/2/155 12/3/139
f 136/1/154 12/3/139 13/4/138
f 135/1/155 134/2/156 12/4/139
f 134/2/156 11/3/140 12/4/139
f 134/1/156 133/2/157 11/4/140
f 133/2/157 10/3/141 11/4/140
f 133/1/157 132/2/158 10/4/141
f 132/2/158 9/3/142 10/4/141
f 132/1/158 131/2/159 9/4/142
f 131/2/159 8/3/143 9/4/142
f 131/1/159 130/2/160 7/3/144
f 131/1/159 7/3/144 8/4/143
f 130/1/160 129/2/161 7/4/144
f 129/2/161 6/3/145 7/4/144
f 129/1/161 128/2/162 5/3/146
f 129/1/161 5/3/146 6/4/145
f 128/1/162 127/2/163 5/4/146
f 127/2/163 4/3/147 5/4/146
f 127/1/163 126/2/164 3/3/148
f 127/1/163 3/3/148 4/4/147
f 126/1/164 125/2/165 2/3/149
f 126/1/164 2/3/149 3/4/148
f 1/1/150 2/2/149 124/4/166
f 2/2/149 125/3/165 124/4/166
f 16/1/135 1/2/150 139/4/151
f 1/2/150 124/3/166 139/4/151
