# Blender3D v249 OBJ File: chiffres.blend
# www.blender3d.org
mtllib 7.mtl
v -0.090869 -0.023731 0.200000
v 0.207787 0.644137 0.200000
v -0.207787 0.644137 0.200000
v -0.207787 0.571137 0.200000
v 0.092628 0.571137 0.200000
v -0.159546 0.006266 0.200000
v -0.090869 -0.023731 -0.200000
v 0.207787 0.644137 -0.200000
v -0.207787 0.644137 -0.200000
v -0.207787 0.571137 -0.200000
v 0.092628 0.571137 -0.200000
v -0.159546 0.006266 -0.200000
v -0.101033 0.002533 -0.220000
v 0.176935 0.624137 -0.220000
v -0.187787 0.624137 -0.220000
v -0.187787 0.591137 -0.220000
v 0.123460 0.591137 -0.220000
v -0.133064 0.016524 -0.220000
v -0.101033 0.002533 0.220000
v 0.176935 0.624137 0.220000
v -0.187787 0.624137 0.220000
v -0.187787 0.591137 0.220000
v 0.123460 0.591137 0.220000
v -0.133064 0.016524 0.220000
vt 0.000000 0.000000
vt 1.000000 0.000000
vt 1.000000 1.000000
vt 0.000000 1.000000
vn 0.000000 0.000000 1.000000
vn -0.757500 -0.511673 -0.405408
vn -0.719687 -0.236000 -0.652913
vn -0.686941 -0.266091 -0.676199
vn -0.366283 -0.237617 0.899625
vn -0.574511 -0.644215 -0.504807
vn -0.445875 -0.891781 -0.076479
vn -0.644215 0.574511 -0.504807
vn -0.729576 0.364788 -0.578478
vn 0.535478 0.690725 -0.485916
vn 0.833918 0.540605 0.110813
vn 0.424757 -0.712302 -0.558702
vn 0.311747 -0.805567 0.503800
vn -0.904508 -0.132084 0.405408
vn -0.508896 -0.560961 0.652913
vn -0.773675 -0.487869 0.404157
vn -0.478195 0.676290 0.560259
vn 0.849147 0.206854 0.485916
vn 0.165380 -0.812677 0.558702
vn -0.430372 -0.166692 0.887082
vn -0.144078 -0.093448 0.985137
vn -0.270577 -0.270577 0.923856
vn -0.270577 0.270577 0.923856
vn 0.214148 0.138829 0.966857
vn 0.101840 -0.263161 0.959349
usemtl (null)
s off
f 18/1/1 13/2/1 17/3/1
f 17/1/1 13/2/1 14/3/1
f 16/1/1 17/2/1 14/3/1
f 16/1/1 14/2/1 15/3/1
f 24/1/1 19/2/1 23/3/1
f 23/1/1 19/2/1 20/3/1
f 22/1/1 23/2/1 20/3/1
f 22/1/1 20/2/1 21/3/1
s 1
f 12/1/2 11/2/3 18/4/4
f 11/2/3 17/3/5 18/4/4
f 11/1/3 10/2/6 16/3/7
f 11/1/3 16/3/7 17/4/5
f 10/1/6 9/2/8 15/3/9
f 10/1/6 15/3/9 16/4/7
f 9/1/8 8/2/10 14/3/11
f 9/1/8 14/3/11 15/4/9
f 8/1/10 7/2/12 14/4/11
f 7/2/12 13/3/13 14/4/11
f 7/1/12 12/2/2 18/3/4
f 7/1/12 18/3/4 13/4/13
f 6/1/14 5/2/15 11/3/3
f 6/1/14 11/3/3 12/4/2
f 5/1/15 4/2/16 10/3/6
f 5/1/15 10/3/6 11/4/3
f 4/1/16 3/2/17 9/3/8
f 4/1/16 9/3/8 10/4/6
f 3/1/17 2/2/18 8/3/10
f 3/1/17 8/3/10 9/4/8
f 2/1/18 1/2/19 7/3/12
f 2/1/18 7/3/12 8/4/10
f 1/1/19 6/2/14 12/3/2
f 1/1/19 12/3/2 7/4/12
f 24/1/20 23/2/21 5/3/15
f 24/1/20 5/3/15 6/4/14
f 23/1/21 22/2/22 5/4/15
f 22/2/22 4/3/16 5/4/15
f 22/1/22 21/2/23 3/3/17
f 22/1/22 3/3/17 4/4/16
f 21/1/23 20/2/24 3/4/17
f 20/2/24 2/3/18 3/4/17
f 1/1/19 2/2/18 20/3/24
f 1/1/19 20/3/24 19/4/25
f 6/1/14 1/2/19 24/4/20
f 1/2/19 19/3/25 24/4/20
