# Blender3D v249 OBJ File: chiffres.blend
# www.blender3d.org
mtllib 7.mtl
v -0.134954 0.131629 0.020000
v -0.123998 0.171658 0.020000
v -0.111264 0.188074 0.020000
v -0.093328 0.193288 0.020000
v 0.097864 0.193288 0.020000
v 0.058507 0.133292 0.020000
v 0.014818 0.055582 0.020000
v -0.022880 -0.024129 0.020000
v -0.053344 -0.105492 0.020000
v -0.075275 -0.188049 0.020000
v -0.090408 -0.282795 0.020000
v -0.001395 -0.282795 0.020000
v 0.017901 -0.117144 0.020000
v 0.077430 0.053310 0.020000
v 0.180195 0.241468 0.020000
v 0.180195 0.282795 0.020000
v -0.164691 0.282795 0.020000
v -0.180195 0.131629 0.020000
v -0.134954 0.131629 -0.020000
v -0.123998 0.171658 -0.020000
v -0.111264 0.188074 -0.020000
v -0.093328 0.193288 -0.020000
v 0.097864 0.193288 -0.020000
v 0.058507 0.133292 -0.020000
v 0.014818 0.055582 -0.020000
v -0.022880 -0.024129 -0.020000
v -0.053344 -0.105492 -0.020000
v -0.075275 -0.188049 -0.020000
v -0.090408 -0.282795 -0.020000
v -0.001395 -0.282795 -0.020000
v 0.017901 -0.117144 -0.020000
v 0.077430 0.053310 -0.020000
v 0.180195 0.241468 -0.020000
v 0.180195 0.282795 -0.020000
v -0.164691 0.282795 -0.020000
v -0.180195 0.131629 -0.020000
v -0.142585 0.141629 -0.030000
v -0.133118 0.176217 -0.030000
v -0.117174 0.196770 -0.030000
v -0.094752 0.203288 -0.030000
v 0.116384 0.203288 -0.030000
v 0.067056 0.128093 -0.030000
v 0.023708 0.050988 -0.030000
v -0.013661 -0.028027 -0.030000
v -0.043806 -0.108537 -0.030000
v -0.065480 -0.190126 -0.030000
v -0.078684 -0.272795 -0.030000
v -0.010298 -0.272795 -0.030000
v 0.008096 -0.114890 -0.030000
v 0.068260 0.057382 -0.030000
v 0.170195 0.244021 -0.030000
v 0.170195 0.272795 -0.030000
v -0.155664 0.272795 -0.030000
v -0.169117 0.141629 -0.030000
v -0.142585 0.141629 0.030000
v -0.133118 0.176217 0.030000
v -0.117174 0.196770 0.030000
v -0.094752 0.203288 0.030000
v 0.116384 0.203288 0.030000
v 0.067056 0.128093 0.030000
v 0.023708 0.050988 0.030000
v -0.013661 -0.028027 0.030000
v -0.043806 -0.108537 0.030000
v -0.065480 -0.190126 0.030000
v -0.078684 -0.272795 0.030000
v -0.010298 -0.272795 0.030000
v 0.008096 -0.114890 0.030000
v 0.068260 0.057382 0.030000
v 0.170195 0.244021 0.030000
v 0.170195 0.272795 0.030000
v -0.155664 0.272795 0.030000
v -0.169117 0.141629 0.030000
vn 0.000000 0.000000 1.000000
vn -0.505173 -0.753502 -0.420698
vn -0.651601 0.530015 -0.542650
vn -0.739280 -0.667318 0.090152
vn -0.369854 0.409742 0.833827
vn 0.487869 0.773675 -0.404157
vn 0.653279 0.653279 -0.382672
vn 0.907498 -0.151158 -0.391858
vn 0.868892 -0.302316 0.391858
vn 0.833399 -0.397778 -0.383648
vn 0.691305 -0.284616 0.664083
vn 0.871822 -0.217902 -0.438643
vn 0.355663 -0.081759 0.930998
vn 0.614124 -0.622944 -0.484481
vn 0.847652 -0.525437 -0.073183
vn -0.513291 -0.742332 -0.430616
vn -0.539018 -0.459761 -0.705710
vn -0.906705 0.176366 -0.383038
vn -0.900235 0.206885 0.383038
vn -0.884487 0.266335 -0.383038
vn -0.945952 0.319163 -0.057161
vn -0.855770 0.347850 -0.382916
vn -0.914029 0.401532 -0.057131
vn -0.825617 0.414411 -0.382855
vn -0.815668 0.433699 0.382855
vn -0.794733 0.470962 -0.382824
vn -0.847041 0.528428 -0.057100
vn -0.704001 -0.133518 -0.697501
vn -0.343272 -0.185369 0.920743
vn 0.103702 -0.945799 -0.307718
vn 0.130070 -0.913266 0.385968
vn 0.459090 -0.763634 -0.453932
vn 0.363598 -0.534959 0.762596
vn 0.819300 -0.421155 -0.389019
vn 0.861507 -0.504379 -0.058077
vn 0.568316 -0.681021 -0.461715
vn 0.658895 -0.521928 -0.541673
vn -0.801111 -0.425672 0.420698
vn -0.460738 0.702292 0.542650
vn 0.773675 0.487869 0.404157
vn 0.887509 -0.240425 0.393048
vn 0.845668 -0.370830 0.383770
vn 0.879452 -0.184698 0.438643
vn 0.375225 -0.799249 0.469436
vn -0.813990 -0.389782 0.430616
vn -0.903012 0.194281 0.383099
vn -0.879177 0.283334 0.383068
vn -0.849971 0.361766 0.382946
vn -0.819819 0.425733 0.382885
vn -0.788354 0.481521 0.382855
vn -0.497787 -0.515397 0.697501
vn 0.164434 -0.937132 0.307718
vn 0.541093 -0.707907 0.453932
vn 0.849727 -0.356517 0.388318
vn 0.349864 -0.821223 0.450728
vn -0.229530 -0.207190 0.950957
vn -0.155004 0.171728 0.972839
vn 0.270577 0.270577 0.923856
vn 0.352855 -0.122776 0.927580
vn 0.301950 -0.124302 0.945158
vn 0.208625 -0.047945 0.976806
vn 0.316324 -0.196081 0.928129
vn -0.328898 -0.280557 0.901700
vn -0.372570 0.085604 0.924009
vn -0.433241 0.146153 0.889309
vn -0.418714 0.183935 0.889248
vn -0.337718 0.179571 0.923948
vn -0.388104 0.242134 0.889218
vn -0.132389 -0.071474 0.988586
vn 0.053468 -0.375622 0.925199
vn 0.163823 -0.241035 0.956572
vn 0.389569 -0.228065 0.892270
vn 0.381695 -0.302316 0.873409
usemtl (null)
s off
f 47//1 48//1 46//1
f 46//1 48//1 49//1
f 46//1 49//1 45//1
f 45//1 49//1 44//1
f 44//1 49//1 43//1
f 43//1 49//1 50//1
f 43//1 50//1 42//1
f 54//1 37//1 38//1
f 54//1 38//1 39//1
f 42//1 50//1 41//1
f 41//1 50//1 51//1
f 40//1 41//1 51//1
f 40//1 51//1 52//1
f 40//1 52//1 53//1
f 39//1 40//1 53//1
f 54//1 39//1 53//1
f 65//1 66//1 64//1
f 64//1 66//1 67//1
f 64//1 67//1 63//1
f 63//1 67//1 62//1
f 62//1 67//1 61//1
f 61//1 67//1 68//1
f 61//1 68//1 60//1
f 72//1 55//1 56//1
f 72//1 56//1 57//1
f 60//1 68//1 59//1
f 59//1 68//1 69//1
f 58//1 59//1 69//1
f 58//1 69//1 70//1
f 58//1 70//1 71//1
f 57//1 58//1 71//1
f 72//1 57//1 71//1
s 1
f 36//2 35//3 54//4
f 35//3 53//5 54//4
f 35//3 34//6 52//7
f 35//3 52//7 53//5
f 34//6 33//8 52//7
f 33//8 51//9 52//7
f 33//8 32//10 51//9
f 32//10 50//11 51//9
f 32//10 31//12 50//11
f 31//12 49//13 50//11
f 31//12 30//14 48//15
f 31//12 48//15 49//13
f 30//14 29//16 47//17
f 30//14 47//17 48//15
f 29//16 28//18 47//17
f 28//18 46//19 47//17
f 28//18 27//20 46//19
f 27//20 45//21 46//19
f 27//20 26//22 45//21
f 26//22 44//23 45//21
f 26//22 25//24 44//23
f 25//24 43//25 44//23
f 25//24 24//26 43//25
f 24//26 42//27 43//25
f 24//26 23//28 42//27
f 23//28 41//29 42//27
f 23//28 22//30 40//31
f 23//28 40//31 41//29
f 22//30 21//32 40//31
f 21//32 39//33 40//31
f 21//32 20//34 38//35
f 21//32 38//35 39//33
f 20//34 19//36 37//37
f 20//34 37//37 38//35
f 19//36 36//2 54//4
f 19//36 54//4 37//37
f 18//38 17//39 35//3
f 18//38 35//3 36//2
f 17//39 16//40 34//6
f 17//39 34//6 35//3
f 16//40 15//41 33//8
f 16//40 33//8 34//6
f 15//41 14//42 32//10
f 15//41 32//10 33//8
f 14//42 13//43 31//12
f 14//42 31//12 32//10
f 13//43 12//44 30//14
f 13//43 30//14 31//12
f 12//44 11//45 29//16
f 12//44 29//16 30//14
f 11//45 10//46 28//18
f 11//45 28//18 29//16
f 10//46 9//47 27//20
f 10//46 27//20 28//18
f 9//47 8//48 26//22
f 9//47 26//22 27//20
f 8//48 7//49 25//24
f 8//48 25//24 26//22
f 7//49 6//50 24//26
f 7//49 24//26 25//24
f 6//50 5//51 23//28
f 6//50 23//28 24//26
f 5//51 4//52 22//30
f 5//51 22//30 23//28
f 4//52 3//53 21//32
f 4//52 21//32 22//30
f 3//53 2//54 20//34
f 3//53 20//34 21//32
f 2//54 1//55 19//36
f 2//54 19//36 20//34
f 1//55 18//38 36//2
f 1//55 36//2 19//36
f 72//56 71//57 17//39
f 72//56 17//39 18//38
f 71//57 70//58 17//39
f 70//58 16//40 17//39
f 70//58 69//59 15//41
f 70//58 15//41 16//40
f 69//59 68//60 14//42
f 69//59 14//42 15//41
f 68//60 67//61 13//43
f 68//60 13//43 14//42
f 67//61 66//62 13//43
f 66//62 12//44 13//43
f 66//62 65//63 12//44
f 65//63 11//45 12//44
f 65//63 64//64 10//46
f 65//63 10//46 11//45
f 64//64 63//65 9//47
f 64//64 9//47 10//46
f 63//65 62//66 8//48
f 63//65 8//48 9//47
f 62//66 61//67 7//49
f 62//66 7//49 8//48
f 61//67 60//68 6//50
f 61//67 6//50 7//49
f 60//68 59//69 5//51
f 60//68 5//51 6//50
f 59//69 58//70 5//51
f 58//70 4//52 5//51
f 58//70 57//71 3//53
f 58//70 3//53 4//52
f 57//71 56//72 3//53
f 56//72 2//54 3//53
f 1//55 2//54 55//73
f 2//54 56//72 55//73
f 18//38 1//55 72//56
f 1//55 55//73 72//56
