# Blender3D v249 OBJ File: letters.blend
# www.blender3d.org
mtllib D.mtl
v -0.182093 0.238132 0.020000
v -0.182093 -0.238132 0.020000
v -0.220957 -0.238132 0.020000
v -0.220957 -0.282795 0.020000
v 0.003406 -0.282795 0.020000
v 0.078481 -0.273598 0.020000
v 0.138413 -0.245278 0.020000
v 0.181350 -0.197938 0.020000
v 0.203604 -0.146316 0.020000
v 0.216654 -0.080426 0.020000
v 0.220957 0.000012 0.020000
v 0.216484 0.079977 0.020000
v 0.202914 0.145904 0.020000
v 0.179801 0.198018 0.020000
v 0.136157 0.245314 0.020000
v 0.075632 0.273603 0.020000
v 0.000038 0.282795 0.020000
v -0.220957 0.282795 0.020000
v -0.220957 0.238132 0.020000
v -0.182093 0.238132 -0.020000
v -0.182093 -0.238132 -0.020000
v -0.220957 -0.238132 -0.020000
v -0.220957 -0.282795 -0.020000
v 0.003406 -0.282795 -0.020000
v 0.078481 -0.273598 -0.020000
v 0.138413 -0.245278 -0.020000
v 0.181350 -0.197938 -0.020000
v 0.203604 -0.146316 -0.020000
v 0.216654 -0.080426 -0.020000
v 0.220957 0.000012 -0.020000
v 0.216484 0.079977 -0.020000
v 0.202914 0.145904 -0.020000
v 0.179801 0.198018 -0.020000
v 0.136157 0.245314 -0.020000
v 0.075632 0.273603 -0.020000
v 0.000038 0.282795 -0.020000
v -0.220957 0.282795 -0.020000
v -0.220957 0.238132 -0.020000
v -0.025522 0.238132 0.020000
v 0.006314 0.236282 0.020000
v 0.031404 0.230939 0.020000
v 0.049424 0.222716 0.020000
v 0.088368 0.179082 0.020000
v 0.112379 0.106216 0.020000
v 0.120566 0.002990 0.020000
v 0.112047 -0.104178 0.020000
v 0.087043 -0.179907 0.020000
v 0.046458 -0.225308 0.020000
v 0.030937 -0.232284 0.020000
v 0.008208 -0.236899 0.020000
v -0.021392 -0.238505 0.020000
v -0.080628 -0.238505 0.020000
v -0.080628 0.238132 0.020000
v -0.025522 0.238132 -0.020000
v 0.006314 0.236282 -0.020000
v 0.031404 0.230939 -0.020000
v 0.049424 0.222716 -0.020000
v 0.088368 0.179082 -0.020000
v 0.112379 0.106216 -0.020000
v 0.120566 0.002990 -0.020000
v 0.112047 -0.104178 -0.020000
v 0.087043 -0.179907 -0.020000
v 0.046458 -0.225308 -0.020000
v 0.030937 -0.232284 -0.020000
v 0.008208 -0.236899 -0.020000
v -0.021392 -0.238505 -0.020000
v -0.080628 -0.238505 -0.020000
v -0.080628 0.238132 -0.020000
v -0.172093 0.248132 -0.030000
v -0.172093 -0.248132 -0.030000
v -0.210957 -0.248132 -0.030000
v -0.210957 -0.272795 -0.030000
v 0.002795 -0.272795 -0.030000
v 0.075665 -0.263868 -0.030000
v 0.132342 -0.237087 -0.030000
v 0.172825 -0.192451 -0.030000
v 0.194001 -0.143332 -0.030000
v 0.206707 -0.079181 -0.030000
v 0.210942 -0.000000 -0.030000
v 0.206540 0.078683 -0.030000
v 0.193337 0.142833 -0.030000
v 0.171330 0.192451 -0.030000
v 0.130141 0.237087 -0.030000
v 0.072842 0.263868 -0.030000
v -0.000568 0.272795 -0.030000
v -0.210957 0.272795 -0.030000
v -0.210957 0.248132 -0.030000
v -0.025232 0.248132 -0.030000
v 0.007653 0.246222 -0.030000
v 0.034559 0.240492 -0.030000
v 0.055486 0.230942 -0.030000
v 0.097215 0.184189 -0.030000
v 0.122252 0.108205 -0.030000
v 0.130598 0.002990 -0.030000
v 0.121920 -0.106170 -0.030000
v 0.095886 -0.185019 -0.030000
v 0.052496 -0.233558 -0.030000
v 0.034019 -0.241862 -0.030000
v 0.009480 -0.246844 -0.030000
v -0.021121 -0.248505 -0.030000
v -0.090628 -0.248505 -0.030000
v -0.090628 0.248132 -0.030000
v -0.172093 0.248132 0.030000
v -0.172093 -0.248132 0.030000
v -0.210957 -0.248132 0.030000
v -0.210957 -0.272795 0.030000
v 0.002795 -0.272795 0.030000
v 0.075665 -0.263868 0.030000
v 0.132342 -0.237087 0.030000
v 0.172825 -0.192451 0.030000
v 0.194001 -0.143332 0.030000
v 0.206707 -0.079181 0.030000
v 0.210942 0.000000 0.030000
v 0.206540 0.078683 0.030000
v 0.193337 0.142833 0.030000
v 0.171330 0.192451 0.030000
v 0.130141 0.237087 0.030000
v 0.072842 0.263868 0.030000
v -0.000568 0.272795 0.030000
v -0.210957 0.272795 0.030000
v -0.210957 0.248132 0.030000
v -0.025232 0.248132 0.030000
v 0.007653 0.246222 0.030000
v 0.034559 0.240492 0.030000
v 0.055486 0.230942 0.030000
v 0.097215 0.184189 0.030000
v 0.122252 0.108205 0.030000
v 0.130598 0.002990 0.030000
v 0.121920 -0.106170 0.030000
v 0.095886 -0.185019 0.030000
v 0.052496 -0.233558 0.030000
v 0.034019 -0.241862 0.030000
v 0.009480 -0.246844 0.030000
v -0.021121 -0.248505 0.030000
v -0.090628 -0.248505 0.030000
v -0.090628 0.248132 0.030000
vn 0.000000 0.000000 1.000000
vn 0.478195 -0.676290 -0.560259
vn 0.644215 0.574511 -0.504807
vn 0.781793 0.390881 0.485733
vn 0.255043 -0.255043 0.932676
vn -0.019959 0.952055 -0.305185
vn -0.027039 0.997772 0.060549
vn -0.094821 0.918668 -0.383435
vn -0.150822 0.986877 -0.057222
vn -0.249947 0.888638 -0.384472
vn -0.315226 0.867611 0.384472
vn -0.502457 0.741752 -0.444197
vn -0.388256 0.530412 0.753563
vn -0.791772 0.470382 -0.389630
vn -0.763756 0.515213 0.388836
vn -0.903378 0.188757 -0.385022
vn -0.725242 0.176855 0.665365
vn -0.951872 0.017182 -0.305918
vn -0.998138 0.000061 0.060732
vn -0.911405 -0.145848 -0.384747
vn -0.896817 -0.218268 0.384747
vn -0.827876 -0.404218 -0.388836
vn -0.764122 -0.514664 0.388836
vn -0.557207 -0.701682 -0.444014
vn -0.390088 -0.529313 0.753380
vn -0.294931 -0.874660 -0.384625
vn -0.347453 -0.935911 -0.057375
vn -0.127262 -0.914670 -0.383618
vn -0.146458 -0.911832 0.383496
vn -0.033876 -0.951659 -0.305185
vn -0.027833 -0.959227 -0.281167
vn 0.644215 -0.574511 0.504807
vn 0.478195 0.676290 0.560259
vn -0.031648 0.951750 0.305185
vn -0.121036 0.915525 0.383526
vn -0.288339 0.876827 0.384686
vn -0.555162 0.703177 0.444197
vn -0.827601 0.404767 0.388836
vn -0.911344 0.146153 0.384747
vn -0.951872 -0.017029 0.305918
vn -0.903470 -0.188391 0.384991
vn -0.792077 -0.469832 0.389599
vn -0.505264 -0.739952 0.444014
vn -0.257302 -0.886563 0.384411
vn -0.100070 -0.918088 0.383496
vn -0.021332 -0.952025 0.305185
vn 0.223670 -0.111820 0.968200
vn 0.156224 0.156224 0.975280
vn -0.011811 0.436293 0.899716
vn -0.069002 0.451521 0.889553
vn -0.130070 0.357982 0.924589
vn -0.176611 0.241279 0.954222
vn -0.312174 0.210578 0.926359
vn -0.316294 0.077120 0.945494
vn -0.435469 0.000031 0.900174
vn -0.369793 -0.089999 0.924711
vn -0.312326 -0.210364 0.926359
vn -0.177465 -0.240822 0.954192
vn -0.158605 -0.427229 0.890103
vn -0.060549 -0.376995 0.924223
vn -0.014649 -0.505051 0.862941
vn -0.574511 -0.644215 -0.504807
vn -0.773675 0.487869 -0.404157
vn -0.521867 0.521867 -0.674734
vn -0.390881 -0.781793 0.485733
vn 0.045045 0.898221 -0.437208
vn 0.055849 0.921934 0.383282
vn 0.245949 0.888760 -0.386761
vn 0.106601 0.463607 0.879574
vn 0.526444 0.791620 -0.310099
vn 0.543779 0.743645 0.388897
vn 0.741661 0.548112 -0.386608
vn 0.797418 0.463240 0.386578
vn 0.868435 0.313150 -0.384350
vn 0.888638 0.250099 0.384350
vn 0.912595 0.141636 -0.383465
vn 0.918455 0.096652 0.383465
vn 0.899350 0.009522 -0.437086
vn 0.664998 0.000793 0.746818
vn 0.916837 -0.110935 -0.383496
vn 0.993286 -0.100406 -0.057222
vn 0.883175 -0.268563 -0.384503
vn 0.890744 -0.242592 0.384289
vn 0.780023 -0.491562 -0.387127
vn 0.801935 -0.455397 0.386639
vn 0.599841 -0.737510 -0.310221
vn 0.594256 -0.801874 0.061708
vn 0.303507 -0.870937 -0.386395
vn 0.133091 -0.573595 0.808222
vn 0.064150 -0.897031 -0.437208
vn 0.058443 -0.957732 -0.281564
vn -0.215278 -0.430586 0.876461
vn -0.478195 0.676290 -0.560259
vn -0.255043 0.255043 0.932676
vn -0.644215 -0.574511 -0.504807
vn -0.781793 -0.390881 0.485733
vn -0.773675 -0.487869 0.404157
vn -0.574511 0.644215 0.504807
vn 0.063692 0.897092 0.437208
vn 0.300790 0.871914 0.386303
vn 0.594745 0.741661 0.310099
vn 0.775292 0.499008 0.387066
vn 0.880734 0.276345 0.384533
vn 0.916257 0.115329 0.383557
vn 0.899380 -0.007324 0.437086
vn 0.913450 -0.136357 0.383404
vn 0.871364 -0.304941 0.384289
vn 0.746666 -0.541246 0.386639
vn 0.531083 -0.788476 0.310221
vn 0.248115 -0.888119 0.386853
vn 0.045351 -0.898190 0.437208
vn -0.644215 0.574511 0.504807
vn -0.478195 -0.676290 0.560259
vn -0.229499 -0.229499 0.945860
vn -0.202063 0.404157 0.892056
vn 0.023103 0.381359 0.924100
vn 0.056032 0.243721 0.968200
vn 0.222236 0.303934 0.926389
vn 0.327525 0.190252 0.925474
vn 0.366741 0.103214 0.924558
vn 0.379772 0.039949 0.924192
vn 0.304666 0.000366 0.952422
vn 0.454512 -0.045930 0.889523
vn 0.367656 -0.100131 0.924528
vn 0.329325 -0.187017 0.925474
vn 0.255867 -0.345256 0.902921
vn 0.063845 -0.275185 0.959258
vn 0.030732 -0.503800 0.863247
vn -0.175024 -0.175024 0.968871
vn -0.223670 0.111820 0.968200
vn -0.156224 -0.156224 0.975280
usemtl (null)
s off
f 72//1 73//1 74//1
f 72//1 74//1 100//1
f 72//1 100//1 101//1
f 72//1 101//1 70//1
f 72//1 70//1 71//1
f 100//1 74//1 99//1
f 99//1 74//1 98//1
f 98//1 74//1 75//1
f 98//1 75//1 97//1
f 97//1 75//1 76//1
f 97//1 76//1 96//1
f 96//1 76//1 77//1
f 96//1 77//1 95//1
f 95//1 77//1 78//1
f 95//1 78//1 79//1
f 95//1 79//1 94//1
f 94//1 79//1 80//1
f 94//1 80//1 93//1
f 93//1 80//1 81//1
f 93//1 81//1 92//1
f 92//1 81//1 82//1
f 92//1 82//1 91//1
f 91//1 82//1 83//1
f 91//1 83//1 90//1
f 90//1 83//1 89//1
f 70//1 101//1 102//1
f 70//1 102//1 69//1
f 89//1 83//1 84//1
f 88//1 89//1 84//1
f 102//1 88//1 84//1
f 69//1 102//1 84//1
f 87//1 69//1 84//1
f 87//1 84//1 85//1
f 87//1 85//1 86//1
f 106//1 107//1 108//1
f 106//1 108//1 134//1
f 106//1 134//1 135//1
f 106//1 135//1 104//1
f 106//1 104//1 105//1
f 134//1 108//1 133//1
f 133//1 108//1 132//1
f 132//1 108//1 109//1
f 132//1 109//1 131//1
f 131//1 109//1 110//1
f 131//1 110//1 130//1
f 130//1 110//1 111//1
f 130//1 111//1 129//1
f 129//1 111//1 112//1
f 129//1 112//1 113//1
f 129//1 113//1 128//1
f 128//1 113//1 114//1
f 128//1 114//1 127//1
f 127//1 114//1 115//1
f 127//1 115//1 126//1
f 126//1 115//1 116//1
f 126//1 116//1 125//1
f 125//1 116//1 117//1
f 125//1 117//1 124//1
f 124//1 117//1 123//1
f 104//1 135//1 136//1
f 104//1 136//1 103//1
f 123//1 117//1 118//1
f 122//1 123//1 118//1
f 136//1 122//1 118//1
f 103//1 136//1 118//1
f 121//1 103//1 118//1
f 121//1 118//1 119//1
f 121//1 119//1 120//1
s 1
f 68//2 67//3 101//4
f 68//2 101//4 102//5
f 67//3 66//6 100//7
f 67//3 100//7 101//4
f 66//6 65//8 100//7
f 65//8 99//9 100//7
f 65//8 64//10 99//9
f 64//10 98//11 99//9
f 64//10 63//12 98//11
f 63//12 97//13 98//11
f 63//12 62//14 96//15
f 63//12 96//15 97//13
f 62//14 61//16 95//17
f 62//14 95//17 96//15
f 61//16 60//18 94//19
f 61//16 94//19 95//17
f 60//18 59//20 94//19
f 59//20 93//21 94//19
f 59//20 58//22 93//21
f 58//22 92//23 93//21
f 58//22 57//24 92//23
f 57//24 91//25 92//23
f 57//24 56//26 90//27
f 57//24 90//27 91//25
f 56//26 55//28 89//29
f 56//26 89//29 90//27
f 55//28 54//30 88//31
f 55//28 88//31 89//29
f 54//30 68//2 88//31
f 68//2 102//5 88//31
f 53//32 52//33 67//3
f 53//32 67//3 68//2
f 52//33 51//34 66//6
f 52//33 66//6 67//3
f 51//34 50//35 65//8
f 51//34 65//8 66//6
f 50//35 49//36 64//10
f 50//35 64//10 65//8
f 49//36 48//37 63//12
f 49//36 63//12 64//10
f 48//37 47//38 62//14
f 48//37 62//14 63//12
f 47//38 46//39 61//16
f 47//38 61//16 62//14
f 46//39 45//40 60//18
f 46//39 60//18 61//16
f 45//40 44//41 59//20
f 45//40 59//20 60//18
f 44//41 43//42 58//22
f 44//41 58//22 59//20
f 43//42 42//43 57//24
f 43//42 57//24 58//22
f 42//43 41//44 56//26
f 42//43 56//26 57//24
f 41//44 40//45 55//28
f 41//44 55//28 56//26
f 40//45 39//46 54//30
f 40//45 54//30 55//28
f 39//46 53//32 68//2
f 39//46 68//2 54//30
f 136//47 135//48 52//33
f 136//47 52//33 53//32
f 135//48 134//49 52//33
f 134//49 51//34 52//33
f 134//49 133//50 50//35
f 134//49 50//35 51//34
f 133//50 132//51 49//36
f 133//50 49//36 50//35
f 132//51 131//52 48//37
f 132//51 48//37 49//36
f 131//52 130//53 48//37
f 130//53 47//38 48//37
f 130//53 129//54 47//38
f 129//54 46//39 47//38
f 129//54 128//55 46//39
f 128//55 45//40 46//39
f 128//55 127//56 44//41
f 128//55 44//41 45//40
f 127//56 126//57 43//42
f 127//56 43//42 44//41
f 126//57 125//58 42//43
f 126//57 42//43 43//42
f 125//58 124//59 42//43
f 124//59 41//44 42//43
f 124//59 123//60 41//44
f 123//60 40//45 41//44
f 123//60 122//61 40//45
f 122//61 39//46 40//45
f 122//61 136//47 53//32
f 122//61 53//32 39//46
f 38//62 37//63 86//64
f 38//62 86//64 87//65
f 37//63 36//66 86//64
f 36//66 85//67 86//64
f 36//66 35//68 84//69
f 36//66 84//69 85//67
f 35//68 34//70 83//71
f 35//68 83//71 84//69
f 34//70 33//72 83//71
f 33//72 82//73 83//71
f 33//72 32//74 82//73
f 32//74 81//75 82//73
f 32//74 31//76 81//75
f 31//76 80//77 81//75
f 31//76 30//78 80//77
f 30//78 79//79 80//77
f 30//78 29//80 78//81
f 30//78 78//81 79//79
f 29//80 28//82 77//83
f 29//80 77//83 78//81
f 28//82 27//84 76//85
f 28//82 76//85 77//83
f 27//84 26//86 75//87
f 27//84 75//87 76//85
f 26//86 25//88 75//87
f 25//88 74//89 75//87
f 25//88 24//90 74//89
f 24//90 73//91 74//89
f 24//90 23//62 72//92
f 24//90 72//92 73//91
f 23//62 22//63 71//64
f 23//62 71//64 72//92
f 22//63 21//93 71//64
f 21//93 70//94 71//64
f 21//93 20//95 69//96
f 21//93 69//96 70//94
f 20//95 38//62 87//65
f 20//95 87//65 69//96
f 19//97 18//98 37//63
f 19//97 37//63 38//62
f 18//98 17//99 36//66
f 18//98 36//66 37//63
f 17//99 16//100 35//68
f 17//99 35//68 36//66
f 16//100 15//101 34//70
f 16//100 34//70 35//68
f 15//101 14//102 33//72
f 15//101 33//72 34//70
f 14//102 13//103 32//74
f 14//102 32//74 33//72
f 13//103 12//104 31//76
f 13//103 31//76 32//74
f 12//104 11//105 30//78
f 12//104 30//78 31//76
f 11//105 10//106 29//80
f 11//105 29//80 30//78
f 10//106 9//107 28//82
f 10//106 28//82 29//80
f 9//107 8//108 27//84
f 9//107 27//84 28//82
f 8//108 7//109 26//86
f 8//108 26//86 27//84
f 7//109 6//110 25//88
f 7//109 25//88 26//86
f 6//110 5//111 24//90
f 6//110 24//90 25//88
f 5//111 4//97 23//62
f 5//111 23//62 24//90
f 4//97 3//98 22//63
f 4//97 22//63 23//62
f 3//98 2//112 21//93
f 3//98 21//93 22//63
f 2//112 1//113 20//95
f 2//112 20//95 21//93
f 1//113 19//97 38//62
f 1//113 38//62 20//95
f 121//114 120//115 18//98
f 121//114 18//98 19//97
f 120//115 119//116 17//99
f 120//115 17//99 18//98
f 119//116 118//117 17//99
f 118//117 16//100 17//99
f 118//117 117//118 16//100
f 117//118 15//101 16//100
f 117//118 116//119 14//102
f 117//118 14//102 15//101
f 116//119 115//120 13//103
f 116//119 13//103 14//102
f 115//120 114//121 12//104
f 115//120 12//104 13//103
f 114//121 113//122 11//105
f 114//121 11//105 12//104
f 113//122 112//123 11//105
f 112//123 10//106 11//105
f 112//123 111//124 10//106
f 111//124 9//107 10//106
f 111//124 110//125 9//107
f 110//125 8//108 9//107
f 110//125 109//126 8//108
f 109//126 7//109 8//108
f 109//126 108//127 6//110
f 109//126 6//110 7//109
f 108//127 107//128 5//111
f 108//127 5//111 6//110
f 107//128 106//129 5//111
f 106//129 4//97 5//111
f 106//129 105//115 3//98
f 106//129 3//98 4//97
f 105//115 104//130 2//112
f 105//115 2//112 3//98
f 1//113 2//112 104//130
f 1//113 104//130 103//131
f 19//97 1//113 121//114
f 1//113 103//131 121//114
