# Blender3D v249 OBJ File: letters.blend
# www.blender3d.org
mtllib e.mtl
v 0.076393 0.340156 0.100000
v -0.072820 0.340156 0.100000
v -0.071664 0.343952 0.100000
v -0.053058 0.369775 0.100000
v -0.027706 0.385100 0.100000
v 0.007349 0.390720 0.100000
v 0.038563 0.385013 0.100000
v 0.060382 0.370068 0.100000
v 0.075418 0.345252 0.100000
v 0.076393 0.340156 -0.100000
v -0.072820 0.340156 -0.100000
v -0.071664 0.343952 -0.100000
v -0.053058 0.369775 -0.100000
v -0.027706 0.385100 -0.100000
v 0.007349 0.390719 -0.100000
v 0.038563 0.385013 -0.100000
v 0.060382 0.370068 -0.100000
v 0.075418 0.345252 -0.100000
v 0.222681 0.066962 0.100000
v 0.222681 0.222508 0.100000
v 0.140174 0.174158 0.100000
v 0.104968 0.158790 0.100000
v 0.070368 0.149452 0.100000
v 0.036526 0.146358 0.100000
v -0.012226 0.153580 0.100000
v -0.046413 0.173165 0.100000
v -0.070645 0.206079 0.100000
v -0.075120 0.221156 0.100000
v 0.234714 0.221156 0.100000
v 0.216057 0.368712 0.100000
v 0.171390 0.456727 0.100000
v 0.098762 0.511092 0.100000
v 0.005611 0.528701 0.100000
v -0.091424 0.509892 0.100000
v -0.168269 0.456057 0.100000
v -0.217612 0.373677 0.100000
v -0.234714 0.270230 0.100000
v -0.218737 0.170586 0.100000
v -0.171100 0.084251 0.100000
v -0.092424 0.023159 0.100000
v 0.011423 0.000961 0.100000
v 0.070226 0.004570 0.100000
v 0.120246 0.015368 0.100000
v 0.165861 0.033676 0.100000
v 0.222681 0.066961 -0.100000
v 0.222681 0.222508 -0.100000
v 0.140174 0.174158 -0.100000
v 0.104968 0.158790 -0.100000
v 0.070368 0.149452 -0.100000
v 0.036526 0.146358 -0.100000
v -0.012226 0.153580 -0.100000
v -0.046413 0.173165 -0.100000
v -0.070645 0.206079 -0.100000
v -0.075120 0.221156 -0.100000
v 0.234714 0.221156 -0.100000
v 0.216057 0.368712 -0.100000
v 0.171390 0.456727 -0.100000
v 0.098762 0.511092 -0.100000
v 0.005611 0.528701 -0.100000
v -0.091424 0.509892 -0.100000
v -0.168269 0.456057 -0.100000
v -0.217612 0.373677 -0.100000
v -0.234714 0.270230 -0.100000
v -0.218737 0.170586 -0.100000
v -0.171100 0.084251 -0.100000
v -0.092424 0.023159 -0.100000
v 0.011423 0.000961 -0.100000
v 0.070226 0.004570 -0.100000
v 0.120246 0.015368 -0.100000
v 0.165861 0.033676 -0.100000
v 0.112681 0.310156 -0.130000
v -0.113319 0.310156 -0.130000
v -0.098912 0.357453 -0.130000
v -0.073819 0.392281 -0.130000
v -0.038225 0.413796 -0.130000
v 0.007681 0.421156 -0.130000
v 0.050244 0.413375 -0.130000
v 0.082681 0.391156 -0.130000
v 0.103869 0.356187 -0.130000
v 0.192681 0.084156 -0.130000
v 0.192681 0.170156 -0.130000
v 0.153806 0.147375 -0.130000
v 0.114931 0.130406 -0.130000
v 0.075681 0.119812 -0.130000
v 0.035681 0.116156 -0.130000
v -0.022225 0.124734 -0.130000
v -0.066819 0.150281 -0.130000
v -0.097912 0.192515 -0.130000
v -0.115319 0.251156 -0.130000
v 0.200681 0.251156 -0.130000
v 0.186947 0.359781 -0.130000
v 0.147806 0.436906 -0.130000
v 0.086353 0.482906 -0.130000
v 0.005681 0.498156 -0.130000
v -0.079444 0.481656 -0.130000
v -0.145819 0.435156 -0.130000
v -0.188944 0.363156 -0.130000
v -0.204319 0.270156 -0.130000
v -0.189944 0.180500 -0.130000
v -0.147819 0.104156 -0.130000
v -0.079444 0.051062 -0.130000
v 0.013681 0.031156 -0.130000
v 0.066119 0.034375 -0.130000
v 0.111431 0.044156 -0.130000
v 0.152619 0.060687 -0.130000
v 0.112681 0.310156 0.130000
v -0.113319 0.310156 0.130000
v -0.098912 0.357453 0.130000
v -0.073819 0.392281 0.130000
v -0.038225 0.413797 0.130000
v 0.007681 0.421156 0.130000
v 0.050244 0.413375 0.130000
v 0.082681 0.391156 0.130000
v 0.103869 0.356187 0.130000
v 0.192681 0.084156 0.130000
v 0.192681 0.170156 0.130000
v 0.153806 0.147375 0.130000
v 0.114931 0.130406 0.130000
v 0.075681 0.119812 0.130000
v 0.035681 0.116156 0.130000
v -0.022225 0.124734 0.130000
v -0.066819 0.150281 0.130000
v -0.097912 0.192515 0.130000
v -0.115319 0.251156 0.130000
v 0.200681 0.251156 0.130000
v 0.186947 0.359781 0.130000
v 0.147806 0.436906 0.130000
v 0.086353 0.482906 0.130000
v 0.005681 0.498156 0.130000
v -0.079444 0.481656 0.130000
v -0.145819 0.435156 0.130000
v -0.188944 0.363156 0.130000
v -0.204319 0.270156 0.130000
v -0.189944 0.180500 0.130000
v -0.147819 0.104156 0.130000
v -0.079444 0.051062 0.130000
v 0.013681 0.031156 0.130000
v 0.066119 0.034375 0.130000
v 0.111431 0.044156 0.130000
v 0.152619 0.060687 0.130000
vt 0.000000 0.000000
vt 1.000000 0.000000
vt 1.000000 1.000000
vt 0.000000 1.000000
vn 0.000000 0.000000 1.000000
vn -0.000000 0.000001 1.000000
vn 0.406049 -0.802271 -0.437513
vn 0.296152 -0.904752 -0.306040
vn 0.292245 -0.954405 0.060762
vn 0.406507 -0.829218 0.383557
vn 0.134312 -0.889065 -0.437544
vn 0.130985 -0.950468 -0.281808
vn -0.061586 -0.920560 -0.385693
vn -0.029023 -0.997894 -0.057558
vn -0.355632 -0.881039 -0.311838
vn -0.388195 -0.834468 0.391064
vn -0.657613 -0.645283 -0.388714
vn -0.470534 -0.349467 0.810205
vn -0.852931 -0.350230 -0.387036
vn -0.716544 -0.201025 0.667898
vn -0.897153 -0.022858 -0.441084
vn -0.291177 0.000702 0.956664
vn -0.868404 0.308023 -0.388470
vn -0.712699 0.211463 0.668813
vn -0.726035 0.613300 -0.310953
vn -0.673940 0.627430 0.389966
vn -0.418928 0.820368 -0.389141
vn -0.298837 0.871334 0.389111
vn -0.031495 0.896054 -0.442763
vn -0.002197 0.958281 -0.285775
vn 0.359569 0.847102 -0.391247
vn 0.330607 0.941954 -0.058412
vn 0.693991 0.648793 -0.312113
vn 0.601154 0.505234 0.619098
vn 0.849483 0.288552 -0.441694
vn 0.453475 0.139134 0.880306
vn 0.806726 -0.410749 -0.424787
vn 0.635701 -0.560381 0.530839
vn 0.507523 -0.598041 -0.620258
vn 0.377148 -0.281472 0.882321
vn 0.867580 0.389538 -0.309061
vn 0.858211 0.426893 -0.284982
vn 0.620106 0.646718 -0.444075
vn 0.437544 0.490707 0.753471
vn 0.311136 0.867336 -0.388409
vn 0.385540 0.920865 -0.057985
vn 0.032105 0.922330 -0.384991
vn 0.062532 0.920896 0.384747
vn -0.158422 0.909665 -0.383892
vn -0.147771 0.987335 -0.057283
vn -0.302164 0.872646 -0.383557
vn -0.307291 0.949858 -0.057222
vn -0.416181 0.824549 -0.383251
vn -0.435194 0.898495 -0.057161
vn 0.122990 0.848903 -0.513993
vn 0.303110 0.528947 -0.792657
vn 0.856044 -0.294809 -0.424574
vn 0.272073 -0.233467 0.933500
vn 0.385479 -0.812372 0.437513
vn 0.261208 -0.915464 0.306040
vn 0.111148 -0.892270 0.437544
vn -0.110630 -0.916074 0.385357
vn -0.444777 -0.839564 0.311838
vn -0.707022 -0.590228 0.389477
vn -0.874538 -0.291391 0.387555
vn -0.897031 0.027223 0.441084
vn -0.843440 0.371654 0.387829
vn -0.663564 0.680410 0.310953
vn -0.349315 0.851985 0.389935
vn 0.027345 0.896207 0.442763
vn 0.434767 0.811518 0.390301
vn 0.758538 0.571978 0.312113
vn 0.865139 0.237495 0.441694
vn 0.508713 -0.748802 0.424787
vn 0.717765 -0.316355 0.620258
vn 0.834071 0.456893 0.309061
vn 0.571703 0.689871 0.444075
vn 0.246559 0.888150 0.387768
vn -0.010987 0.922941 0.384747
vn -0.189032 0.903867 0.383740
vn -0.327311 0.863582 0.383465
vn -0.435163 0.814722 0.383190
vn 0.670217 0.535325 0.513993
vn 0.767876 -0.474197 0.430647
vn 0.168035 -0.342784 0.924223
vn 0.127445 -0.416242 0.900266
vn 0.068850 -0.499649 0.863460
vn -0.013215 -0.454482 0.890652
vn -0.157903 -0.339457 0.927244
vn -0.225318 -0.167333 0.959777
vn -0.311533 -0.087405 0.946196
vn -0.185003 0.000427 0.982727
vn -0.309519 0.091830 0.946440
vn -0.274789 0.255837 0.926817
vn -0.122074 0.355937 0.926481
vn -0.001129 0.498672 0.866756
vn 0.148778 0.423933 0.893368
vn 0.254067 0.213538 0.943297
vn 0.238258 0.073092 0.968413
vn 0.198157 -0.174688 0.964446
vn 0.150792 -0.112552 0.982116
vn 0.447462 0.222571 0.866115
vn 0.199072 0.223243 0.954192
vn 0.174566 0.416974 0.891964
vn 0.025788 0.379742 0.924711
vn -0.067568 0.451399 0.889737
vn -0.140599 0.434584 0.889553
vn -0.199225 0.411359 0.889401
vn 0.171422 0.299142 0.938658
vn 0.152684 -0.131016 0.979522
vn -0.900784 -0.304758 -0.309275
vn -0.673208 -0.590960 -0.444411
vn -0.931639 -0.358074 0.061495
vn -0.668966 -0.632618 0.390149
vn -0.361003 -0.847102 -0.389935
vn -0.410230 -0.824763 0.389141
vn -0.047304 -0.949889 -0.308908
vn -0.010895 -0.998047 0.061403
vn 0.260414 -0.884030 -0.388073
vn 0.372570 -0.842921 0.388073
vn 0.584216 -0.679617 -0.443587
vn 0.624500 -0.677023 0.389386
vn 0.835810 -0.453963 -0.308664
vn 0.894345 -0.443098 0.061342
vn 0.718162 0.312082 -0.621937
vn 0.659566 0.488571 0.571184
vn -0.608173 0.577929 -0.544115
vn -0.408094 0.752892 0.516312
vn -0.873043 -0.376965 0.309275
vn -0.627613 -0.639180 0.444411
vn -0.289590 -0.874447 0.389141
vn 0.026521 -0.950713 0.308908
vn 0.326670 -0.861446 0.388775
vn 0.630329 -0.637074 0.443587
vn 0.867519 -0.389966 0.308664
vn 0.507797 0.596057 0.621937
vn -0.816187 0.259255 0.516312
vn -0.402295 -0.154607 0.902341
vn -0.272652 -0.257851 0.926908
vn -0.167577 -0.336894 0.926481
vn -0.004700 -0.431440 0.902097
vn 0.152532 -0.345103 0.926084
vn 0.254952 -0.276406 0.926572
vn 0.386914 -0.191687 0.901944
vn 0.192358 0.142491 0.970916
vn -0.130406 0.240608 0.961791
usemtl (null)
s off
f 102/1/1 103/2/1 104/3/1
f 102/1/1 104/2/1 101/3/1
f 101/1/1 104/2/1 105/3/1
f 101/1/2 105/2/2 80/3/2
f 101/1/1 80/2/1 100/3/1
f 100/1/1 80/2/1 85/3/1
f 85/1/1 80/2/1 84/3/1
f 100/1/1 85/2/1 86/3/1
f 84/1/1 80/2/1 83/3/1
f 83/1/1 80/2/1 82/3/1
f 100/1/1 86/2/1 87/3/1
f 82/1/1 80/2/1 81/3/1
f 100/1/1 87/2/1 99/3/1
f 99/1/1 87/2/1 88/3/1
f 99/1/1 88/2/1 89/3/1
f 89/1/1 90/2/1 98/3/1
f 99/1/1 89/2/1 98/3/1
f 98/1/1 90/2/1 71/3/1
f 98/1/1 71/2/1 72/3/1
f 71/1/1 90/2/1 79/3/1
f 98/1/1 72/2/1 73/3/1
f 79/1/1 90/2/1 91/3/1
f 98/1/1 73/2/1 97/3/1
f 79/1/1 91/2/1 78/3/1
f 97/1/1 73/2/1 74/3/1
f 78/1/1 91/2/1 77/3/1
f 97/1/1 74/2/1 75/3/1
f 75/1/1 76/2/1 96/3/1
f 97/1/1 75/2/1 96/3/1
f 77/1/1 91/2/1 92/3/1
f 76/1/1 77/2/1 92/3/1
f 96/1/1 76/2/1 92/3/1
f 96/1/1 92/2/1 95/3/1
f 95/1/1 92/2/1 93/3/1
f 95/1/1 93/2/1 94/3/1
f 137/1/1 138/2/1 139/3/1
f 137/1/1 139/2/1 136/3/1
f 136/1/1 139/2/1 140/3/1
f 136/1/2 140/2/2 115/3/2
f 136/1/1 115/2/1 135/3/1
f 135/1/1 115/2/1 120/3/1
f 120/1/1 115/2/1 119/3/1
f 135/1/1 120/2/1 121/3/1
f 119/1/1 115/2/1 118/3/1
f 118/1/1 115/2/1 117/3/1
f 135/1/1 121/2/1 122/3/1
f 117/1/1 115/2/1 116/3/1
f 135/1/1 122/2/1 134/3/1
f 134/1/1 122/2/1 123/3/1
f 134/1/1 123/2/1 124/3/1
f 124/1/1 125/2/1 133/3/1
f 134/1/1 124/2/1 133/3/1
f 133/1/1 125/2/1 106/3/1
f 133/1/1 106/2/1 107/3/1
f 106/1/1 125/2/1 114/3/1
f 133/1/1 107/2/1 108/3/1
f 114/1/1 125/2/1 126/3/1
f 133/1/1 108/2/1 132/3/1
f 114/1/1 126/2/1 113/3/1
f 132/1/1 108/2/1 109/3/1
f 113/1/1 126/2/1 112/3/1
f 132/1/1 109/2/1 110/3/1
f 110/1/1 111/2/1 131/3/1
f 132/1/1 110/2/1 131/3/1
f 112/1/1 126/2/1 127/3/1
f 111/1/1 112/2/1 127/3/1
f 131/1/1 111/2/1 127/3/1
f 131/1/1 127/2/1 130/3/1
f 130/1/1 127/2/1 128/3/1
f 130/1/1 128/2/1 129/3/1
s 1
f 70/1/3 69/2/4 104/3/5
f 70/1/3 104/3/5 105/4/6
f 69/1/4 68/2/7 104/4/5
f 68/2/7 103/3/8 104/4/5
f 68/1/7 67/2/9 102/3/10
f 68/1/7 102/3/10 103/4/8
f 67/1/9 66/2/11 101/3/12
f 67/1/9 101/3/12 102/4/10
f 66/1/11 65/2/13 101/4/12
f 65/2/13 100/3/14 101/4/12
f 65/1/13 64/2/15 100/4/14
f 64/2/15 99/3/16 100/4/14
f 64/1/15 63/2/17 99/4/16
f 63/2/17 98/3/18 99/4/16
f 63/1/17 62/2/19 97/3/20
f 63/1/17 97/3/20 98/4/18
f 62/1/19 61/2/21 96/3/22
f 62/1/19 96/3/22 97/4/20
f 61/1/21 60/2/23 96/4/22
f 60/2/23 95/3/24 96/4/22
f 60/1/23 59/2/25 95/4/24
f 59/2/25 94/3/26 95/4/24
f 59/1/25 58/2/27 93/3/28
f 59/1/25 93/3/28 94/4/26
f 58/1/27 57/2/29 92/3/30
f 58/1/27 92/3/30 93/4/28
f 57/1/29 56/2/31 92/4/30
f 56/2/31 91/3/32 92/4/30
f 56/1/31 55/2/33 90/3/34
f 56/1/31 90/3/34 91/4/32
f 55/1/33 54/2/35 90/4/34
f 54/2/35 89/3/36 90/4/34
f 54/1/35 53/2/37 88/3/38
f 54/1/35 88/3/38 89/4/36
f 53/1/37 52/2/39 88/4/38
f 52/2/39 87/3/40 88/4/38
f 52/1/39 51/2/41 86/3/42
f 52/1/39 86/3/42 87/4/40
f 51/1/41 50/2/43 85/3/44
f 51/1/41 85/3/44 86/4/42
f 50/1/43 49/2/45 84/3/46
f 50/1/43 84/3/46 85/4/44
f 49/1/45 48/2/47 83/3/48
f 49/1/45 83/3/48 84/4/46
f 48/1/47 47/2/49 82/3/50
f 48/1/47 82/3/50 83/4/48
f 47/1/49 46/2/51 81/3/52
f 47/1/49 81/3/52 82/4/50
f 46/1/51 45/2/53 81/4/52
f 45/2/53 80/3/54 81/4/52
f 45/1/53 70/2/3 80/4/54
f 70/2/3 105/3/6 80/4/54
f 44/1/55 43/2/56 69/3/4
f 44/1/55 69/3/4 70/4/3
f 43/1/56 42/2/57 68/3/7
f 43/1/56 68/3/7 69/4/4
f 42/1/57 41/2/58 67/3/9
f 42/1/57 67/3/9 68/4/7
f 41/1/58 40/2/59 66/3/11
f 41/1/58 66/3/11 67/4/9
f 40/1/59 39/2/60 65/3/13
f 40/1/59 65/3/13 66/4/11
f 39/1/60 38/2/61 64/3/15
f 39/1/60 64/3/15 65/4/13
f 38/1/61 37/2/62 63/3/17
f 38/1/61 63/3/17 64/4/15
f 37/1/62 36/2/63 62/3/19
f 37/1/62 62/3/19 63/4/17
f 36/1/63 35/2/64 61/3/21
f 36/1/63 61/3/21 62/4/19
f 35/1/64 34/2/65 60/3/23
f 35/1/64 60/3/23 61/4/21
f 34/1/65 33/2/66 59/3/25
f 34/1/65 59/3/25 60/4/23
f 33/1/66 32/2/67 58/3/27
f 33/1/66 58/3/27 59/4/25
f 32/1/67 31/2/68 57/3/29
f 32/1/67 57/3/29 58/4/27
f 31/1/68 30/2/69 56/3/31
f 31/1/68 56/3/31 57/4/29
f 30/1/69 29/2/70 55/3/33
f 30/1/69 55/3/33 56/4/31
f 29/1/70 28/2/71 54/3/35
f 29/1/70 54/3/35 55/4/33
f 28/1/71 27/2/72 53/3/37
f 28/1/71 53/3/37 54/4/35
f 27/1/72 26/2/73 52/3/39
f 27/1/72 52/3/39 53/4/37
f 26/1/73 25/2/74 51/3/41
f 26/1/73 51/3/41 52/4/39
f 25/1/74 24/2/75 50/3/43
f 25/1/74 50/3/43 51/4/41
f 24/1/75 23/2/76 49/3/45
f 24/1/75 49/3/45 50/4/43
f 23/1/76 22/2/77 48/3/47
f 23/1/76 48/3/47 49/4/45
f 22/1/77 21/2/78 47/3/49
f 22/1/77 47/3/49 48/4/47
f 21/1/78 20/2/79 46/3/51
f 21/1/78 46/3/51 47/4/49
f 20/1/79 19/2/80 45/3/53
f 20/1/79 45/3/53 46/4/51
f 19/1/80 44/2/55 70/3/3
f 19/1/80 70/3/3 45/4/53
f 140/1/81 139/2/82 44/4/55
f 139/2/82 43/3/56 44/4/55
f 139/1/82 138/2/83 42/3/57
f 139/1/82 42/3/57 43/4/56
f 138/1/83 137/2/84 42/4/57
f 137/2/84 41/3/58 42/4/57
f 137/1/84 136/2/85 41/4/58
f 136/2/85 40/3/59 41/4/58
f 136/1/85 135/2/86 39/3/60
f 136/1/85 39/3/60 40/4/59
f 135/1/86 134/2/87 38/3/61
f 135/1/86 38/3/61 39/4/60
f 134/1/87 133/2/88 37/3/62
f 134/1/87 37/3/62 38/4/61
f 133/1/88 132/2/89 37/4/62
f 132/2/89 36/3/63 37/4/62
f 132/1/89 131/2/90 36/4/63
f 131/2/90 35/3/64 36/4/63
f 131/1/90 130/2/91 34/3/65
f 131/1/90 34/3/65 35/4/64
f 130/1/91 129/2/92 33/3/66
f 130/1/91 33/3/66 34/4/65
f 129/1/92 128/2/93 33/4/66
f 128/2/93 32/3/67 33/4/66
f 128/1/93 127/2/94 32/4/67
f 127/2/94 31/3/68 32/4/67
f 127/1/94 126/2/95 30/3/69
f 127/1/94 30/3/69 31/4/68
f 126/1/95 125/2/96 30/4/69
f 125/2/96 29/3/70 30/4/69
f 125/1/96 124/2/97 28/3/71
f 125/1/96 28/3/71 29/4/70
f 124/1/97 123/2/98 28/4/71
f 123/2/98 27/3/72 28/4/71
f 123/1/98 122/2/99 26/3/73
f 123/1/98 26/3/73 27/4/72
f 122/1/99 121/2/100 26/4/73
f 121/2/100 25/3/74 26/4/73
f 121/1/100 120/2/101 25/4/74
f 120/2/101 24/3/75 25/4/74
f 120/1/101 119/2/102 24/4/75
f 119/2/102 23/3/76 24/4/75
f 119/1/102 118/2/103 23/4/76
f 118/2/103 22/3/77 23/4/76
f 118/1/103 117/2/104 22/4/77
f 117/2/104 21/3/78 22/4/77
f 117/1/104 116/2/105 21/4/78
f 116/2/105 20/3/79 21/4/78
f 116/1/105 115/2/106 19/3/80
f 116/1/105 19/3/80 20/4/79
f 115/1/106 140/2/81 44/3/55
f 115/1/106 44/3/55 19/4/80
f 18/1/107 17/2/108 79/4/109
f 17/2/108 78/3/110 79/4/109
f 17/1/108 16/2/111 77/3/112
f 17/1/108 77/3/112 78/4/110
f 16/1/111 15/2/113 76/3/114
f 16/1/111 76/3/114 77/4/112
f 15/1/113 14/2/115 76/4/114
f 14/2/115 75/3/116 76/4/114
f 14/1/115 13/2/117 75/4/116
f 13/2/117 74/3/118 75/4/116
f 13/1/117 12/2/119 73/3/120
f 13/1/117 73/3/120 74/4/118
f 12/1/119 11/2/121 73/4/120
f 11/2/121 72/3/122 73/4/120
f 11/1/121 10/2/123 71/3/124
f 11/1/121 71/3/124 72/4/122
f 10/1/123 18/2/107 79/3/109
f 10/1/123 79/3/109 71/4/124
f 9/1/125 8/2/126 17/3/108
f 9/1/125 17/3/108 18/4/107
f 8/1/126 7/2/127 16/3/111
f 8/1/126 16/3/111 17/4/108
f 7/1/127 6/2/128 15/3/113
f 7/1/127 15/3/113 16/4/111
f 6/1/128 5/2/129 14/3/115
f 6/1/128 14/3/115 15/4/113
f 5/1/129 4/2/130 13/3/117
f 5/1/129 13/3/117 14/4/115
f 4/1/130 3/2/131 12/3/119
f 4/1/130 12/3/119 13/4/117
f 3/1/131 2/2/132 11/3/121
f 3/1/131 11/3/121 12/4/119
f 2/1/132 1/2/133 10/3/123
f 2/1/132 10/3/123 11/4/121
f 1/1/133 9/2/125 18/3/107
f 1/1/133 18/3/107 10/4/123
f 114/1/134 113/2/135 8/3/126
f 114/1/134 8/3/126 9/4/125
f 113/1/135 112/2/136 8/4/126
f 112/2/136 7/3/127 8/4/126
f 112/1/136 111/2/137 7/4/127
f 111/2/137 6/3/128 7/4/127
f 111/1/137 110/2/138 5/3/129
f 111/1/137 5/3/129 6/4/128
f 110/1/138 109/2/139 4/3/130
f 110/1/138 4/3/130 5/4/129
f 109/1/139 108/2/140 4/4/130
f 108/2/140 3/3/131 4/4/130
f 108/1/140 107/2/141 2/3/132
f 108/1/140 2/3/132 3/4/131
f 1/3/133 2/4/132 106/2/142
f 2/4/132 107/1/141 106/2/142
f 9/3/125 1/4/133 114/2/134
f 1/4/133 106/1/142 114/2/134
