# Blender3D v249 OBJ File: letters.blend
# www.blender3d.org
mtllib I.mtl
v -0.048117 0.238132 0.020000
v -0.048117 -0.238132 0.020000
v -0.097444 -0.238132 0.020000
v -0.097444 -0.282795 0.020000
v 0.097444 -0.282795 0.020000
v 0.097444 -0.238132 0.020000
v 0.053722 -0.238132 0.020000
v 0.053722 0.238132 0.020000
v 0.097444 0.238132 0.020000
v 0.097444 0.282795 0.020000
v -0.097444 0.282795 0.020000
v -0.097444 0.238132 0.020000
v -0.048117 0.238132 -0.020000
v -0.048117 -0.238132 -0.020000
v -0.097444 -0.238132 -0.020000
v -0.097444 -0.282795 -0.020000
v 0.097444 -0.282795 -0.020000
v 0.097444 -0.238132 -0.020000
v 0.053722 -0.238132 -0.020000
v 0.053722 0.238132 -0.020000
v 0.097444 0.238132 -0.020000
v 0.097444 0.282795 -0.020000
v -0.097444 0.282795 -0.020000
v -0.097444 0.238132 -0.020000
v -0.038117 0.248132 -0.030000
v -0.038117 -0.248132 -0.030000
v -0.087444 -0.248132 -0.030000
v -0.087444 -0.272795 -0.030000
v 0.087444 -0.272795 -0.030000
v 0.087444 -0.248132 -0.030000
v 0.043722 -0.248132 -0.030000
v 0.043722 0.248132 -0.030000
v 0.087444 0.248132 -0.030000
v 0.087444 0.272795 -0.030000
v -0.087444 0.272795 -0.030000
v -0.087444 0.248132 -0.030000
v -0.038117 0.248132 0.030000
v -0.038117 -0.248132 0.030000
v -0.087444 -0.248132 0.030000
v -0.087444 -0.272795 0.030000
v 0.087444 -0.272795 0.030000
v 0.087444 -0.248132 0.030000
v 0.043722 -0.248132 0.030000
v 0.043722 0.248132 0.030000
v 0.087444 0.248132 0.030000
v 0.087444 0.272795 0.030000
v -0.087444 0.272795 0.030000
v -0.087444 0.248132 0.030000
vn 0.000000 0.000000 1.000000
vn 0.000000 0.000000 0.000000
vn -0.574511 -0.644215 -0.504807
vn -0.644215 0.574511 -0.504807
vn -0.729576 0.364788 -0.578478
vn -0.445875 -0.891781 -0.076479
vn 0.574511 0.644215 -0.504807
vn 0.445875 0.891781 -0.076479
vn 0.773675 -0.487869 -0.404157
vn 0.521867 -0.521867 -0.674734
vn 0.478195 -0.676290 -0.560259
vn 0.610126 -0.610126 0.505448
vn 0.644215 0.574511 -0.504807
vn 0.781793 0.390881 0.485733
vn 0.644215 -0.574511 -0.504807
vn 0.729576 -0.364788 -0.578478
vn -0.287942 -0.575915 0.765069
vn -0.773675 0.487869 -0.404157
vn -0.521867 0.521867 -0.674734
vn -0.478195 0.676290 -0.560259
vn -0.255043 0.255043 0.932676
vn -0.644215 -0.574511 -0.504807
vn -0.729576 -0.364788 -0.578478
vn -0.773675 -0.487869 0.404157
vn -0.574511 0.644215 0.504807
vn 0.644215 0.574511 0.504807
vn 0.574511 -0.644215 0.504807
vn 0.644215 -0.574511 0.504807
vn 0.478195 0.676290 0.560259
vn 0.773675 0.487869 0.404157
vn -0.644215 -0.574511 0.504807
vn -0.644215 0.574511 0.504807
vn -0.478195 -0.676290 0.560259
vn -0.270577 -0.270577 0.923856
vn -0.202063 0.404157 0.892056
vn 0.320353 0.160161 0.933622
vn 0.202063 -0.404157 0.892056
vn 0.320353 -0.160161 0.933622
vn 0.156224 0.156224 0.975280
vn 0.270577 0.270577 0.923856
vn -0.223670 -0.111820 0.968200
vn -0.223670 0.111820 0.968200
usemtl (null)
s off
f 28//1 29//1 30//1
f 28//1 30//1 31//1
f 28//1 31//1 26//1
f 28//1 26//1 27//1
f 26//1 31//1 32//1
f 32//2 33//2 25//2
f 26//1 32//1 25//1
f 25//2 33//2 36//2
f 36//1 33//1 34//1
f 36//1 34//1 35//1
f 40//1 41//1 42//1
f 40//1 42//1 43//1
f 40//1 43//1 38//1
f 40//1 38//1 39//1
f 38//1 43//1 44//1
f 44//2 45//2 37//2
f 38//1 44//1 37//1
f 37//2 45//2 48//2
f 48//1 45//1 46//1
f 48//1 46//1 47//1
s 1
f 24//3 23//4 35//5
f 24//3 35//5 36//6
f 23//4 22//7 34//8
f 23//4 34//8 35//5
f 22//7 21//9 33//10
f 22//7 33//10 34//8
f 21//9 20//11 33//10
f 20//11 32//12 33//10
f 20//11 19//13 31//14
f 20//11 31//14 32//12
f 19//13 18//7 30//8
f 19//13 30//8 31//14
f 18//7 17//15 29//16
f 18//7 29//16 30//8
f 17//15 16//3 28//17
f 17//15 28//17 29//16
f 16//3 15//18 27//19
f 16//3 27//19 28//17
f 15//18 14//20 27//19
f 14//20 26//21 27//19
f 14//20 13//22 25//23
f 14//20 25//23 26//21
f 13//22 24//3 36//6
f 13//22 36//6 25//23
f 12//24 11//25 23//4
f 12//24 23//4 24//3
f 11//25 10//26 22//7
f 11//25 22//7 23//4
f 10//26 9//27 21//9
f 10//26 21//9 22//7
f 9//27 8//28 20//11
f 9//27 20//11 21//9
f 8//28 7//29 19//13
f 8//28 19//13 20//11
f 7//29 6//30 18//7
f 7//29 18//7 19//13
f 6//30 5//27 17//15
f 6//30 17//15 18//7
f 5//27 4//31 16//3
f 5//27 16//3 17//15
f 4//31 3//25 15//18
f 4//31 15//18 16//3
f 3//25 2//32 14//20
f 3//25 14//20 15//18
f 2//32 1//33 13//22
f 2//32 13//22 14//20
f 1//33 12//24 24//3
f 1//33 24//3 13//22
f 48//34 47//35 11//25
f 48//34 11//25 12//24
f 47//35 46//36 10//26
f 47//35 10//26 11//25
f 46//36 45//37 9//27
f 46//36 9//27 10//26
f 45//37 44//38 8//28
f 45//37 8//28 9//27
f 44//38 43//39 7//29
f 44//38 7//29 8//28
f 43//39 42//40 7//29
f 42//40 6//30 7//29
f 42//40 41//37 5//27
f 42//40 5//27 6//30
f 41//37 40//41 4//31
f 41//37 4//31 5//27
f 40//41 39//35 3//25
f 40//41 3//25 4//31
f 39//35 38//42 2//32
f 39//35 2//32 3//25
f 1//33 2//32 38//42
f 1//33 38//42 37//34
f 12//24 1//33 48//34
f 1//33 37//34 48//34
