# Blender3D v249 OBJ File: letters.blend
# www.blender3d.org
mtllib J.mtl
v -0.041503 -0.317807 0.020000
v -0.063355 -0.372379 0.020000
v -0.108519 -0.396064 0.020000
v -0.091049 -0.433591 0.020000
v -0.035277 -0.421815 0.020000
v 0.004175 -0.400783 0.020000
v 0.033103 -0.369139 0.020000
v 0.052408 -0.328548 0.020000
v 0.063864 -0.280135 0.020000
v 0.067786 -0.224083 0.020000
v 0.067786 0.244592 0.020000
v 0.108519 0.244592 0.020000
v 0.108519 0.289256 0.020000
v -0.075532 0.289256 0.020000
v -0.075532 0.244592 0.020000
v -0.034053 0.244592 0.020000
v -0.034053 -0.221851 0.020000
v -0.041503 -0.317807 -0.020000
v -0.063355 -0.372379 -0.020000
v -0.108519 -0.396064 -0.020000
v -0.091049 -0.433591 -0.020000
v -0.035277 -0.421815 -0.020000
v 0.004175 -0.400783 -0.020000
v 0.033103 -0.369139 -0.020000
v 0.052408 -0.328548 -0.020000
v 0.063864 -0.280135 -0.020000
v 0.067786 -0.224083 -0.020000
v 0.067786 0.244592 -0.020000
v 0.108519 0.244592 -0.020000
v 0.108519 0.289256 -0.020000
v -0.075532 0.289256 -0.020000
v -0.075532 0.244592 -0.020000
v -0.034053 0.244592 -0.020000
v -0.034053 -0.221851 -0.020000
v -0.031651 -0.320105 -0.030000
v -0.055443 -0.379522 -0.030000
v -0.095428 -0.400490 -0.030000
v -0.085338 -0.422164 -0.030000
v -0.038730 -0.412324 -0.030000
v -0.002046 -0.392767 -0.030000
v 0.024714 -0.363495 -0.030000
v 0.042921 -0.325212 -0.030000
v 0.053945 -0.278625 -0.030000
v 0.057786 -0.223734 -0.030000
v 0.057786 0.254592 -0.030000
v 0.098518 0.254592 -0.030000
v 0.098518 0.279256 -0.030000
v -0.065532 0.279256 -0.030000
v -0.065532 0.254592 -0.030000
v -0.024053 0.254592 -0.030000
v -0.024053 -0.222239 -0.030000
v -0.031651 -0.320105 0.030000
v -0.055443 -0.379522 0.030000
v -0.095428 -0.400490 0.030000
v -0.085338 -0.422164 0.030000
v -0.038730 -0.412324 0.030000
v -0.002046 -0.392767 0.030000
v 0.024714 -0.363495 0.030000
v 0.042921 -0.325212 0.030000
v 0.053945 -0.278625 0.030000
v 0.057786 -0.223734 0.030000
v 0.057786 0.254592 0.030000
v 0.098518 0.254592 0.030000
v 0.098518 0.279256 0.030000
v -0.065532 0.279256 0.030000
v -0.065532 0.254592 0.030000
v -0.024053 0.254592 0.030000
v -0.024053 -0.222239 0.030000
vn -0.000000 0.000000 1.000000
vn 0.000000 0.000000 0.000000
vn -0.951170 0.045228 -0.305277
vn -0.676290 -0.478195 -0.560259
vn -0.997406 0.038636 0.060579
vn -0.653279 -0.653279 -0.382672
vn -0.574511 -0.644215 -0.504807
vn -0.445875 -0.891781 -0.076479
vn -0.644215 0.574511 -0.504807
vn -0.729576 0.364788 -0.578478
vn 0.574511 0.644215 -0.504837
vn 0.445875 0.891781 -0.076479
vn 0.773675 -0.487869 -0.404157
vn 0.521867 -0.521867 -0.674734
vn 0.478195 -0.676290 -0.560259
vn 0.610126 -0.610126 0.505448
vn 0.923276 -0.030396 -0.382855
vn 0.923551 -0.021485 0.382855
vn 0.913541 -0.134739 -0.383740
vn 0.990692 -0.123447 -0.057253
vn 0.872677 -0.300912 -0.384503
vn 0.881191 -0.275246 0.384289
vn 0.769646 -0.508347 -0.386273
vn 0.854976 -0.515397 -0.057649
vn 0.611896 -0.728080 -0.308939
vn 0.611927 -0.788507 0.061403
vn 0.327433 -0.836146 -0.439985
vn 0.315378 -0.866909 0.385937
vn -0.358928 -0.807917 -0.467299
vn -0.170049 -0.819941 -0.546556
vn -0.911863 0.103702 -0.397137
vn -0.943968 0.319193 0.083529
vn -0.620624 0.635914 -0.458693
vn -0.338847 0.305887 0.889706
vn -0.896298 0.217353 -0.386456
vn -0.716178 0.206000 0.666768
vn -0.951811 0.028504 0.305277
vn -0.478195 -0.676290 0.560259
vn -0.773675 -0.487869 0.404157
vn -0.478195 0.676290 0.560259
vn 0.773675 0.487869 0.404157
vn 0.574511 -0.644215 0.504837
vn 0.676290 -0.478195 0.560259
vn 0.922788 -0.043001 0.382855
vn 0.908841 -0.163732 0.383618
vn 0.859523 -0.336863 0.384289
vn 0.738823 -0.552416 0.385876
vn 0.553423 -0.773461 0.308939
vn 0.286386 -0.851070 0.439985
vn -0.588733 -0.667837 0.455367
vn -0.787683 0.470931 0.397137
vn -0.695853 0.552568 0.458693
vn -0.907834 0.163549 0.386029
vn -0.435987 0.016877 0.899777
vn -0.270577 -0.270577 0.923856
vn -0.270577 0.270577 0.923856
vn 0.270577 0.270577 0.923856
vn 0.202063 -0.404157 0.892056
vn 0.198737 -0.198737 0.959655
vn 0.382397 -0.008881 0.923948
vn 0.453078 -0.056429 0.889676
vn 0.363720 -0.113590 0.924528
vn 0.388897 -0.234443 0.890927
vn 0.264504 -0.340831 0.902127
vn 0.129704 -0.356548 0.925199
vn -0.097903 -0.472121 0.876064
vn -0.313852 0.106113 0.943510
vn -0.176641 0.159490 0.971252
vn -0.311808 0.089663 0.945891
usemtl (null)
s off
f 38//1 39//1 37//1
f 37//1 39//1 40//1
f 37//1 40//1 36//1
f 36//1 40//1 41//1
f 36//1 41//1 42//1
f 36//1 42//1 35//1
f 35//1 42//1 43//1
f 35//1 43//1 44//1
f 35//1 44//1 51//1
f 51//1 44//1 45//1
f 45//2 46//2 50//2
f 51//1 45//1 50//1
f 50//2 46//2 49//2
f 49//1 46//1 47//1
f 49//1 47//1 48//1
f 55//1 56//1 54//1
f 54//1 56//1 57//1
f 54//1 57//1 53//1
f 53//1 57//1 58//1
f 53//1 58//1 59//1
f 53//1 59//1 52//1
f 52//1 59//1 60//1
f 52//1 60//1 61//1
f 52//1 61//1 68//1
f 68//1 61//1 62//1
f 62//2 63//2 67//2
f 68//1 62//1 67//1
f 67//2 63//2 66//2
f 66//1 63//1 64//1
f 66//1 64//1 65//1
s 1
f 34//3 33//4 51//5
f 33//4 50//6 51//5
f 33//4 32//7 49//8
f 33//4 49//8 50//6
f 32//7 31//9 48//10
f 32//7 48//10 49//8
f 31//9 30//11 47//12
f 31//9 47//12 48//10
f 30//11 29//13 46//14
f 30//11 46//14 47//12
f 29//13 28//15 46//14
f 28//15 45//16 46//14
f 28//15 27//17 44//18
f 28//15 44//18 45//16
f 27//17 26//19 43//20
f 27//17 43//20 44//18
f 26//19 25//21 42//22
f 26//19 42//22 43//20
f 25//21 24//23 41//24
f 25//21 41//24 42//22
f 24//23 23//25 40//26
f 24//23 40//26 41//24
f 23//25 22//27 40//26
f 22//27 39//28 40//26
f 22//27 21//29 38//30
f 22//27 38//30 39//28
f 21//29 20//31 37//32
f 21//29 37//32 38//30
f 20//31 19//33 37//32
f 19//33 36//34 37//32
f 19//33 18//35 35//36
f 19//33 35//36 36//34
f 18//35 34//3 51//5
f 18//35 51//5 35//36
f 17//37 16//38 33//4
f 17//37 33//4 34//3
f 16//38 15//39 32//7
f 16//38 32//7 33//4
f 15//39 14//40 31//9
f 15//39 31//9 32//7
f 14//40 13//41 30//11
f 14//40 30//11 31//9
f 13//41 12//42 29//13
f 13//41 29//13 30//11
f 12//42 11//43 28//15
f 12//42 28//15 29//13
f 11//43 10//44 27//17
f 11//43 27//17 28//15
f 10//44 9//45 26//19
f 10//44 26//19 27//17
f 9//45 8//46 25//21
f 9//45 25//21 26//19
f 8//46 7//47 24//23
f 8//46 24//23 25//21
f 7//47 6//48 23//25
f 7//47 23//25 24//23
f 6//48 5//49 22//27
f 6//48 22//27 23//25
f 5//49 4//50 21//29
f 5//49 21//29 22//27
f 4//50 3//51 20//31
f 4//50 20//31 21//29
f 3//51 2//52 19//33
f 3//51 19//33 20//31
f 2//52 1//53 18//35
f 2//52 18//35 19//33
f 1//53 17//37 34//3
f 1//53 34//3 18//35
f 68//54 67//55 16//38
f 68//54 16//38 17//37
f 67//55 66//55 16//38
f 66//55 15//39 16//38
f 66//55 65//56 14//40
f 66//55 14//40 15//39
f 65//56 64//57 14//40
f 64//57 13//41 14//40
f 64//57 63//58 12//42
f 64//57 12//42 13//41
f 63//58 62//59 11//43
f 63//58 11//43 12//42
f 62//59 61//60 11//43
f 61//60 10//44 11//43
f 61//60 60//61 10//44
f 60//61 9//45 10//44
f 60//61 59//62 9//45
f 59//62 8//46 9//45
f 59//62 58//63 8//46
f 58//63 7//47 8//46
f 58//63 57//64 7//47
f 57//64 6//48 7//47
f 57//64 56//65 5//49
f 57//64 5//49 6//48
f 56//65 55//66 5//49
f 55//66 4//50 5//49
f 55//66 54//67 4//50
f 54//67 3//51 4//50
f 54//67 53//68 2//52
f 54//67 2//52 3//51
f 1//53 2//52 52//69
f 2//52 53//68 52//69
f 17//37 1//53 68//54
f 1//53 52//69 68//54
