# Blender3D v249 OBJ File: letters.blend
# www.blender3d.org
mtllib K.mtl
v 0.093513 0.238132 0.020000
v 0.095665 0.238132 0.020000
v -0.101734 0.064698 0.020000
v -0.101734 0.238132 0.020000
v -0.062870 0.238132 0.020000
v -0.062870 0.282795 0.020000
v -0.241689 0.282795 0.020000
v -0.241689 0.238132 0.020000
v -0.203199 0.238132 0.020000
v -0.203199 -0.238132 0.020000
v -0.241689 -0.238132 0.020000
v -0.241689 -0.282795 0.020000
v -0.062870 -0.282795 0.020000
v -0.062870 -0.238132 0.020000
v -0.101734 -0.238132 0.020000
v -0.101734 -0.051072 0.020000
v 0.066839 -0.238132 0.020000
v 0.056891 -0.238132 0.020000
v 0.056891 -0.282795 0.020000
v 0.241689 -0.282795 0.020000
v 0.241689 -0.238132 0.020000
v 0.196558 -0.238132 0.020000
v -0.055744 0.044763 0.020000
v 0.162241 0.238132 0.020000
v 0.211794 0.238132 0.020000
v 0.211794 0.282795 0.020000
v 0.093513 0.282795 0.020000
v 0.093513 0.238132 -0.020000
v 0.095665 0.238132 -0.020000
v -0.101734 0.064698 -0.020000
v -0.101734 0.238132 -0.020000
v -0.062870 0.238132 -0.020000
v -0.062870 0.282795 -0.020000
v -0.241689 0.282795 -0.020000
v -0.241689 0.238132 -0.020000
v -0.203199 0.238132 -0.020000
v -0.203199 -0.238132 -0.020000
v -0.241689 -0.238132 -0.020000
v -0.241689 -0.282795 -0.020000
v -0.062870 -0.282795 -0.020000
v -0.062870 -0.238132 -0.020000
v -0.101734 -0.238132 -0.020000
v -0.101734 -0.051072 -0.020000
v 0.066839 -0.238132 -0.020000
v 0.056891 -0.238132 -0.020000
v 0.056891 -0.282795 -0.020000
v 0.241689 -0.282795 -0.020000
v 0.241689 -0.238132 -0.020000
v 0.196558 -0.238132 -0.020000
v -0.055744 0.044763 -0.020000
v 0.162241 0.238132 -0.020000
v 0.211794 0.238132 -0.020000
v 0.211794 0.282795 -0.020000
v 0.093513 0.282795 -0.020000
v 0.103513 0.248132 -0.030000
v 0.122198 0.248132 -0.030000
v -0.111734 0.042601 -0.030000
v -0.111734 0.248132 -0.030000
v -0.072870 0.248132 -0.030000
v -0.072870 0.272795 -0.030000
v -0.231689 0.272795 -0.030000
v -0.231689 0.248132 -0.030000
v -0.193199 0.248132 -0.030000
v -0.193199 -0.248132 -0.030000
v -0.231689 -0.248132 -0.030000
v -0.231689 -0.272795 -0.030000
v -0.072870 -0.272795 -0.030000
v -0.072870 -0.248132 -0.030000
v -0.111734 -0.248132 -0.030000
v -0.111734 -0.025037 -0.030000
v 0.089313 -0.248132 -0.030000
v 0.066891 -0.248132 -0.030000
v 0.066891 -0.272795 -0.030000
v 0.231689 -0.272795 -0.030000
v 0.231689 -0.248132 -0.030000
v 0.192078 -0.248132 -0.030000
v -0.069880 0.045590 -0.030000
v 0.158445 0.248132 -0.030000
v 0.201794 0.248132 -0.030000
v 0.201794 0.272795 -0.030000
v 0.103513 0.272795 -0.030000
v 0.103513 0.248132 0.030000
v 0.122198 0.248132 0.030000
v -0.111734 0.042601 0.030000
v -0.111734 0.248132 0.030000
v -0.072870 0.248132 0.030000
v -0.072870 0.272795 0.030000
v -0.231689 0.272795 0.030000
v -0.231689 0.248132 0.030000
v -0.193199 0.248132 0.030000
v -0.193199 -0.248132 0.030000
v -0.231689 -0.248132 0.030000
v -0.231689 -0.272795 0.030000
v -0.072870 -0.272795 0.030000
v -0.072870 -0.248132 0.030000
v -0.111734 -0.248132 0.030000
v -0.111734 -0.025037 0.030000
v 0.089313 -0.248132 0.030000
v 0.066891 -0.248132 0.030000
v 0.066891 -0.272795 0.030000
v 0.231689 -0.272795 0.030000
v 0.231689 -0.248132 0.030000
v 0.192078 -0.248132 0.030000
v -0.069880 0.045590 0.030000
v 0.158445 0.248132 0.030000
v 0.201794 0.248132 0.030000
v 0.201794 0.272795 0.030000
v 0.103513 0.272795 0.030000
vn 0.000000 0.000000 1.000000
vn 0.000000 0.000000 0.000000
vn -0.644215 0.574511 -0.504807
vn 0.574511 0.644215 -0.504837
vn 0.445875 0.891781 -0.076479
vn -0.729545 0.364788 -0.578478
vn 0.773675 -0.487869 -0.404157
vn 0.521867 -0.521867 -0.674734
vn 0.214881 -0.889859 -0.402387
vn 0.468581 -0.881314 -0.060549
vn 0.806391 -0.187780 -0.560747
vn 0.861080 -0.050356 0.505936
vn 0.393506 0.821192 -0.413190
vn 0.303171 0.473525 0.826930
vn 0.445875 0.891781 -0.076510
vn 0.644215 -0.574511 -0.504807
vn 0.729545 -0.364788 -0.578478
vn -0.574511 -0.644215 -0.504837
vn -0.287942 -0.575915 0.765069
vn -0.773675 0.487869 -0.404157
vn -0.521867 0.521867 -0.674734
vn -0.377789 0.676656 -0.631947
vn -0.755577 -0.172338 0.631947
vn -0.033540 -0.628163 -0.777337
vn 0.068972 -0.179632 0.981292
vn 0.644215 0.574511 -0.504837
vn 0.781793 0.390881 0.485733
vn -0.478195 0.676290 -0.560259
vn -0.150639 0.150639 0.977020
vn -0.644215 -0.574511 -0.504807
vn -0.729545 -0.364788 -0.578478
vn -0.445875 -0.891781 -0.076479
vn 0.390881 -0.781793 -0.485733
vn 0.891781 -0.445906 -0.076510
vn 0.678152 0.380200 -0.628895
vn -0.056185 0.263741 0.962920
vn -0.622578 0.041627 -0.781426
vn -0.719840 -0.271310 -0.638874
vn -0.574511 0.644215 0.504837
vn 0.644215 0.574511 0.504807
vn 0.574511 -0.644215 0.504837
vn 0.342967 -0.847530 0.404981
vn 0.822779 0.092471 0.560747
vn 0.245949 0.878506 0.409528
vn 0.773675 0.487869 0.404157
vn -0.644215 -0.574511 0.504807
vn -0.673818 0.201697 0.710807
vn 0.445418 -0.444166 0.777337
vn 0.390881 0.781793 0.485733
vn -0.644215 0.574511 0.504837
vn -0.478195 -0.676290 0.560259
vn -0.773675 -0.487869 0.404157
vn 0.644215 -0.574511 0.504807
vn 0.208777 0.676778 0.705924
vn -0.440230 -0.442183 0.781426
vn -0.202063 0.404157 0.892056
vn 0.320353 0.160161 0.933622
vn 0.202063 -0.404157 0.892056
vn 0.204871 -0.385327 0.899716
vn 0.280251 -0.016388 0.959777
vn 0.142888 0.223182 0.964232
vn 0.270577 0.270577 0.923856
vn -0.223670 -0.111820 0.968200
vn -0.200720 -0.045778 0.978545
vn 0.033418 -0.087039 0.995636
vn 0.263833 0.131901 0.955473
vn -0.170904 0.085452 0.981567
vn -0.270577 -0.270577 0.923856
vn 0.320353 -0.160161 0.933622
vn -0.027619 0.129643 0.991150
vn -0.189306 -0.071352 0.979308
usemtl (null)
s off
f 73//1 74//1 75//1
f 73//1 75//1 76//1
f 73//1 76//1 71//1
f 73//1 71//1 72//1
f 66//1 67//1 68//1
f 66//1 68//1 69//1
f 66//1 69//1 64//1
f 66//1 64//1 65//1
f 71//1 76//1 70//1
f 64//1 69//1 70//1
f 70//1 76//1 57//1
f 64//1 70//1 57//1
f 57//1 76//1 77//1
f 57//1 77//1 78//1
f 78//2 79//2 56//2
f 57//1 78//1 56//1
f 56//2 79//2 55//2
f 64//1 57//1 58//1
f 58//2 59//2 63//2
f 64//1 58//1 63//1
f 63//2 59//2 62//2
f 55//1 79//1 80//1
f 55//1 80//1 81//1
f 62//1 59//1 60//1
f 62//1 60//1 61//1
f 100//1 101//1 102//1
f 100//1 102//1 103//1
f 100//1 103//1 98//1
f 100//1 98//1 99//1
f 93//1 94//1 95//1
f 93//1 95//1 96//1
f 93//1 96//1 91//1
f 93//1 91//1 92//1
f 98//1 103//1 97//1
f 91//1 96//1 97//1
f 97//1 103//1 84//1
f 91//1 97//1 84//1
f 84//1 103//1 104//1
f 84//1 104//1 105//1
f 105//2 106//2 83//2
f 84//1 105//1 83//1
f 83//2 106//2 82//2
f 91//1 84//1 85//1
f 85//2 86//2 90//2
f 91//1 85//1 90//1
f 90//2 86//2 89//2
f 82//1 106//1 107//1
f 82//1 107//1 108//1
f 89//1 86//1 87//1
f 89//1 87//1 88//1
s 1
f 54//3 53//4 80//5
f 54//3 80//5 81//6
f 53//4 52//7 79//8
f 53//4 79//8 80//5
f 52//7 51//9 79//8
f 51//9 78//10 79//8
f 51//9 50//11 78//10
f 50//11 77//12 78//10
f 50//11 49//13 76//14
f 50//11 76//14 77//12
f 49//13 48//4 75//15
f 49//13 75//15 76//14
f 48//4 47//16 74//17
f 48//4 74//17 75//15
f 47//16 46//18 73//19
f 47//16 73//19 74//17
f 46//18 45//20 72//21
f 46//18 72//21 73//19
f 45//20 44//22 72//21
f 44//22 71//23 72//21
f 44//22 43//24 71//23
f 43//24 70//25 71//23
f 43//24 42//26 69//27
f 43//24 69//27 70//25
f 42//26 41//4 68//15
f 42//26 68//15 69//27
f 41//4 40//16 67//17
f 41//4 67//17 68//15
f 40//16 39//18 66//19
f 40//16 66//19 67//17
f 39//18 38//20 65//21
f 39//18 65//21 66//19
f 38//20 37//28 65//21
f 37//28 64//29 65//21
f 37//28 36//30 63//31
f 37//28 63//31 64//29
f 36//30 35//18 62//32
f 36//30 62//32 63//31
f 35//18 34//3 61//6
f 35//18 61//6 62//32
f 34//3 33//4 60//5
f 34//3 60//5 61//6
f 33//4 32//7 59//8
f 33//4 59//8 60//5
f 32//7 31//33 59//8
f 31//33 58//34 59//8
f 31//33 30//35 58//34
f 30//35 57//36 58//34
f 30//35 29//37 57//36
f 29//37 56//38 57//36
f 29//37 28//18 55//32
f 29//37 55//32 56//38
f 28//18 54//3 81//6
f 28//18 81//6 55//32
f 27//39 26//40 53//4
f 27//39 53//4 54//3
f 26//40 25//41 52//7
f 26//40 52//7 53//4
f 25//41 24//42 51//9
f 25//41 51//9 52//7
f 24//42 23//43 50//11
f 24//42 50//11 51//9
f 23//43 22//44 49//13
f 23//43 49//13 50//11
f 22//44 21//45 48//4
f 22//44 48//4 49//13
f 21//45 20//41 47//16
f 21//45 47//16 48//4
f 20//41 19//46 46//18
f 20//41 46//18 47//16
f 19//46 18//39 45//20
f 19//46 45//20 46//18
f 18//39 17//47 44//22
f 18//39 44//22 45//20
f 17//47 16//48 43//24
f 17//47 43//24 44//22
f 16//48 15//49 42//26
f 16//48 42//26 43//24
f 15//49 14//45 41//4
f 15//49 41//4 42//26
f 14//45 13//41 40//16
f 14//45 40//16 41//4
f 13//41 12//46 39//18
f 13//41 39//18 40//16
f 12//46 11//39 38//20
f 12//46 38//20 39//18
f 11//39 10//50 37//28
f 11//39 37//28 38//20
f 10//50 9//51 36//30
f 10//50 36//30 37//28
f 9//51 8//52 35//18
f 9//51 35//18 36//30
f 8//52 7//39 34//3
f 8//52 34//3 35//18
f 7//39 6//40 33//4
f 7//39 33//4 34//3
f 6//40 5//41 32//7
f 6//40 32//7 33//4
f 5//41 4//53 31//33
f 5//41 31//33 32//7
f 4//53 3//54 30//35
f 4//53 30//35 31//33
f 3//54 2//55 29//37
f 3//54 29//37 30//35
f 2//55 1//52 28//18
f 2//55 28//18 29//37
f 1//52 27//39 54//3
f 1//52 54//3 28//18
f 108//56 107//57 26//40
f 108//56 26//40 27//39
f 107//57 106//58 25//41
f 107//57 25//41 26//40
f 106//58 105//59 24//42
f 106//58 24//42 25//41
f 105//59 104//60 23//43
f 105//59 23//43 24//42
f 104//60 103//61 23//43
f 103//61 22//44 23//43
f 103//61 102//62 22//44
f 102//62 21//45 22//44
f 102//62 101//58 20//41
f 102//62 20//41 21//45
f 101//58 100//63 19//46
f 101//58 19//46 20//41
f 100//63 99//56 18//39
f 100//63 18//39 19//46
f 99//56 98//64 17//47
f 99//56 17//47 18//39
f 98//64 97//65 16//48
f 98//64 16//48 17//47
f 97//65 96//66 16//48
f 96//66 15//49 16//48
f 96//66 95//62 15//49
f 95//62 14//45 15//49
f 95//62 94//58 13//41
f 95//62 13//41 14//45
f 94//58 93//63 12//46
f 94//58 12//46 13//41
f 93//63 92//56 11//39
f 93//63 11//39 12//46
f 92//56 91//67 10//50
f 92//56 10//50 11//39
f 91//67 90//68 9//51
f 91//67 9//51 10//50
f 90//68 89//68 9//51
f 89//68 8//52 9//51
f 89//68 88//56 7//39
f 89//68 7//39 8//52
f 88//56 87//57 6//40
f 88//56 6//40 7//39
f 87//57 86//58 5//41
f 87//57 5//41 6//40
f 86//58 85//69 4//53
f 86//58 4//53 5//41
f 85//69 84//70 3//54
f 85//69 3//54 4//53
f 84//70 83//71 2//55
f 84//70 2//55 3//54
f 1//52 2//55 82//68
f 2//55 83//71 82//68
f 27//39 1//52 82//68
f 27//39 82//68 108//56
