# Blender3D v249 OBJ File: letters.blend
# www.blender3d.org
mtllib O.mtl
v -0.195210 -0.160495 0.020000
v -0.122019 -0.259348 0.020000
v -0.000000 -0.292309 0.020000
v 0.122018 -0.259348 0.020000
v 0.195209 -0.160496 0.020000
v 0.219003 0.000190 0.020000
v 0.195165 0.160672 0.020000
v 0.121841 0.259396 0.020000
v -0.000379 0.292309 0.020000
v -0.122187 0.259390 0.020000
v -0.195251 0.160661 0.020000
v -0.219003 0.000187 0.020000
v -0.195210 -0.160495 -0.020000
v -0.122019 -0.259348 -0.020000
v -0.000000 -0.292309 -0.020000
v 0.122018 -0.259348 -0.020000
v 0.195209 -0.160496 -0.020000
v 0.219003 0.000190 -0.020000
v 0.195165 0.160672 -0.020000
v 0.121841 0.259396 -0.020000
v -0.000379 0.292309 -0.020000
v -0.122187 0.259390 -0.020000
v -0.195251 0.160661 -0.020000
v -0.219003 0.000187 -0.020000
v 0.102833 -0.140019 0.020000
v 0.063095 -0.220550 0.020000
v -0.000003 -0.246124 0.020000
v -0.063308 -0.220504 0.020000
v -0.103166 -0.139849 0.020000
v -0.117007 0.000188 0.020000
v -0.103207 0.140020 0.020000
v -0.063469 0.220550 0.020000
v -0.000371 0.246125 0.020000
v 0.062933 0.220505 0.020000
v 0.102792 0.139850 0.020000
v 0.116632 -0.000187 0.020000
v 0.102833 -0.140019 -0.020000
v 0.063095 -0.220550 -0.020000
v -0.000003 -0.246124 -0.020000
v -0.063308 -0.220504 -0.020000
v -0.103166 -0.139849 -0.020000
v -0.117007 0.000188 -0.020000
v -0.103207 0.140020 -0.020000
v -0.063469 0.220550 -0.020000
v -0.000371 0.246125 -0.020000
v 0.062933 0.220505 -0.020000
v 0.102792 0.139850 -0.020000
v 0.116632 -0.000187 -0.020000
v -0.185684 -0.156556 -0.030000
v -0.116053 -0.250602 -0.030000
v -0.000000 -0.281950 -0.030000
v 0.116052 -0.250602 -0.030000
v 0.185683 -0.156556 -0.030000
v 0.208894 0.000187 -0.030000
v 0.185642 0.156723 -0.030000
v 0.115886 0.250644 -0.030000
v -0.000374 0.281951 -0.030000
v -0.116219 0.250644 -0.030000
v -0.185725 0.156723 -0.030000
v -0.208894 0.000187 -0.030000
v 0.112606 -0.142812 -0.030000
v 0.070378 -0.228388 -0.030000
v -0.000000 -0.256913 -0.030000
v -0.070587 -0.228346 -0.030000
v -0.112938 -0.142646 -0.030000
v -0.127056 0.000187 -0.030000
v -0.112980 0.142813 -0.030000
v -0.070753 0.228389 -0.030000
v -0.000374 0.256914 -0.030000
v 0.070212 0.228347 -0.030000
v 0.112564 0.142647 -0.030000
v 0.126681 -0.000186 -0.030000
v -0.185684 -0.156556 0.030000
v -0.116053 -0.250602 0.030000
v -0.000000 -0.281950 0.030000
v 0.116052 -0.250602 0.030000
v 0.185683 -0.156556 0.030000
v 0.208894 0.000187 0.030000
v 0.185642 0.156723 0.030000
v 0.115886 0.250644 0.030000
v -0.000374 0.281951 0.030000
v -0.116219 0.250644 0.030000
v -0.185725 0.156723 0.030000
v -0.208894 0.000187 0.030000
v 0.112606 -0.142812 0.030000
v 0.070378 -0.228388 0.030000
v -0.000000 -0.256913 0.030000
v -0.070587 -0.228346 0.030000
v -0.112938 -0.142646 0.030000
v -0.127056 0.000187 0.030000
v -0.112980 0.142813 0.030000
v -0.070753 0.228389 0.030000
v -0.000374 0.256914 0.030000
v 0.070212 0.228347 0.030000
v 0.112564 0.142647 0.030000
v 0.126681 -0.000186 0.030000
vn -0.000000 0.000000 1.000000
vn -0.951659 0.021210 -0.306375
vn -0.900052 -0.199438 -0.387432
vn -0.998138 -0.000061 0.060823
vn -0.869289 -0.306925 0.387432
vn -0.702231 -0.587207 -0.402478
vn -0.533372 -0.743950 0.402478
vn -0.061190 -0.884243 -0.462935
vn 0.000092 -0.452132 0.891934
vn 0.607624 -0.683126 -0.405103
vn 0.533769 -0.743675 0.402478
vn 0.883480 -0.262459 -0.387982
vn 0.869442 -0.306528 0.387402
vn 0.951659 -0.021210 -0.306375
vn 0.998138 0.000061 0.060823
vn 0.900052 0.199438 -0.387432
vn 0.941343 0.332347 -0.057924
vn 0.702231 0.587207 -0.402478
vn 0.533372 0.743950 0.402478
vn 0.061190 0.884243 -0.462935
vn -0.000092 0.452132 0.891934
vn -0.607624 0.683126 -0.405103
vn -0.533769 0.743675 0.402478
vn -0.883480 0.262459 -0.387982
vn -0.941496 0.331950 -0.057924
vn -0.951659 -0.021332 0.306375
vn -0.883358 -0.262795 0.388012
vn -0.607257 -0.683462 0.405072
vn 0.061647 -0.884213 0.462935
vn 0.702567 -0.586810 0.402478
vn 0.900113 -0.199194 0.387402
vn 0.951659 0.021332 0.306375
vn 0.883358 0.262795 0.388012
vn 0.607257 0.683462 0.405072
vn -0.061647 0.884213 0.462935
vn -0.702567 0.586810 0.402478
vn -0.900113 0.199194 0.387402
vn -0.434858 -0.000031 0.900479
vn -0.356395 -0.125828 0.925810
vn -0.211798 -0.295419 0.931578
vn 0.000031 -0.235298 0.971892
vn 0.211951 -0.295297 0.931578
vn 0.356456 -0.125675 0.925810
vn 0.434858 0.000031 0.900479
vn 0.426588 0.150609 0.891781
vn 0.211798 0.295419 0.931578
vn -0.000031 0.235298 0.971892
vn -0.211951 0.295297 0.931578
vn -0.426679 0.150426 0.891781
vn -0.897549 -0.022828 -0.440291
vn -0.854854 0.339183 -0.392621
vn -0.876614 0.279672 0.391522
vn -0.661550 0.000000 0.749870
vn -0.593799 0.738060 -0.320322
vn -0.562487 0.824274 0.064089
vn -0.041719 0.892697 -0.448683
vn -0.000397 0.918973 0.394238
vn 0.469832 0.822565 -0.320292
vn 0.561418 0.825007 0.064089
vn 0.817621 0.422040 -0.391552
vn 0.876339 0.280465 0.391552
vn 0.897519 0.023041 -0.440321
vn 0.661519 0.000122 0.749901
vn 0.854793 -0.339274 -0.392651
vn 0.704642 -0.224891 0.672933
vn 0.593646 -0.738182 -0.320322
vn 0.562365 -0.824396 0.064089
vn 0.041353 -0.892697 -0.448714
vn 0.000000 -0.918973 0.394269
vn -0.470687 -0.822077 -0.320322
vn -0.562365 -0.824396 0.064089
vn -0.818110 -0.421125 -0.391522
vn -0.704642 -0.224891 0.672933
vn -0.897549 0.022767 0.440291
vn -0.818201 0.420972 0.391522
vn -0.470809 0.821986 0.320322
vn 0.040895 0.892727 0.448683
vn 0.592761 0.738914 0.320292
vn 0.854457 0.340098 0.392682
vn 0.897549 -0.022614 0.440321
vn 0.818110 -0.421125 0.391522
vn 0.470687 -0.822077 0.320322
vn -0.041353 -0.892697 0.448714
vn -0.593646 -0.738182 0.320322
vn -0.854793 -0.339274 0.392621
vn -0.302103 0.000000 0.953246
vn -0.356273 0.113651 0.927427
vn -0.234840 0.344127 0.909055
vn -0.000153 0.371319 0.928495
vn 0.234413 0.344493 0.909024
vn 0.356120 0.113956 0.927427
vn 0.302072 0.000061 0.953246
vn 0.304514 -0.097171 0.947508
vn 0.234779 -0.344188 0.909055
vn 0.000000 -0.371288 0.928495
vn -0.234779 -0.344188 0.909055
vn -0.304514 -0.097171 0.947508
usemtl (null)
s off
f 63//1 51//1 52//1
f 51//1 63//1 50//1
f 63//1 52//1 62//1
f 50//1 63//1 64//1
f 62//1 52//1 53//1
f 50//1 64//1 49//1
f 62//1 53//1 61//1
f 49//1 64//1 65//1
f 61//1 53//1 72//1
f 72//1 53//1 54//1
f 49//1 65//1 66//1
f 49//1 66//1 60//1
f 72//1 54//1 71//1
f 60//1 66//1 67//1
f 71//1 54//1 55//1
f 60//1 67//1 59//1
f 71//1 55//1 70//1
f 59//1 67//1 68//1
f 70//1 55//1 56//1
f 59//1 68//1 58//1
f 70//1 56//1 69//1
f 58//1 68//1 69//1
f 69//1 56//1 57//1
f 58//1 69//1 57//1
f 87//1 75//1 76//1
f 75//1 87//1 74//1
f 87//1 76//1 86//1
f 74//1 87//1 88//1
f 86//1 76//1 77//1
f 74//1 88//1 73//1
f 86//1 77//1 85//1
f 73//1 88//1 89//1
f 85//1 77//1 96//1
f 96//1 77//1 78//1
f 73//1 89//1 90//1
f 73//1 90//1 84//1
f 96//1 78//1 95//1
f 84//1 90//1 91//1
f 95//1 78//1 79//1
f 84//1 91//1 83//1
f 95//1 79//1 94//1
f 83//1 91//1 92//1
f 94//1 79//1 80//1
f 83//1 92//1 82//1
f 94//1 80//1 93//1
f 82//1 92//1 93//1
f 93//1 80//1 81//1
f 82//1 93//1 81//1
s 1
f 48//2 47//3 72//4
f 47//3 71//5 72//4
f 47//3 46//6 71//5
f 46//6 70//7 71//5
f 46//6 45//8 70//7
f 45//8 69//9 70//7
f 45//8 44//10 68//11
f 45//8 68//11 69//9
f 44//10 43//12 67//13
f 44//10 67//13 68//11
f 43//12 42//14 66//15
f 43//12 66//15 67//13
f 42//14 41//16 66//15
f 41//16 65//17 66//15
f 41//16 40//18 65//17
f 40//18 64//19 65//17
f 40//18 39//20 64//19
f 39//20 63//21 64//19
f 39//20 38//22 62//23
f 39//20 62//23 63//21
f 38//22 37//24 61//25
f 38//22 61//25 62//23
f 37//24 48//2 72//4
f 37//24 72//4 61//25
f 36//26 35//27 47//3
f 36//26 47//3 48//2
f 35//27 34//28 46//6
f 35//27 46//6 47//3
f 34//28 33//29 45//8
f 34//28 45//8 46//6
f 33//29 32//30 44//10
f 33//29 44//10 45//8
f 32//30 31//31 43//12
f 32//30 43//12 44//10
f 31//31 30//32 42//14
f 31//31 42//14 43//12
f 30//32 29//33 41//16
f 30//32 41//16 42//14
f 29//33 28//34 40//18
f 29//33 40//18 41//16
f 28//34 27//35 39//20
f 28//34 39//20 40//18
f 27//35 26//36 38//22
f 27//35 38//22 39//20
f 26//36 25//37 37//24
f 26//36 37//24 38//22
f 25//37 36//26 48//2
f 25//37 48//2 37//24
f 96//38 95//39 35//27
f 96//38 35//27 36//26
f 95//39 94//40 34//28
f 95//39 34//28 35//27
f 94//40 93//41 33//29
f 94//40 33//29 34//28
f 93//41 92//42 33//29
f 92//42 32//30 33//29
f 92//42 91//43 32//30
f 91//43 31//31 32//30
f 91//43 90//44 31//31
f 90//44 30//32 31//31
f 90//44 89//45 29//33
f 90//44 29//33 30//32
f 89//45 88//46 28//34
f 89//45 28//34 29//33
f 88//46 87//47 27//35
f 88//46 27//35 28//34
f 87//47 86//48 27//35
f 86//48 26//36 27//35
f 86//48 85//49 26//36
f 85//49 25//37 26//36
f 85//49 96//38 25//37
f 96//38 36//26 25//37
f 24//50 23//51 59//52
f 24//50 59//52 60//53
f 23//51 22//54 58//55
f 23//51 58//55 59//52
f 22//54 21//56 58//55
f 21//56 57//57 58//55
f 21//56 20//58 56//59
f 21//56 56//59 57//57
f 20//58 19//60 56//59
f 19//60 55//61 56//59
f 19//60 18//62 55//61
f 18//62 54//63 55//61
f 18//62 17//64 53//65
f 18//62 53//65 54//63
f 17//64 16//66 52//67
f 17//64 52//67 53//65
f 16//66 15//68 52//67
f 15//68 51//69 52//67
f 15//68 14//70 50//71
f 15//68 50//71 51//69
f 14//70 13//72 50//71
f 13//72 49//73 50//71
f 13//72 24//50 49//73
f 24//50 60//53 49//73
f 12//74 11//75 23//51
f 12//74 23//51 24//50
f 11//75 10//76 22//54
f 11//75 22//54 23//51
f 10//76 9//77 21//56
f 10//76 21//56 22//54
f 9//77 8//78 20//58
f 9//77 20//58 21//56
f 8//78 7//79 19//60
f 8//78 19//60 20//58
f 7//79 6//80 18//62
f 7//79 18//62 19//60
f 6//80 5//81 17//64
f 6//80 17//64 18//62
f 5//81 4//82 16//66
f 5//81 16//66 17//64
f 4//82 3//83 15//68
f 4//82 15//68 16//66
f 3//83 2//84 14//70
f 3//83 14//70 15//68
f 2//84 1//85 13//72
f 2//84 13//72 14//70
f 1//85 12//74 24//50
f 1//85 24//50 13//72
f 84//86 83//87 12//74
f 83//87 11//75 12//74
f 83//87 82//88 11//75
f 82//88 10//76 11//75
f 82//88 81//89 9//77
f 82//88 9//77 10//76
f 81//89 80//90 9//77
f 80//90 8//78 9//77
f 80//90 79//91 7//79
f 80//90 7//79 8//78
f 79//91 78//92 6//80
f 79//91 6//80 7//79
f 78//92 77//93 6//80
f 77//93 5//81 6//80
f 77//93 76//94 5//81
f 76//94 4//82 5//81
f 76//94 75//95 3//83
f 76//94 3//83 4//82
f 75//95 74//96 3//83
f 74//96 2//84 3//83
f 1//85 2//84 74//96
f 1//85 74//96 73//97
f 12//74 1//85 73//97
f 12//74 73//97 84//86
