# Blender3D v249 OBJ File: letters.blend
# www.blender3d.org
mtllib P.mtl
v -0.027605 -0.282795 0.020000
v -0.027605 -0.238132 0.020000
v -0.069085 -0.238132 0.020000
v -0.069085 -0.023827 0.020000
v 0.041039 -0.023827 0.020000
v 0.083242 -0.019238 0.020000
v 0.122257 -0.005220 0.020000
v 0.157324 0.018159 0.020000
v 0.186555 0.050579 0.020000
v 0.204277 0.088169 0.020000
v 0.210162 0.130439 0.020000
v 0.203708 0.175441 0.020000
v 0.184161 0.214130 0.020000
v 0.151938 0.245730 0.020000
v 0.115219 0.266449 0.020000
v 0.073682 0.278766 0.020000
v 0.027856 0.282795 0.020000
v -0.210162 0.282795 0.020000
v -0.210162 0.238132 0.020000
v -0.171298 0.238132 0.020000
v -0.171298 -0.238409 0.020000
v -0.210162 -0.238035 0.020000
v -0.210162 -0.282795 0.020000
v -0.027605 -0.282795 -0.020000
v -0.027605 -0.238132 -0.020000
v -0.069085 -0.238132 -0.020000
v -0.069085 -0.023827 -0.020000
v 0.041039 -0.023827 -0.020000
v 0.083242 -0.019238 -0.020000
v 0.122257 -0.005220 -0.020000
v 0.157324 0.018159 -0.020000
v 0.186555 0.050579 -0.020000
v 0.204277 0.088169 -0.020000
v 0.210162 0.130439 -0.020000
v 0.203708 0.175441 -0.020000
v 0.184161 0.214130 -0.020000
v 0.151938 0.245730 -0.020000
v 0.115219 0.266449 -0.020000
v 0.073682 0.278766 -0.020000
v 0.027856 0.282795 -0.020000
v -0.210162 0.282795 -0.020000
v -0.210162 0.238132 -0.020000
v -0.171298 0.238132 -0.020000
v -0.171298 -0.238409 -0.020000
v -0.210162 -0.238035 -0.020000
v -0.210162 -0.282795 -0.020000
v 0.015509 0.238502 0.020000
v 0.041715 0.234726 0.020000
v 0.063658 0.223810 0.020000
v 0.082688 0.205231 0.020000
v 0.096383 0.182785 0.020000
v 0.104647 0.157765 0.020000
v 0.107419 0.130118 0.020000
v 0.104720 0.106661 0.020000
v 0.096550 0.083071 0.020000
v 0.082785 0.059302 0.020000
v 0.064126 0.038081 0.020000
v 0.045006 0.026023 0.020000
v 0.024207 0.021958 0.020000
v -0.069085 0.021958 0.020000
v -0.069085 0.238171 0.020000
v 0.015509 0.238502 -0.020000
v 0.041715 0.234726 -0.020000
v 0.063658 0.223810 -0.020000
v 0.082688 0.205231 -0.020000
v 0.096383 0.182785 -0.020000
v 0.104647 0.157765 -0.020000
v 0.107419 0.130118 -0.020000
v 0.104720 0.106661 -0.020000
v 0.096550 0.083071 -0.020000
v 0.082785 0.059302 -0.020000
v 0.064126 0.038081 -0.020000
v 0.045006 0.026023 -0.020000
v 0.024207 0.021958 -0.020000
v -0.069085 0.021958 -0.020000
v -0.069085 0.238171 -0.020000
v -0.037605 -0.272795 -0.030000
v -0.037605 -0.248132 -0.030000
v -0.079085 -0.248132 -0.030000
v -0.079085 -0.013827 -0.030000
v 0.040496 -0.013827 -0.030000
v 0.080979 -0.009425 -0.030000
v 0.117726 0.003778 -0.030000
v 0.150735 0.025785 -0.030000
v 0.178140 0.056178 -0.030000
v 0.194582 0.091056 -0.030000
v 0.200063 0.130419 -0.030000
v 0.194042 0.172397 -0.030000
v 0.175981 0.208146 -0.030000
v 0.145877 0.237668 -0.030000
v 0.111290 0.257183 -0.030000
v 0.071804 0.268892 -0.030000
v 0.027417 0.272795 -0.030000
v -0.200161 0.272795 -0.030000
v -0.200161 0.248132 -0.030000
v -0.161297 0.248132 -0.030000
v -0.161297 -0.248505 -0.030000
v -0.200161 -0.248132 -0.030000
v -0.200161 -0.272795 -0.030000
v 0.016206 0.248505 -0.030000
v 0.044731 0.244395 -0.030000
v 0.069520 0.232063 -0.030000
v 0.090571 0.211510 -0.030000
v 0.105518 0.187012 -0.030000
v 0.114487 0.159857 -0.030000
v 0.117477 0.130045 -0.030000
v 0.114529 0.104426 -0.030000
v 0.105685 0.078891 -0.030000
v 0.090945 0.053438 -0.030000
v 0.070682 0.030394 -0.030000
v 0.048759 0.016567 -0.030000
v 0.025175 0.011958 -0.030000
v -0.079085 0.011958 -0.030000
v -0.079085 0.248132 -0.030000
v -0.037605 -0.272795 0.030000
v -0.037605 -0.248132 0.030000
v -0.079085 -0.248132 0.030000
v -0.079085 -0.013827 0.030000
v 0.040496 -0.013827 0.030000
v 0.080979 -0.009425 0.030000
v 0.117726 0.003778 0.030000
v 0.150735 0.025785 0.030000
v 0.178140 0.056178 0.030000
v 0.194582 0.091056 0.030000
v 0.200063 0.130419 0.030000
v 0.194042 0.172397 0.030000
v 0.175981 0.208146 0.030000
v 0.145877 0.237668 0.030000
v 0.111290 0.257183 0.030000
v 0.071804 0.268892 0.030000
v 0.027417 0.272795 0.030000
v -0.200161 0.272795 0.030000
v -0.200161 0.248132 0.030000
v -0.161297 0.248132 0.030000
v -0.161297 -0.248505 0.030000
v -0.200161 -0.248132 0.030000
v -0.200161 -0.272795 0.030000
v 0.016206 0.248505 0.030000
v 0.044731 0.244395 0.030000
v 0.069520 0.232063 0.030000
v 0.090571 0.211510 0.030000
v 0.105518 0.187012 0.030000
v 0.114487 0.159857 0.030000
v 0.117477 0.130045 0.030000
v 0.114529 0.104426 0.030000
v 0.105685 0.078891 0.030000
v 0.090945 0.053438 0.030000
v 0.070682 0.030394 0.030000
v 0.048759 0.016567 0.030000
v 0.025175 0.011958 0.030000
v -0.079085 0.011958 0.030000
v -0.079085 0.248132 0.030000
vn 0.000000 0.000000 1.000000
vn 0.000000 0.000000 0.000000
vn 0.393475 -0.780847 -0.485153
vn 0.676290 0.478195 -0.560259
vn 0.782403 -0.390423 0.485153
vn 0.377148 0.377148 0.845851
vn -0.070894 0.949278 -0.306314
vn -0.096164 0.993500 0.060823
vn -0.303903 0.843684 -0.442488
vn -0.243171 0.612690 0.751946
vn -0.592730 0.706809 -0.386029
vn -0.610523 0.789880 -0.057619
vn -0.746666 0.542955 -0.384228
vn -0.731681 0.563066 0.384075
vn -0.856777 0.414838 -0.306284
vn -0.907620 0.415326 0.060823
vn -0.872280 0.216071 -0.438643
vn -0.899991 0.205023 0.384625
vn -0.951353 0.030152 -0.306589
vn -0.998108 0.007294 0.060884
vn -0.909391 -0.158757 -0.384411
vn -0.895321 -0.224891 0.384411
vn -0.851955 -0.355327 -0.384564
vn -0.822260 -0.419446 0.384564
vn -0.745293 -0.544359 -0.384930
vn -0.754234 -0.654073 -0.057466
vn -0.572680 -0.723075 -0.386212
vn -0.494003 -0.778954 0.386212
vn -0.290750 -0.849086 -0.440962
vn -0.274575 -0.880276 0.386853
vn -0.082034 -0.948546 -0.305795
vn -0.064211 -0.921262 0.383557
vn 0.645528 -0.573687 0.504105
vn 0.478195 0.676290 0.560259
vn -0.112461 0.945250 0.306314
vn -0.357372 0.822474 0.442488
vn -0.631733 0.672414 0.385662
vn -0.767052 0.513871 0.384075
vn -0.874020 0.377178 0.306284
vn -0.879788 0.183050 0.438643
vn -0.951689 -0.016236 0.306589
vn -0.901639 -0.197607 0.384625
vn -0.835047 -0.393109 0.384808
vn -0.717673 -0.580096 0.385205
vn -0.527177 -0.756645 0.386639
vn -0.243568 -0.863826 0.440962
vn -0.050356 -0.950743 0.305795
vn 0.264321 -0.131901 0.955351
vn 0.156224 0.156224 0.975280
vn -0.041902 0.432905 0.900449
vn -0.110782 0.279183 0.953795
vn -0.277841 0.359478 0.890805
vn -0.302164 0.232521 0.924436
vn -0.395520 0.180975 0.900418
vn -0.371197 0.084567 0.924680
vn -0.434523 0.003174 0.900632
vn -0.369457 -0.092807 0.924589
vn -0.339183 -0.173009 0.924650
vn -0.343852 -0.298196 0.890408
vn -0.203040 -0.320170 0.925321
vn -0.112705 -0.361339 0.925565
vn -0.026551 -0.380871 0.924223
vn -0.574511 -0.644215 -0.504837
vn -0.771783 0.489639 -0.405652
vn -0.518204 0.523209 -0.676504
vn -0.445875 -0.891781 -0.076479
vn -0.473190 0.678365 -0.561998
vn -0.105136 0.106143 0.988769
vn -0.644215 -0.574511 -0.504807
vn -0.729545 -0.364788 -0.578478
vn -0.215278 -0.430586 0.876461
vn -0.773675 0.487869 -0.404157
vn -0.521867 0.521867 -0.674734
vn 0.032655 0.898892 -0.436903
vn 0.040468 0.922849 0.382977
vn 0.167302 0.907895 -0.384320
vn 0.153569 0.986450 -0.057344
vn 0.354747 0.852107 -0.384747
vn 0.328013 0.862850 0.384533
vn 0.548906 0.741661 -0.385479
vn 0.421766 0.615436 0.665822
vn 0.746208 0.589831 -0.308634
vn 0.744224 0.544298 0.387097
vn 0.863216 0.324686 -0.386517
vn 0.893460 0.228584 0.386547
vn 0.897671 0.023591 -0.439985
vn 0.661885 0.001343 0.749565
vn 0.920591 -0.239937 -0.308115
vn 0.883938 -0.263222 0.386425
vn 0.792261 -0.472701 -0.385815
vn 0.741997 -0.548204 0.385815
vn 0.631947 -0.672628 -0.384930
vn 0.463942 -0.584613 0.665548
vn 0.448286 -0.806787 -0.384808
vn 0.308298 -0.679800 0.665426
vn 0.242836 -0.890500 -0.384716
vn 0.185614 -0.980926 -0.057436
vn 0.066622 -0.921293 -0.383099
vn 0.031861 -0.883236 -0.467788
vn 0.478195 -0.676290 -0.560259
vn 0.150639 -0.150639 0.977020
vn 0.644215 0.574511 -0.504837
vn 0.891781 0.445906 -0.076510
vn 0.574511 0.644215 -0.504837
vn 0.445875 0.891781 -0.076510
vn 0.644215 -0.574511 -0.504807
vn 0.891781 -0.445906 -0.076510
vn -0.676290 -0.478195 0.560259
vn -0.482192 0.776452 0.405652
vn -0.673788 0.479690 0.561998
vn -0.390881 -0.781793 0.485733
vn -0.773675 -0.487869 0.404157
vn -0.574511 0.644215 0.504837
vn 0.046175 0.898312 0.436903
vn 0.202826 0.900693 0.384136
vn 0.392102 0.835688 0.384503
vn 0.586383 0.712577 0.385174
vn 0.788171 0.532426 0.308634
vn 0.882015 0.268715 0.387005
vn 0.897763 -0.019898 0.439985
vn 0.901852 -0.302774 0.308115
vn 0.763573 -0.517441 0.386181
vn 0.598285 -0.702597 0.385205
vn 0.409284 -0.827143 0.385083
vn 0.201239 -0.900693 0.384960
vn 0.047121 -0.922452 0.383160
vn 0.644215 -0.574511 0.504837
vn 0.773675 0.487869 0.404157
vn 0.574511 -0.644215 0.504837
vn -0.198737 -0.198737 0.959655
vn -0.324595 0.327708 0.887234
vn -0.073946 0.074679 0.994446
vn -0.404157 -0.202063 0.892056
vn -0.175024 -0.175024 0.968871
vn -0.202063 0.404157 0.892056
vn 0.016755 0.382000 0.924009
vn 0.070132 0.450575 0.889950
vn 0.135319 0.355968 0.924619
vn 0.183844 0.268258 0.945616
vn 0.305338 0.223304 0.925657
vn 0.367016 0.093875 0.925443
vn 0.302347 0.000610 0.953185
vn 0.363170 -0.108158 0.925413
vn 0.305277 -0.225532 0.925138
vn 0.202277 -0.254891 0.945555
vn 0.134434 -0.296457 0.945524
vn 0.084658 -0.447432 0.890286
vn 0.020234 -0.561205 0.827387
vn 0.170904 -0.085452 0.981567
vn 0.198737 0.198737 0.959655
vn 0.270577 0.270577 0.923856
vn 0.160161 -0.320353 0.933622
usemtl (null)
s off
f 99//1 77//1 97//1
f 97//1 77//1 78//1
f 97//1 78//1 79//1
f 99//1 97//1 98//1
f 97//1 79//1 80//1
f 80//1 81//1 82//1
f 80//1 82//1 83//1
f 80//1 83//1 112//1
f 80//1 112//1 113//1
f 97//1 80//1 113//1
f 112//1 83//1 111//1
f 111//1 83//1 84//1
f 111//1 84//1 110//1
f 110//1 84//1 109//1
f 109//1 84//1 85//1
f 109//1 85//1 108//1
f 108//1 85//1 86//1
f 108//1 86//1 107//1
f 107//1 86//1 106//1
f 106//1 86//1 87//1
f 106//1 87//1 105//1
f 105//1 87//1 88//1
f 105//1 88//1 104//1
f 104//1 88//1 89//1
f 104//1 89//1 103//1
f 103//1 89//1 102//1
f 102//1 89//1 90//1
f 102//1 90//1 101//1
f 97//1 113//1 114//1
f 97//1 114//1 96//1
f 96//2 114//2 95//2
f 101//1 90//1 100//1
f 95//1 114//1 100//1
f 100//1 90//1 91//1
f 95//1 100//1 91//1
f 95//1 91//1 92//1
f 95//1 92//1 93//1
f 95//1 93//1 94//1
f 137//1 115//1 135//1
f 135//1 115//1 116//1
f 135//1 116//1 117//1
f 137//1 135//1 136//1
f 135//1 117//1 118//1
f 118//1 119//1 120//1
f 118//1 120//1 121//1
f 118//1 121//1 150//1
f 118//1 150//1 151//1
f 135//1 118//1 151//1
f 150//1 121//1 149//1
f 149//1 121//1 122//1
f 149//1 122//1 148//1
f 148//1 122//1 147//1
f 147//1 122//1 123//1
f 147//1 123//1 146//1
f 146//1 123//1 124//1
f 146//1 124//1 145//1
f 145//1 124//1 144//1
f 144//1 124//1 125//1
f 144//1 125//1 143//1
f 143//1 125//1 126//1
f 143//1 126//1 142//1
f 142//1 126//1 127//1
f 142//1 127//1 141//1
f 141//1 127//1 140//1
f 140//1 127//1 128//1
f 140//1 128//1 139//1
f 135//1 151//1 152//1
f 135//1 152//1 134//1
f 134//2 152//2 133//2
f 139//1 128//1 138//1
f 133//1 152//1 138//1
f 138//1 128//1 129//1
f 133//1 138//1 129//1
f 133//1 129//1 130//1
f 133//1 130//1 131//1
f 133//1 131//1 132//1
s 1
f 76//3 75//4 114//5
f 75//4 113//6 114//5
f 75//4 74//7 112//8
f 75//4 112//8 113//6
f 74//7 73//9 112//8
f 73//9 111//10 112//8
f 73//9 72//11 110//12
f 73//9 110//12 111//10
f 72//11 71//13 109//14
f 72//11 109//14 110//12
f 71//13 70//15 108//16
f 71//13 108//16 109//14
f 70//15 69//17 108//16
f 69//17 107//18 108//16
f 69//17 68//19 106//20
f 69//17 106//20 107//18
f 68//19 67//21 106//20
f 67//21 105//22 106//20
f 67//21 66//23 105//22
f 66//23 104//24 105//22
f 66//23 65//25 104//24
f 65//25 103//26 104//24
f 65//25 64//27 103//26
f 64//27 102//28 103//26
f 64//27 63//29 102//28
f 63//29 101//30 102//28
f 63//29 62//31 100//32
f 63//29 100//32 101//30
f 62//31 76//3 100//32
f 76//3 114//5 100//32
f 61//33 60//34 75//4
f 61//33 75//4 76//3
f 60//34 59//35 74//7
f 60//34 74//7 75//4
f 59//35 58//36 73//9
f 59//35 73//9 74//7
f 58//36 57//37 72//11
f 58//36 72//11 73//9
f 57//37 56//38 71//13
f 57//37 71//13 72//11
f 56//38 55//39 70//15
f 56//38 70//15 71//13
f 55//39 54//40 69//17
f 55//39 69//17 70//15
f 54//40 53//41 68//19
f 54//40 68//19 69//17
f 53//41 52//42 67//21
f 53//41 67//21 68//19
f 52//42 51//43 66//23
f 52//42 66//23 67//21
f 51//43 50//44 65//25
f 51//43 65//25 66//23
f 50//44 49//45 64//27
f 50//44 64//27 65//25
f 49//45 48//46 63//29
f 49//45 63//29 64//27
f 48//46 47//47 62//31
f 48//46 62//31 63//29
f 47//47 61//33 76//3
f 47//47 76//3 62//31
f 152//48 151//49 60//34
f 152//48 60//34 61//33
f 151//49 150//50 60//34
f 150//50 59//35 60//34
f 150//50 149//51 58//36
f 150//50 58//36 59//35
f 149//51 148//52 58//36
f 148//52 57//37 58//36
f 148//52 147//53 57//37
f 147//53 56//38 57//37
f 147//53 146//54 56//38
f 146//54 55//39 56//38
f 146//54 145//55 54//40
f 146//54 54//40 55//39
f 145//55 144//56 54//40
f 144//56 53//41 54//40
f 144//56 143//57 52//42
f 144//56 52//42 53//41
f 143//57 142//58 51//43
f 143//57 51//43 52//42
f 142//58 141//59 50//44
f 142//58 50//44 51//43
f 141//59 140//60 49//45
f 141//59 49//45 50//44
f 140//60 139//61 48//46
f 140//60 48//46 49//45
f 139//61 138//62 48//46
f 138//62 47//47 48//46
f 138//62 152//48 61//33
f 138//62 61//33 47//47
f 46//63 45//64 98//65
f 46//63 98//65 99//66
f 45//64 44//67 98//65
f 44//67 97//68 98//65
f 44//67 43//69 96//70
f 44//67 96//70 97//68
f 43//69 42//63 95//71
f 43//69 95//71 96//70
f 42//63 41//72 94//73
f 42//63 94//73 95//71
f 41//72 40//74 94//73
f 40//74 93//75 94//73
f 40//74 39//76 92//77
f 40//74 92//77 93//75
f 39//76 38//78 91//79
f 39//76 91//79 92//77
f 38//78 37//80 90//81
f 38//78 90//81 91//79
f 37//80 36//82 89//83
f 37//80 89//83 90//81
f 36//82 35//84 89//83
f 35//84 88//85 89//83
f 35//84 34//86 88//85
f 34//86 87//87 88//85
f 34//86 33//88 86//89
f 34//86 86//89 87//87
f 33//88 32//90 86//89
f 32//90 85//91 86//89
f 32//90 31//92 85//91
f 31//92 84//93 85//91
f 31//92 30//94 84//93
f 30//94 83//95 84//93
f 30//94 29//96 83//95
f 29//96 82//97 83//95
f 29//96 28//98 82//97
f 28//98 81//99 82//97
f 28//98 27//100 81//99
f 27//100 80//101 81//99
f 27//100 26//102 79//103
f 27//100 79//103 80//101
f 26//102 25//104 78//105
f 26//102 78//105 79//103
f 25//104 24//106 77//107
f 25//104 77//107 78//105
f 24//106 46//63 99//66
f 24//106 99//66 77//107
f 23//108 22//109 45//64
f 23//108 45//64 46//63
f 22//109 21//110 44//67
f 22//109 44//67 45//64
f 21//110 20//111 43//69
f 21//110 43//69 44//67
f 20//111 19//112 42//63
f 20//111 42//63 43//69
f 19//112 18//113 41//72
f 19//112 41//72 42//63
f 18//113 17//114 40//74
f 18//113 40//74 41//72
f 17//114 16//115 39//76
f 17//114 39//76 40//74
f 16//115 15//116 38//78
f 16//115 38//78 39//76
f 15//116 14//117 37//80
f 15//116 37//80 38//78
f 14//117 13//118 36//82
f 14//117 36//82 37//80
f 13//118 12//119 35//84
f 13//118 35//84 36//82
f 12//119 11//120 34//86
f 12//119 34//86 35//84
f 11//120 10//121 33//88
f 11//120 33//88 34//86
f 10//121 9//122 32//90
f 10//121 32//90 33//88
f 9//122 8//123 31//92
f 9//122 31//92 32//90
f 8//123 7//124 30//94
f 8//123 30//94 31//92
f 7//124 6//125 29//96
f 7//124 29//96 30//94
f 6//125 5//126 28//98
f 6//125 28//98 29//96
f 5//126 4//127 27//100
f 5//126 27//100 28//98
f 4//127 3//34 26//102
f 4//127 26//102 27//100
f 3//34 2//128 25//104
f 3//34 25//104 26//102
f 2//128 1//129 24//106
f 2//128 24//106 25//104
f 1//129 23//108 46//63
f 1//129 46//63 24//106
f 137//130 136//131 23//108
f 136//131 22//109 23//108
f 136//131 135//132 21//110
f 136//131 21//110 22//109
f 135//132 134//133 21//110
f 134//133 20//111 21//110
f 134//133 133//134 20//111
f 133//134 19//112 20//111
f 133//134 132//135 18//113
f 133//134 18//113 19//112
f 132//135 131//136 17//114
f 132//135 17//114 18//113
f 131//136 130//137 17//114
f 130//137 16//115 17//114
f 130//137 129//138 16//115
f 129//138 15//116 16//115
f 129//138 128//139 15//116
f 128//139 14//117 15//116
f 128//139 127//140 14//117
f 127//140 13//118 14//117
f 127//140 126//141 12//119
f 127//140 12//119 13//118
f 126//141 125//142 11//120
f 126//141 11//120 12//119
f 125//142 124//143 11//120
f 124//143 10//121 11//120
f 124//143 123//144 9//122
f 124//143 9//122 10//121
f 123//144 122//145 8//123
f 123//144 8//123 9//122
f 122//145 121//146 7//124
f 122//145 7//124 8//123
f 121//146 120//147 6//125
f 121//146 6//125 7//124
f 120//147 119//148 5//126
f 120//147 5//126 6//125
f 119//148 118//149 4//127
f 119//148 4//127 5//126
f 118//149 117//150 3//34
f 118//149 3//34 4//127
f 117//150 116//151 3//34
f 116//151 2//128 3//34
f 1//129 2//128 116//151
f 1//129 116//151 115//152
f 23//108 1//129 115//152
f 23//108 115//152 137//130
