# Blender3D v249 OBJ File: letters.blend
# www.blender3d.org
mtllib W.mtl
v 0.030366 0.238132 0.020000
v 0.030366 0.282795 0.020000
v -0.141727 0.282795 0.020000
v -0.141727 0.238132 0.020000
v -0.100515 0.238132 0.020000
v -0.025252 0.005177 0.020000
v -0.066962 -0.128640 0.020000
v -0.056040 -0.128640 0.020000
v -0.173337 0.238132 0.020000
v -0.146017 0.238132 0.020000
v -0.146017 0.282795 0.020000
v -0.318110 0.282795 0.020000
v -0.318110 0.238132 0.020000
v -0.276904 0.238132 0.020000
v -0.109117 -0.282795 0.020000
v -0.063083 -0.282795 0.020000
v 0.006424 -0.059701 0.020000
v -0.004486 -0.059701 0.020000
v 0.067263 -0.282795 0.020000
v 0.113293 -0.282795 0.020000
v 0.276223 0.238505 0.020000
v 0.318109 0.238505 0.020000
v 0.318109 0.282795 0.020000
v 0.196091 0.282795 0.020000
v 0.196091 0.238132 0.020000
v 0.224241 0.238132 0.020000
v 0.109432 -0.128266 0.020000
v 0.120348 -0.128266 0.020000
v 0.084409 -0.015561 0.020000
v 0.060615 0.058939 0.020000
v 0.052155 0.085251 0.020000
v 0.099850 0.238505 0.020000
v 0.141726 0.238505 0.020000
v 0.141726 0.282795 0.020000
v 0.019708 0.282795 0.020000
v 0.019708 0.238132 0.020000
v 0.047717 0.238132 0.020000
v 0.025872 0.170757 0.020000
v 0.003568 0.238132 0.020000
v 0.030366 0.238132 -0.020000
v 0.030366 0.282795 -0.020000
v -0.141727 0.282795 -0.020000
v -0.141727 0.238132 -0.020000
v -0.100515 0.238132 -0.020000
v -0.025252 0.005177 -0.020000
v -0.066962 -0.128640 -0.020000
v -0.056040 -0.128640 -0.020000
v -0.173337 0.238132 -0.020000
v -0.146017 0.238132 -0.020000
v -0.146017 0.282795 -0.020000
v -0.318110 0.282795 -0.020000
v -0.318110 0.238132 -0.020000
v -0.276904 0.238132 -0.020000
v -0.109117 -0.282795 -0.020000
v -0.063083 -0.282795 -0.020000
v 0.006424 -0.059701 -0.020000
v -0.004486 -0.059701 -0.020000
v 0.067263 -0.282795 -0.020000
v 0.113293 -0.282795 -0.020000
v 0.276223 0.238505 -0.020000
v 0.318109 0.238505 -0.020000
v 0.318109 0.282795 -0.020000
v 0.196091 0.282795 -0.020000
v 0.196091 0.238132 -0.020000
v 0.224241 0.238132 -0.020000
v 0.109432 -0.128266 -0.020000
v 0.120348 -0.128266 -0.020000
v 0.084409 -0.015561 -0.020000
v 0.060615 0.058939 -0.020000
v 0.052155 0.085251 -0.020000
v 0.099850 0.238505 -0.020000
v 0.141726 0.238505 -0.020000
v 0.141726 0.282795 -0.020000
v 0.019708 0.282795 -0.020000
v 0.019708 0.238132 -0.020000
v 0.047717 0.238132 -0.020000
v 0.025872 0.170757 -0.020000
v 0.003568 0.238132 -0.020000
v 0.020366 0.248132 -0.030000
v 0.020366 0.272795 -0.030000
v -0.131727 0.272795 -0.030000
v -0.131727 0.248132 -0.030000
v -0.093237 0.248132 -0.030000
v -0.014761 0.005232 -0.030000
v -0.059605 -0.138640 -0.030000
v -0.063341 -0.138640 -0.030000
v -0.187034 0.248132 -0.030000
v -0.156017 0.248132 -0.030000
v -0.156017 0.272795 -0.030000
v -0.308109 0.272795 -0.030000
v -0.308109 0.248132 -0.030000
v -0.269619 0.248132 -0.030000
v -0.101831 -0.272795 -0.030000
v -0.070441 -0.272795 -0.030000
v -0.000935 -0.049701 -0.030000
v 0.002802 -0.049701 -0.030000
v 0.074551 -0.272795 -0.030000
v 0.105941 -0.272795 -0.030000
v 0.268871 0.248505 -0.030000
v 0.308108 0.248505 -0.030000
v 0.308108 0.272795 -0.030000
v 0.206091 0.272795 -0.030000
v 0.206091 0.248132 -0.030000
v 0.237854 0.248132 -0.030000
v 0.116778 -0.138266 -0.030000
v 0.113041 -0.138266 -0.030000
v 0.074883 -0.018602 -0.030000
v 0.051091 0.055888 -0.030000
v 0.041666 0.085202 -0.030000
v 0.092488 0.248505 -0.030000
v 0.131726 0.248505 -0.030000
v 0.131726 0.272795 -0.030000
v 0.029708 0.272795 -0.030000
v 0.029708 0.248132 -0.030000
v 0.061472 0.248132 -0.030000
v 0.025971 0.138640 -0.030000
v -0.010277 0.248132 -0.030000
v 0.020366 0.248132 0.030000
v 0.020366 0.272795 0.030000
v -0.131727 0.272795 0.030000
v -0.131727 0.248132 0.030000
v -0.093237 0.248132 0.030000
v -0.014761 0.005232 0.030000
v -0.059605 -0.138640 0.030000
v -0.063341 -0.138640 0.030000
v -0.187034 0.248132 0.030000
v -0.156017 0.248132 0.030000
v -0.156017 0.272795 0.030000
v -0.308109 0.272795 0.030000
v -0.308109 0.248132 0.030000
v -0.269619 0.248132 0.030000
v -0.101831 -0.272795 0.030000
v -0.070441 -0.272795 0.030000
v -0.000935 -0.049701 0.030000
v 0.002802 -0.049701 0.030000
v 0.074551 -0.272795 0.030000
v 0.105941 -0.272795 0.030000
v 0.268871 0.248505 0.030000
v 0.308108 0.248505 0.030000
v 0.308108 0.272795 0.030000
v 0.206091 0.272795 0.030000
v 0.206091 0.248132 0.030000
v 0.237854 0.248132 0.030000
v 0.116778 -0.138266 0.030000
v 0.113041 -0.138266 0.030000
v 0.074883 -0.018602 0.030000
v 0.051091 0.055888 0.030000
v 0.041666 0.085202 0.030000
v 0.092488 0.248505 0.030000
v 0.131726 0.248505 0.030000
v 0.131726 0.272795 0.030000
v 0.029708 0.272795 0.030000
v 0.029708 0.248132 0.030000
v 0.061472 0.248132 0.030000
v 0.025971 0.138640 0.030000
v -0.010277 0.248132 0.030000
vn 0.000000 0.000000 1.000000
vn 0.000000 0.000000 0.000000
vn 0.412854 -0.733116 -0.540422
vn 0.270486 0.520463 -0.809900
vn 0.977538 -0.191229 -0.088321
vn -0.000793 0.267525 0.963530
vn -0.697623 -0.427839 -0.574664
vn -0.825556 -0.166265 0.539232
vn -0.574511 -0.644215 -0.504837
vn -0.390881 -0.781793 0.485733
vn -0.644215 0.574511 -0.504807
vn -0.729545 0.364788 -0.578478
vn 0.574511 0.644215 -0.504837
vn 0.390881 0.781793 0.485733
vn 0.773675 -0.487869 -0.404157
vn 0.521867 -0.521867 -0.674734
vn 0.418165 -0.749535 -0.513108
vn 0.238929 -0.324625 0.915159
vn 0.917112 -0.012268 -0.398389
vn 0.730827 -0.073580 0.678549
vn 0.906796 0.290811 -0.305094
vn 0.913877 0.292856 -0.281075
vn 0.880123 0.280923 -0.382672
vn 0.713187 0.227546 0.662984
vn 0.917020 0.010498 -0.398663
vn 0.344737 0.471786 0.811487
vn -0.595660 -0.803217 0.000000
vn -0.635121 0.199011 0.746300
vn -0.718589 -0.307291 -0.623829
vn -0.376263 -0.276406 0.884304
vn 0.417890 -0.749809 -0.512955
vn 0.238838 -0.324870 0.915067
vn 0.667135 -0.649281 -0.365123
vn 0.590625 -0.803430 0.075045
vn -0.341533 -0.827387 -0.445814
vn -0.683065 -0.578448 0.445814
vn -0.916868 -0.012757 -0.398907
vn -0.344371 -0.472488 0.811243
vn 0.737449 0.636372 -0.226234
vn 0.200446 -0.062441 0.977691
vn 0.667501 -0.648854 -0.365246
vn 0.556993 -0.756920 -0.341746
vn -0.341441 -0.827448 -0.445753
vn -0.522263 -0.442579 0.728904
vn -0.588061 -0.626270 -0.511795
vn -0.553575 -0.759880 -0.340678
vn -0.445875 -0.891781 -0.076479
vn 0.445875 0.891781 -0.076479
vn 0.508316 -0.592151 -0.625233
vn 0.660878 -0.482467 0.574816
vn 0.962310 -0.065432 -0.263894
vn 0.762108 0.643788 -0.068636
vn -0.737480 -0.636311 -0.226234
vn -0.200415 0.062471 0.977691
vn -0.946013 0.063082 -0.317850
vn -0.542741 -0.002777 0.839869
vn -0.587756 -0.626637 -0.511673
vn -0.553240 -0.760186 -0.340587
vn 0.698172 -0.424726 0.576281
vn -0.273690 0.518784 0.809900
vn -0.412763 -0.734031 0.539232
vn -0.773675 -0.487869 0.404157
vn -0.574511 0.644215 0.504837
vn 0.644215 0.574511 0.504807
vn 0.574511 -0.644215 0.504837
vn 0.591388 -0.622028 0.513108
vn 0.912442 0.100528 0.396619
vn 0.906949 0.290414 0.305094
vn 0.880123 0.280862 0.382672
vn 0.771233 -0.424665 0.474166
vn -0.944578 -0.328227 0.000000
vn -0.508103 -0.593799 0.623829
vn 0.590991 -0.622547 0.512955
vn 0.420698 -0.830439 0.365123
vn -0.553728 -0.696829 0.455794
vn -0.771599 0.423292 0.474776
vn 0.956908 0.202979 0.207556
vn 0.420911 -0.830287 0.365246
vn -0.553575 -0.696982 0.455733
vn -0.415815 -0.751732 0.511795
vn 0.718863 -0.303751 0.625233
vn 0.704001 -0.640797 0.306162
vn -0.956938 -0.202887 0.207587
vn -0.945311 -0.072878 0.317850
vn -0.415601 -0.751946 0.511673
vn 0.309153 -0.060457 0.949065
vn -0.000275 0.099246 0.995056
vn -0.253700 -0.051088 0.965911
vn -0.229499 -0.229499 0.945860
vn -0.202063 0.404157 0.892056
vn 0.263833 0.131901 0.955473
vn 0.202063 -0.404157 0.892056
vn 0.122013 -0.165777 0.978576
vn 0.313700 -0.031587 0.948973
vn 0.481307 0.154241 0.862850
vn 0.311930 0.099521 0.944853
vn 0.147740 0.202185 0.968108
vn -0.291116 0.091220 0.952300
vn -0.150182 -0.110294 0.982482
vn 0.121952 -0.165899 0.978545
vn 0.215674 -0.293374 0.931333
vn -0.248543 -0.210456 0.945463
vn -0.147618 -0.202551 0.968078
vn 0.141820 -0.044160 0.988891
vn 0.252876 -0.343669 0.904386
vn -0.211280 -0.179052 0.960875
vn -0.251961 -0.345866 0.903806
vn -0.270577 -0.270577 0.923856
vn 0.320353 0.160161 0.933622
vn 0.191626 -0.139897 0.971435
vn 0.300485 0.253822 0.919370
vn -0.141820 0.044191 0.988891
vn -0.264504 -0.001343 0.964354
vn -0.251869 -0.346080 0.903745
usemtl (null)
s off
f 93//1 94//1 85//1
f 93//1 85//1 86//1
f 97//1 98//1 105//1
f 97//1 105//1 106//1
f 97//1 106//1 96//1
f 85//1 94//1 95//1
f 96//1 106//1 107//1
f 95//1 96//1 107//1
f 95//1 107//1 84//1
f 85//1 95//1 84//1
f 84//1 107//1 108//1
f 84//1 108//1 109//1
f 84//1 109//1 116//1
f 105//1 98//1 104//1
f 116//1 109//1 115//1
f 84//1 116//1 117//1
f 117//2 79//2 83//2
f 84//1 117//1 83//1
f 83//2 79//2 82//2
f 93//1 86//1 87//1
f 87//2 88//2 92//2
f 93//1 87//1 92//1
f 92//2 88//2 91//2
f 104//1 98//1 99//1
f 103//1 104//1 99//1
f 115//1 109//1 110//1
f 114//1 115//1 110//1
f 99//1 100//1 101//1
f 103//1 99//1 101//1
f 103//1 101//1 102//1
f 110//1 111//1 112//1
f 114//1 110//1 112//1
f 114//1 112//1 113//1
f 82//1 79//1 80//1
f 82//1 80//1 81//1
f 91//1 88//1 89//1
f 91//1 89//1 90//1
f 132//1 133//1 124//1
f 132//1 124//1 125//1
f 136//1 137//1 144//1
f 136//1 144//1 145//1
f 136//1 145//1 135//1
f 124//1 133//1 134//1
f 135//1 145//1 146//1
f 134//1 135//1 146//1
f 134//1 146//1 123//1
f 124//1 134//1 123//1
f 123//1 146//1 147//1
f 123//1 147//1 148//1
f 123//1 148//1 155//1
f 144//1 137//1 143//1
f 155//1 148//1 154//1
f 123//1 155//1 156//1
f 156//2 118//2 122//2
f 123//1 156//1 122//1
f 122//2 118//2 121//2
f 132//1 125//1 126//1
f 126//2 127//2 131//2
f 132//1 126//1 131//1
f 131//2 127//2 130//2
f 143//1 137//1 138//1
f 142//1 143//1 138//1
f 154//1 148//1 149//1
f 153//1 154//1 149//1
f 138//1 139//1 140//1
f 142//1 138//1 140//1
f 142//1 140//1 141//1
f 149//1 150//1 151//1
f 153//1 149//1 151//1
f 153//1 151//1 152//1
f 121//1 118//1 119//1
f 121//1 119//1 120//1
f 130//1 127//1 128//1
f 130//1 128//1 129//1
s 1
f 78//3 77//4 117//5
f 77//4 116//6 117//5
f 77//4 76//7 115//8
f 77//4 115//8 116//6
f 76//7 75//9 114//10
f 76//7 114//10 115//8
f 75//9 74//11 113//12
f 75//9 113//12 114//10
f 74//11 73//13 112//14
f 74//11 112//14 113//12
f 73//13 72//15 111//16
f 73//13 111//16 112//14
f 72//15 71//17 111//16
f 71//17 110//18 111//16
f 71//17 70//19 109//20
f 71//17 109//20 110//18
f 70//19 69//21 108//22
f 70//19 108//22 109//20
f 69//21 68//23 108//22
f 68//23 107//24 108//22
f 68//23 67//25 107//24
f 67//25 106//26 107//24
f 67//25 66//27 105//28
f 67//25 105//28 106//26
f 66//27 65//29 105//28
f 65//29 104//30 105//28
f 65//29 64//9 103//10
f 65//29 103//10 104//30
f 64//9 63//11 102//12
f 64//9 102//12 103//10
f 63//11 62//13 101//14
f 63//11 101//14 102//12
f 62//13 61//15 100//16
f 62//13 100//16 101//14
f 61//15 60//31 100//16
f 60//31 99//32 100//16
f 60//31 59//33 98//34
f 60//31 98//34 99//32
f 59//33 58//35 98//34
f 58//35 97//36 98//34
f 58//35 57//37 97//36
f 57//37 96//38 97//36
f 57//37 56//39 95//40
f 57//37 95//40 96//38
f 56//39 55//41 94//42
f 56//39 94//42 95//40
f 55//41 54//43 94//42
f 54//43 93//44 94//42
f 54//43 53//45 93//44
f 53//45 92//46 93//44
f 53//45 52//9 91//47
f 53//45 91//47 92//46
f 52//9 51//11 90//12
f 52//9 90//12 91//47
f 51//11 50//13 89//48
f 51//11 89//48 90//12
f 50//13 49//15 88//16
f 50//13 88//16 89//48
f 49//15 48//49 88//16
f 48//49 87//50 88//16
f 48//49 47//51 86//52
f 48//49 86//52 87//50
f 47//51 46//53 85//54
f 47//51 85//54 86//52
f 46//53 45//55 84//56
f 46//53 84//56 85//54
f 45//55 44//57 84//56
f 44//57 83//58 84//56
f 44//57 43//9 82//47
f 44//57 82//47 83//58
f 43//9 42//11 81//12
f 43//9 81//12 82//47
f 42//11 41//13 80//48
f 42//11 80//48 81//12
f 41//13 40//15 79//16
f 41//13 79//16 80//48
f 40//15 78//3 79//16
f 78//3 117//5 79//16
f 39//59 38//60 77//4
f 39//59 77//4 78//3
f 38//60 37//61 76//7
f 38//60 76//7 77//4
f 37//61 36//62 75//9
f 37//61 75//9 76//7
f 36//62 35//63 74//11
f 36//62 74//11 75//9
f 35//63 34//64 73//13
f 35//63 73//13 74//11
f 34//64 33//65 72//15
f 34//64 72//15 73//13
f 33//65 32//66 71//17
f 33//65 71//17 72//15
f 32//66 31//67 70//19
f 32//66 70//19 71//17
f 31//67 30//68 69//21
f 31//67 69//21 70//19
f 30//68 29//69 68//23
f 30//68 68//23 69//21
f 29//69 28//70 67//25
f 29//69 67//25 68//23
f 28//70 27//71 66//27
f 28//70 66//27 67//25
f 27//71 26//72 65//29
f 27//71 65//29 66//27
f 26//72 25//62 64//9
f 26//72 64//9 65//29
f 25//62 24//63 63//11
f 25//62 63//11 64//9
f 24//63 23//64 62//13
f 24//63 62//13 63//11
f 23//64 22//65 61//15
f 23//64 61//15 62//13
f 22//65 21//73 60//31
f 22//65 60//31 61//15
f 21//73 20//74 59//33
f 21//73 59//33 60//31
f 20//74 19//75 58//35
f 20//74 58//35 59//33
f 19//75 18//76 57//37
f 19//75 57//37 58//35
f 18//76 17//77 56//39
f 18//76 56//39 57//37
f 17//77 16//78 55//41
f 17//77 55//41 56//39
f 16//78 15//79 54//43
f 16//78 54//43 55//41
f 15//79 14//80 53//45
f 15//79 53//45 54//43
f 14//80 13//62 52//9
f 14//80 52//9 53//45
f 13//62 12//63 51//11
f 13//62 51//11 52//9
f 12//63 11//64 50//13
f 12//63 50//13 51//11
f 11//64 10//65 49//15
f 11//64 49//15 50//13
f 10//65 9//81 48//49
f 10//65 48//49 49//15
f 9//81 8//82 47//51
f 9//81 47//51 48//49
f 8//82 7//83 46//53
f 8//82 46//53 47//51
f 7//83 6//84 45//55
f 7//83 45//55 46//53
f 6//84 5//85 44//57
f 6//84 44//57 45//55
f 5//85 4//62 43//9
f 5//85 43//9 44//57
f 4//62 3//63 42//11
f 4//62 42//11 43//9
f 3//63 2//64 41//13
f 3//63 41//13 42//11
f 2//64 1//65 40//15
f 2//64 40//15 41//13
f 1//65 39//59 78//3
f 1//65 78//3 40//15
f 156//86 155//87 38//60
f 156//86 38//60 39//59
f 155//87 154//88 38//60
f 154//88 37//61 38//60
f 154//88 153//89 37//61
f 153//89 36//62 37//61
f 153//89 152//90 35//63
f 153//89 35//63 36//62
f 152//90 151//91 34//64
f 152//90 34//64 35//63
f 151//91 150//92 33//65
f 151//91 33//65 34//64
f 150//92 149//93 32//66
f 150//92 32//66 33//65
f 149//93 148//94 32//66
f 148//94 31//67 32//66
f 148//94 147//95 31//67
f 147//95 30//68 31//67
f 147//95 146//96 29//69
f 147//95 29//69 30//68
f 146//96 145//97 28//70
f 146//96 28//70 29//69
f 145//97 144//98 28//70
f 144//98 27//71 28//70
f 144//98 143//99 26//72
f 144//98 26//72 27//71
f 143//99 142//89 26//72
f 142//89 25//62 26//72
f 142//89 141//90 24//63
f 142//89 24//63 25//62
f 141//90 140//91 23//64
f 141//90 23//64 24//63
f 140//91 139//92 22//65
f 140//91 22//65 23//64
f 139//92 138//100 21//73
f 139//92 21//73 22//65
f 138//100 137//101 21//73
f 137//101 20//74 21//73
f 137//101 136//102 19//75
f 137//101 19//75 20//74
f 136//102 135//103 18//76
f 136//102 18//76 19//75
f 135//103 134//104 18//76
f 134//104 17//77 18//76
f 134//104 133//105 17//77
f 133//105 16//78 17//77
f 133//105 132//106 15//79
f 133//105 15//79 16//78
f 132//106 131//107 14//80
f 132//106 14//80 15//79
f 131//107 130//108 14//80
f 130//108 13//62 14//80
f 130//108 129//90 12//63
f 130//108 12//63 13//62
f 129//90 128//109 11//64
f 129//90 11//64 12//63
f 128//109 127//92 10//65
f 128//109 10//65 11//64
f 127//92 126//110 9//81
f 127//92 9//81 10//65
f 126//110 125//111 9//81
f 125//111 8//82 9//81
f 125//111 124//112 8//82
f 124//112 7//83 8//82
f 124//112 123//113 7//83
f 123//113 6//84 7//83
f 123//113 122//114 5//85
f 123//113 5//85 6//84
f 122//114 121//108 5//85
f 121//108 4//62 5//85
f 121//108 120//90 3//63
f 121//108 3//63 4//62
f 120//90 119//109 2//64
f 120//90 2//64 3//63
f 1//65 2//64 119//109
f 1//65 119//109 118//92
f 39//59 1//65 118//92
f 39//59 118//92 156//86
