# Blender3D v249 OBJ File: letters.blend
# www.blender3d.org
mtllib Z.mtl
v 0.192923 0.254390 0.020000
v 0.192923 0.282795 0.020000
v -0.195306 0.282795 0.020000
v -0.210930 0.175725 0.020000
v -0.165241 0.175725 0.020000
v -0.154072 0.215753 0.020000
v -0.140733 0.232501 0.020000
v -0.121685 0.238132 0.020000
v 0.075457 0.238132 0.020000
v -0.209739 -0.251035 0.020000
v -0.209739 -0.282795 0.020000
v 0.195306 -0.282795 0.020000
v 0.210930 -0.175725 0.020000
v 0.165241 -0.175725 0.020000
v 0.154072 -0.215753 0.020000
v 0.140733 -0.232501 0.020000
v 0.121685 -0.238132 0.020000
v -0.095232 -0.238132 0.020000
v 0.192923 0.254390 -0.020000
v 0.192923 0.282795 -0.020000
v -0.195306 0.282795 -0.020000
v -0.210930 0.175725 -0.020000
v -0.165241 0.175725 -0.020000
v -0.154072 0.215753 -0.020000
v -0.140733 0.232501 -0.020000
v -0.121685 0.238132 -0.020000
v 0.075457 0.238132 -0.020000
v -0.209739 -0.251035 -0.020000
v -0.209739 -0.282795 -0.020000
v 0.195306 -0.282795 -0.020000
v 0.210930 -0.175725 -0.020000
v 0.165241 -0.175725 -0.020000
v 0.154072 -0.215753 -0.020000
v 0.140733 -0.232501 -0.020000
v 0.121685 -0.238132 -0.020000
v -0.095232 -0.238132 -0.020000
v 0.182922 0.257100 -0.030000
v 0.182922 0.272795 -0.030000
v -0.186659 0.272795 -0.030000
v -0.199365 0.185725 -0.030000
v -0.172832 0.185725 -0.030000
v -0.163158 0.220395 -0.030000
v -0.146591 0.241197 -0.030000
v -0.123132 0.248132 -0.030000
v 0.092862 0.248132 -0.030000
v -0.199739 -0.253737 -0.030000
v -0.199739 -0.272795 -0.030000
v 0.186659 -0.272795 -0.030000
v 0.199365 -0.185725 -0.030000
v 0.172832 -0.185725 -0.030000
v 0.163158 -0.220395 -0.030000
v 0.146591 -0.241197 -0.030000
v 0.123132 -0.248132 -0.030000
v -0.112668 -0.248132 -0.030000
v 0.182922 0.257100 0.030000
v 0.182922 0.272795 0.030000
v -0.186659 0.272795 0.030000
v -0.199365 0.185725 0.030000
v -0.172832 0.185725 0.030000
v -0.163158 0.220395 0.030000
v -0.146591 0.241197 0.030000
v -0.123132 0.248132 0.030000
v 0.092862 0.248132 0.030000
v -0.199739 -0.253737 0.030000
v -0.199739 -0.272795 0.030000
v 0.186659 -0.272795 0.030000
v 0.199365 -0.185725 0.030000
v 0.172832 -0.185725 0.030000
v 0.163158 -0.220395 0.030000
v 0.146591 -0.241197 0.030000
v 0.123132 -0.248132 0.030000
v -0.112668 -0.248132 0.030000
vn 0.000000 0.000000 1.000000
vn 0.711356 0.166570 -0.682760
vn -0.105319 0.945585 -0.307810
vn -0.142918 0.987823 0.061159
vn 0.351787 0.201758 0.914060
vn -0.457411 0.765221 -0.452956
vn -0.512436 0.760704 0.398358
vn -0.815332 0.428571 -0.389264
vn -0.790368 0.473617 0.388531
vn -0.566698 0.682821 -0.461043
vn -0.657277 0.524583 -0.541032
vn 0.511429 0.745018 -0.428175
vn 0.690359 0.596942 -0.408704
vn 0.639973 -0.550707 -0.535783
vn 0.186956 -0.216224 0.958251
vn -0.487869 -0.773675 -0.404157
vn -0.521867 -0.521867 -0.674734
vn -0.905637 0.159276 -0.392956
vn -0.692526 0.255745 0.674520
vn -0.711539 -0.167547 -0.682333
vn -0.352031 -0.202246 0.913846
vn 0.105319 -0.945585 -0.307810
vn 0.132084 -0.912931 0.386059
vn 0.457411 -0.765221 -0.452956
vn 0.361950 -0.537309 0.761711
vn 0.815332 -0.428571 -0.389264
vn 0.856319 -0.513138 -0.058107
vn 0.566698 -0.682821 -0.461043
vn 0.657277 -0.524583 -0.541032
vn -0.511429 -0.745018 -0.428175
vn -0.753197 -0.651265 0.092318
vn -0.639973 0.550707 -0.535783
vn -0.365764 0.423017 0.828974
vn 0.487869 0.773675 -0.404157
vn 0.653249 0.653279 -0.382672
vn 0.905545 -0.159703 -0.393017
vn 0.862239 -0.319407 0.393017
vn 0.503006 0.529862 0.682760
vn -0.167028 0.936644 0.307810
vn -0.537278 0.711417 0.452956
vn -0.846950 0.362865 0.388531
vn -0.348949 0.821925 0.450179
vn 0.811060 0.398511 0.428175
vn 0.452528 -0.712790 0.535783
vn -0.773675 -0.487869 0.404157
vn -0.883358 0.253395 0.394269
vn -0.503128 -0.530290 0.682333
vn 0.167028 -0.936644 0.307810
vn 0.537278 -0.711417 0.452956
vn 0.846950 -0.362865 0.388531
vn 0.348949 -0.821925 0.450179
vn -0.811060 -0.398511 0.428175
vn -0.452528 0.712790 0.535783
vn 0.773675 0.487869 0.404157
vn 0.883114 -0.254097 0.394330
vn 0.136540 0.078280 0.987518
vn -0.061983 0.428449 0.901395
vn -0.205267 0.304697 0.930052
vn -0.323252 0.193701 0.926267
vn -0.381024 0.304117 0.873104
vn 0.270608 0.233985 0.933805
vn 0.107578 -0.124424 0.986358
vn -0.327403 -0.327403 0.886319
vn -0.298685 0.110294 0.947935
vn -0.136631 -0.078494 0.987487
vn 0.054292 -0.375378 0.925260
vn 0.163244 -0.242347 0.956328
vn 0.387005 -0.231910 0.892422
vn 0.381024 -0.304117 0.873104
vn -0.228828 -0.197851 0.953124
vn -0.154027 0.178137 0.971862
vn 0.270577 0.270577 0.923856
vn 0.349315 -0.129398 0.928007
usemtl (null)
s off
f 47//1 48//1 46//1
f 46//1 48//1 53//1
f 46//1 53//1 54//1
f 53//1 48//1 52//1
f 52//1 48//1 51//1
f 51//1 48//1 49//1
f 51//1 49//1 50//1
f 40//1 41//1 42//1
f 40//1 42//1 43//1
f 46//1 54//1 45//1
f 45//1 54//1 37//1
f 44//1 45//1 37//1
f 44//1 37//1 38//1
f 44//1 38//1 39//1
f 43//1 44//1 39//1
f 40//1 43//1 39//1
f 65//1 66//1 64//1
f 64//1 66//1 71//1
f 71//1 72//1 64//1
f 71//1 66//1 70//1
f 70//1 66//1 69//1
f 69//1 66//1 67//1
f 69//1 67//1 68//1
f 58//1 59//1 60//1
f 58//1 60//1 61//1
f 64//1 72//1 63//1
f 63//1 72//1 55//1
f 62//1 63//1 55//1
f 62//1 55//1 56//1
f 62//1 56//1 57//1
f 61//1 62//1 57//1
f 58//1 61//1 57//1
s 1
f 36//2 35//3 53//4
f 36//2 53//4 54//5
f 35//3 34//6 53//4
f 34//6 52//7 53//4
f 34//6 33//8 51//9
f 34//6 51//9 52//7
f 33//8 32//10 50//11
f 33//8 50//11 51//9
f 32//10 31//12 49//13
f 32//10 49//13 50//11
f 31//12 30//14 49//13
f 30//14 48//15 49//13
f 30//14 29//16 47//17
f 30//14 47//17 48//15
f 29//16 28//18 47//17
f 28//18 46//19 47//17
f 28//18 27//20 46//19
f 27//20 45//21 46//19
f 27//20 26//22 44//23
f 27//20 44//23 45//21
f 26//22 25//24 44//23
f 25//24 43//25 44//23
f 25//24 24//26 42//27
f 25//24 42//27 43//25
f 24//26 23//28 41//29
f 24//26 41//29 42//27
f 23//28 22//30 40//31
f 23//28 40//31 41//29
f 22//30 21//32 40//31
f 21//32 39//33 40//31
f 21//32 20//34 38//35
f 21//32 38//35 39//33
f 20//34 19//36 38//35
f 19//36 37//37 38//35
f 19//36 36//2 37//37
f 36//2 54//5 37//37
f 18//38 17//39 35//3
f 18//38 35//3 36//2
f 17//39 16//40 34//6
f 17//39 34//6 35//3
f 16//40 15//41 33//8
f 16//40 33//8 34//6
f 15//41 14//42 32//10
f 15//41 32//10 33//8
f 14//42 13//43 31//12
f 14//42 31//12 32//10
f 13//43 12//44 30//14
f 13//43 30//14 31//12
f 12//44 11//45 29//16
f 12//44 29//16 30//14
f 11//45 10//46 28//18
f 11//45 28//18 29//16
f 10//46 9//47 27//20
f 10//46 27//20 28//18
f 9//47 8//48 26//22
f 9//47 26//22 27//20
f 8//48 7//49 25//24
f 8//48 25//24 26//22
f 7//49 6//50 24//26
f 7//49 24//26 25//24
f 6//50 5//51 23//28
f 6//50 23//28 24//26
f 5//51 4//52 22//30
f 5//51 22//30 23//28
f 4//52 3//53 21//32
f 4//52 21//32 22//30
f 3//53 2//54 20//34
f 3//53 20//34 21//32
f 2//54 1//55 19//36
f 2//54 19//36 20//34
f 1//55 18//38 36//2
f 1//55 36//2 19//36
f 72//56 71//57 18//38
f 71//57 17//39 18//38
f 71//57 70//58 16//40
f 71//57 16//40 17//39
f 70//58 69//59 16//40
f 69//59 15//41 16//40
f 69//59 68//60 15//41
f 68//60 14//42 15//41
f 68//60 67//61 14//42
f 67//61 13//43 14//42
f 67//61 66//62 12//44
f 67//61 12//44 13//43
f 66//62 65//63 12//44
f 65//63 11//45 12//44
f 65//63 64//64 10//46
f 65//63 10//46 11//45
f 64//64 63//65 9//47
f 64//64 9//47 10//46
f 63//65 62//66 9//47
f 62//66 8//48 9//47
f 62//66 61//67 7//49
f 62//66 7//49 8//48
f 61//67 60//68 7//49
f 60//68 6//50 7//49
f 60//68 59//69 6//50
f 59//69 5//51 6//50
f 59//69 58//70 5//51
f 58//70 4//52 5//51
f 58//70 57//71 3//53
f 58//70 3//53 4//52
f 57//71 56//72 3//53
f 56//72 2//54 3//53
f 1//55 2//54 56//72
f 1//55 56//72 55//73
f 18//38 1//55 55//73
f 18//38 55//73 72//56
