# Blender3D v249 OBJ File: cursorPause.blend
# www.blender3d.org
mtllib cursorPause.mtl
v 0.030000 -0.030000 -0.030000
v 0.030000 -0.030000 0.030000
v -0.030000 -0.030000 0.030000
v -0.030000 -0.030000 -0.030000
v 0.030000 0.030000 -0.030000
v 0.030000 0.030000 0.030000
v -0.030000 0.030000 0.030000
v -0.030000 0.030000 -0.030000
v 0.030801 0.030801 -0.276488
v 0.030801 -0.030801 -0.276488
v -0.030801 -0.030801 -0.276488
v -0.030801 0.030801 -0.276488
v -0.276488 -0.030801 0.030801
v -0.276488 0.030801 0.030801
v -0.276488 0.030801 -0.030801
v -0.276488 -0.030801 -0.030801
v 0.030801 -0.030801 0.276488
v 0.030801 0.030801 0.276488
v -0.030801 0.030801 0.276488
v -0.030801 -0.030801 0.276488
v 0.276488 -0.030801 -0.030801
v 0.276488 0.030801 -0.030801
v 0.276488 0.030801 0.030801
v 0.276488 -0.030801 0.030801
v 0.030801 0.276488 -0.030801
v -0.030801 0.276488 -0.030801
v -0.030801 0.276488 0.030801
v 0.030801 0.276488 0.030801
v 0.030801 -0.276488 -0.030801
v 0.030801 -0.276488 0.030801
v -0.030801 -0.276488 0.030801
v -0.030801 -0.276488 -0.030801
vt 0.713853 0.874224
vt 0.571864 0.874608
vt 0.571429 0.749599
vt 0.713417 0.749215
vt 0.286583 0.249738
vt 0.285714 0.000383
vt 0.427703 0.000000
vt 0.428572 0.249355
vt 0.143726 0.499477
vt 0.142857 0.250122
vt 0.284845 0.249738
vt 0.285714 0.499093
vt 0.142857 0.000384
vt 0.141988 0.249738
vt 0.000000 0.249355
vt 0.000869 0.000000
vt 0.713417 0.249738
vt 0.714286 0.499093
vt 0.572298 0.499477
vt 0.571429 0.250122
vt 0.713853 0.874991
vt 0.713417 1.000000
vt 0.571429 0.999617
vt 0.284846 0.499477
vt 0.285714 0.748832
vt 0.143726 0.749215
vt 0.142857 0.499860
vt 0.428572 0.250122
vt 0.427703 0.499477
vt 0.856274 0.249739
vt 0.857143 0.499093
vt 0.715155 0.499477
vt 0.714286 0.250122
vt 0.142857 0.249355
vt 0.143726 0.000000
vt 0.285714 0.000384
vt 0.998265 0.749215
vt 0.998700 0.874224
vt 0.856712 0.874608
vt 0.856276 0.749599
vt 0.713417 0.499477
vt 0.714286 0.748832
vt 0.572298 0.749215
vt 0.571429 0.499860
vt 0.429440 0.499477
vt 0.570560 0.249738
vt 0.571429 0.499093
vt 0.714286 0.249355
vt 0.715155 0.000000
vt 0.857143 0.000384
vt 0.856274 0.249738
vt 0.429440 0.749215
vt 0.428572 0.499860
vt 0.570560 0.499477
vt 0.571429 0.748832
vt 0.855841 0.874608
vt 0.856276 0.999617
vt 0.714288 1.000000
vt 0.715155 0.749215
vt 0.714286 0.499860
vt 0.856274 0.499477
vt 0.857143 0.748832
vt 0.571429 0.249355
vt 0.572298 0.000000
vt 0.714286 0.000384
vt 1.000000 0.000384
vt 0.999131 0.249739
vt 0.857143 0.249355
vt 0.858012 0.000000
vt 0.999131 0.499477
vt 1.000000 0.748832
vt 0.858012 0.749215
vt 0.857143 0.499860
vt 0.713853 0.749599
vt 0.855841 0.749215
vt 0.856276 0.874224
vt 0.714288 0.874608
vt 0.429440 0.998954
vt 0.428572 0.749599
vt 0.570560 0.749215
vt 0.571429 0.998570
vt 0.000000 0.499093
vt 0.000869 0.249738
vt 0.141988 0.499477
vt 1.000000 0.250122
vt 0.858012 0.249739
vt 0.427703 0.749215
vt 0.428572 0.998570
vt 0.286583 0.998954
vt 0.285714 0.749599
vt 0.000869 0.874608
vt 0.000433 0.749599
vt 0.142422 0.749215
vt 0.142857 0.874224
vt 0.429440 0.000000
vt 0.571429 0.000384
vt 0.286583 0.499477
vt 0.143726 0.998954
vt 0.142857 0.749599
vt 0.284846 0.749215
vt 0.285714 0.998570
vt 0.000869 0.749215
vt 0.000000 0.499860
vt 0.142857 0.748832
vn 0.000000 -1.000000 0.000000
vn 0.000001 0.003249 -0.999995
vn 0.000000 0.003249 -0.999995
vn -0.999995 0.003249 -0.000000
vn 0.000000 0.003249 0.999995
vn 0.999995 0.003249 -0.000000
vn 0.000000 1.000000 0.000000
vn 0.999995 -0.003249 0.000001
vn -0.000001 -0.003249 0.999995
vn -0.999995 -0.003249 -0.000000
vn 0.000000 -0.003249 -0.999995
vn 1.000000 0.000000 0.000000
vn -0.003249 -0.999995 0.000000
vn -0.003250 -0.000000 0.999995
vn -0.003249 0.999995 -0.000000
vn -0.003249 0.000000 -0.999995
vn -0.003249 0.000001 -0.999995
vn 0.000000 0.000000 1.000000
vn -0.000000 -0.999995 -0.003249
vn -0.999995 -0.000000 -0.003250
vn 0.000000 0.999995 -0.003249
vn 0.999995 0.000000 -0.003249
vn -1.000000 0.000000 0.000000
vn 0.003249 -0.999995 0.000000
vn 0.003250 -0.000000 -0.999995
vn 0.003249 0.999995 -0.000000
vn 0.003249 0.000000 0.999995
vn 0.000000 0.000000 -1.000000
vn 0.000000 0.999995 0.003250
vn -0.999995 -0.000000 0.003249
vn -0.000000 -0.999995 0.003249
vn 0.999995 -0.000000 0.003250
usemtl Material
s off
f 29/1/1 30/2/1 31/3/1
f 29/1/1 31/3/1 32/4/1
f 1/5/2 29/6/2 32/7/2
f 1/5/3 32/7/3 4/8/3
f 4/9/4 32/10/4 31/11/4
f 4/9/4 31/11/4 3/12/4
f 3/13/5 31/14/5 30/15/5
f 3/13/5 30/15/5 2/16/5
f 29/17/6 1/18/6 2/19/6
f 29/17/6 2/19/6 30/20/6
f 25/21/7 26/22/7 27/23/7
f 25/21/7 27/23/7 28/2/7
f 5/24/8 25/25/8 28/26/8
f 5/24/8 28/26/8 6/27/8
f 6/12/9 28/5/9 27/28/9
f 6/12/9 27/28/9 7/29/9
f 7/30/10 27/31/10 26/32/10
f 7/30/10 26/32/10 8/33/10
f 8/34/11 26/35/11 25/36/11
f 8/34/11 25/36/11 5/11/11
f 21/37/12 22/38/12 23/39/12
f 21/37/12 23/39/12 24/40/12
f 1/41/13 21/42/13 24/43/13
f 1/41/13 24/43/13 2/44/13
f 2/45/14 24/28/14 23/46/14
f 2/45/14 23/46/14 6/47/14
f 6/48/15 23/49/15 22/50/15
f 6/48/15 22/50/15 5/51/15
f 21/52/16 1/53/16 5/54/16
f 21/52/17 5/54/17 22/55/17
f 17/56/18 18/57/18 19/58/18
f 17/56/18 19/58/18 20/21/18
f 2/59/19 17/60/19 20/61/19
f 2/59/19 20/61/19 3/62/19
f 3/63/20 20/64/20 19/65/20
f 3/63/20 19/65/20 7/17/20
f 7/66/21 19/67/21 18/68/21
f 7/66/21 18/68/21 6/69/21
f 6/70/22 18/71/22 17/72/22
f 6/70/22 17/72/22 2/73/22
f 13/74/23 14/75/23 15/76/23
f 13/74/23 15/76/23 16/77/23
f 3/78/24 13/79/24 16/80/24
f 3/78/24 16/80/24 4/81/24
f 4/82/25 16/83/25 15/10/25
f 4/82/25 15/10/25 8/84/25
f 8/85/26 15/70/26 14/31/26
f 8/85/26 14/31/26 7/86/26
f 7/87/27 14/88/27 13/89/27
f 7/87/27 13/89/27 3/90/27
f 9/91/28 10/92/28 11/93/28
f 9/91/28 11/93/28 12/94/28
f 5/8/29 9/95/29 12/96/29
f 5/8/29 12/96/29 8/46/29
f 8/53/30 12/87/30 11/25/30
f 8/53/30 11/25/30 4/97/30
f 10/98/31 1/99/31 4/100/31
f 10/98/31 4/100/31 11/101/31
f 1/102/32 10/103/32 9/84/32
f 1/102/32 9/84/32 5/104/32
