# Blender3D v249 OBJ File: harpon.blend
# www.blender3d.org
mtllib harpon.mtl
v 0.537401 -0.537401 -2.384427
v 0.702149 -0.290840 -2.384427
v 0.760000 -0.000000 -2.384427
v 0.702149 0.290839 -2.384427
v 0.537401 0.537401 -2.384427
v 0.290840 0.702148 -2.384427
v 0.000000 0.760000 -2.384427
v -0.290839 0.702148 -2.384427
v -0.537401 0.537401 -2.384427
v -0.702148 0.290839 -2.384427
v -0.760000 -0.000000 -2.384427
v -0.702148 -0.290840 -2.384427
v -0.537401 -0.537401 -2.384427
v -0.290839 -0.702149 -2.384427
v 0.000001 -0.760000 -2.384427
v 0.290840 -0.702148 -2.384427
v 0.537401 -0.537401 2.935573
v 0.702149 -0.290839 2.935573
v 0.760000 0.000000 2.935573
v 0.702149 0.290839 2.935573
v 0.537401 0.537401 2.935573
v 0.290840 0.702148 2.935573
v 0.000000 0.760000 2.935573
v -0.290839 0.702149 2.935573
v -0.537401 0.537401 2.935573
v -0.702148 0.290840 2.935573
v -0.760000 0.000000 2.935573
v -0.702148 -0.290840 2.935573
v -0.537401 -0.537401 2.935573
v -0.290839 -0.702149 2.935573
v 0.000001 -0.760000 2.935573
v 0.290840 -0.702148 2.935573
v 0.754012 -0.754012 3.505487
v 0.985164 -0.408068 3.505487
v 1.066334 0.000000 3.505487
v 0.985164 0.408068 3.505487
v 0.754012 0.754012 3.505487
v 0.408069 0.985164 3.505487
v 0.000000 1.066334 3.505487
v -0.408068 0.985164 3.505487
v -0.754012 0.754012 3.505487
v -0.985164 0.408069 3.505487
v -1.066334 0.000000 3.505487
v -0.985164 -0.408069 3.505487
v -0.754012 -0.754012 3.505487
v -0.408068 -0.985164 3.505487
v 0.000001 -1.066334 3.505487
v 0.408069 -0.985164 3.505487
v 0.985164 -0.408068 4.455487
v 0.754012 -0.754012 4.455487
v 1.066334 0.000000 4.455487
v 0.985164 0.408069 4.455487
v 0.754012 0.754012 4.455487
v 0.408069 0.985164 4.455487
v 0.000000 1.066334 4.455487
v -0.408068 0.985164 4.455487
v -0.754012 0.754012 4.455487
v -0.985164 0.408069 4.455487
v -1.066334 0.000000 4.455487
v -0.985164 -0.408069 4.455487
v -0.754012 -0.754012 4.455487
v -0.408068 -0.985164 4.455487
v 0.000001 -1.066334 4.455487
v 0.408069 -0.985164 4.455487
v 0.321947 -0.133355 4.028050
v 0.246408 -0.246407 4.028050
v 0.348473 0.000000 4.028050
v 0.321947 0.133355 4.028050
v 0.246408 0.246408 4.028050
v 0.133355 0.321947 4.028050
v 0.000000 0.348473 4.028050
v -0.133354 0.321947 4.028050
v -0.246407 0.246408 4.028050
v -0.321947 0.133355 4.028050
v -0.348473 0.000000 4.028050
v -0.321947 -0.133355 4.028050
v -0.246407 -0.246408 4.028050
v -0.133354 -0.321947 4.028050
v 0.000000 -0.348473 4.028050
v 0.133355 -0.321947 4.028050
v 0.000000 0.000000 4.028051
v 0.802779 -0.802779 -1.985487
v 1.048881 -0.434461 -1.985487
v 1.135301 -0.000000 -1.985487
v 1.048881 0.434461 -1.985487
v 0.802779 0.802779 -1.985487
v 0.434461 1.048881 -1.985487
v 0.000000 1.135300 -1.985487
v -0.434460 1.048881 -1.985487
v -0.802778 0.802779 -1.985487
v -1.048881 0.434461 -1.985487
v -1.135301 -0.000000 -1.985487
v -1.048881 -0.434461 -1.985487
v -0.802778 -0.802779 -1.985487
v -0.434460 -1.048881 -1.985487
v 0.000001 -1.135301 -1.985487
v 0.434462 -1.048881 -1.985487
v 0.000000 -0.000000 -4.455487
vt 0.650720 0.063563
vt 0.646710 0.109004
vt 0.290565 0.102072
vt 0.288565 0.057060
vt 0.291588 0.012599
vt 0.651232 0.017393
vt 0.595364 0.728242
vt 0.259875 0.731636
vt 0.260962 0.687593
vt 0.596085 0.687257
vt 0.261983 0.644951
vt 0.594736 0.645866
vt 0.265916 0.603313
vt 0.593674 0.604881
vt 0.269585 0.562045
vt 0.593679 0.563956
vt 0.269715 0.520739
vt 0.594741 0.522537
vt 0.269659 0.479525
vt 0.600883 0.481062
vt 0.270120 0.438085
vt 0.606747 0.439254
vt 0.272528 0.397028
vt 0.608188 0.396040
vt 0.647560 0.377320
vt 0.285323 0.374724
vt 0.285405 0.327532
vt 0.648041 0.330436
vt 0.286215 0.281421
vt 0.647192 0.284813
vt 0.645421 0.240416
vt 0.288843 0.236368
vt 0.288940 0.191699
vt 0.646505 0.196607
vt 0.648105 0.153455
vt 0.290212 0.146979
vt 0.034862 0.157938
vt 0.040746 0.171668
vt 0.000000 0.184746
vt 0.042738 0.185968
vt 0.040046 0.200174
vt 0.033132 0.213430
vt 0.021859 0.225050
vt 0.005536 0.233041
vt 0.024196 0.510616
vt 0.000000 0.545847
vt 0.009816 0.501726
vt 0.033578 0.522480
vt 0.038383 0.535493
vt 0.039114 0.548758
vt 0.036391 0.561759
vt 0.029681 0.573869
vt 0.018665 0.584108
vt 0.003346 0.590687
vt 0.024174 0.145740
vt 0.008265 0.136913
vt 0.712517 0.155087
vt 0.717707 0.113307
vt 1.000000 0.193984
vt 0.711643 0.195747
vt 0.713403 0.236587
vt 0.718190 0.279509
vt 0.725976 0.326219
vt 0.736905 0.382415
vt 0.688090 0.394831
vt 0.925565 0.582964
vt 0.675055 0.445510
vt 0.666537 0.488578
vt 0.661032 0.528865
vt 0.657117 0.567652
vt 0.656242 0.606143
vt 0.658065 0.645691
vt 0.662223 0.688418
vt 0.668311 0.739254
vt 0.735212 0.012641
vt 0.724204 0.066916
vt 0.094514 0.080870
vt 0.111501 0.118873
vt 0.066183 0.034548
vt 0.044284 0.689364
vt 0.076980 0.650989
vt 0.096481 0.617132
vt 0.107759 0.585415
vt 0.112957 0.554443
vt 0.112518 0.523077
vt 0.106348 0.490076
vt 0.092626 0.453326
vt 0.065940 0.407991
vt 0.058522 0.334800
vt 0.089204 0.293924
vt 0.108854 0.256562
vt 0.118411 0.221366
vt 0.122770 0.187818
vt 0.120404 0.154002
vt 0.198859 0.054788
vt 0.202945 0.103942
vt 0.194343 0.000000
vt 0.164566 0.739254
vt 0.173584 0.683647
vt 0.181980 0.638562
vt 0.187465 0.597252
vt 0.190406 0.557676
vt 0.191656 0.518296
vt 0.190673 0.477427
vt 0.188407 0.432984
vt 0.186718 0.382415
vt 0.183235 0.382415
vt 0.191964 0.324510
vt 0.199493 0.276402
vt 0.203782 0.232460
vt 0.206528 0.190205
vt 0.205936 0.148144
vn 0.335795 -0.810694 0.479568
vn 0.358654 -0.141545 0.922666
vn 0.682821 -0.688375 -0.244606
vn 0.361919 -0.873775 -0.324778
vn 0.003937 -0.969604 -0.244606
vn -0.153508 -0.353679 0.922666
vn -0.367412 -0.897305 -0.244606
vn -0.277169 -0.268014 0.922666
vn -0.682821 -0.688375 -0.244606
vn -0.358654 -0.141545 0.922666
vn -0.894284 -0.374676 -0.244606
vn -0.385510 0.006470 0.922666
vn -0.969604 -0.003906 -0.244606
vn -0.353679 0.153508 0.922666
vn -0.897305 0.367412 -0.244606
vn -0.268014 0.277169 0.922666
vn -0.688375 0.682821 -0.244606
vn -0.141545 0.358654 0.922666
vn -0.374676 0.894284 -0.244606
vn 0.006470 0.385510 0.922666
vn -0.003906 0.969604 -0.244606
vn 0.153508 0.353679 0.922666
vn 0.367412 0.897305 -0.244606
vn 0.277169 0.268014 0.922666
vn 0.697684 0.697684 -0.162633
vn -0.227485 -0.227485 0.946806
vn 0.810694 0.335795 0.479568
vn 0.873775 0.361919 -0.324778
vn 0.986663 0.000000 -0.162633
vn -0.321726 0.000000 0.946806
vn 0.385510 0.006470 0.922666
vn 0.894284 -0.374676 -0.244606
vn -0.209387 0.239143 0.948119
vn -0.324900 0.134556 0.936094
vn 0.000000 0.000000 1.000000
vn -0.317148 -0.021027 0.948119
vn -0.244453 -0.101260 0.964324
vn -0.248665 -0.248665 0.936094
vn -0.101260 -0.244453 0.964324
vn 0.000000 -0.351665 0.936094
vn 0.140782 -0.284982 0.948119
vn 0.239143 -0.209387 0.948119
vn 0.301065 -0.101932 0.948119
vn 0.317148 0.021027 0.948119
vn 0.284982 0.140782 0.948119
vn 0.209387 0.239143 0.948119
vn 0.101932 0.301065 0.948119
vn -0.021027 0.317148 0.948119
vn -0.101260 0.244453 0.964324
vn -0.313730 0.008393 0.949461
vn -0.286630 0.127812 0.949461
vn 0.000000 0.000000 -1.000000
vn 0.544206 0.000000 0.838923
vn -0.463057 -0.191809 0.865291
vn 0.384808 0.384808 0.838923
vn -0.215888 -0.227790 0.949461
vn -0.112278 -0.293069 0.949461
vn 0.008393 -0.313730 0.949461
vn 0.127812 -0.286630 0.949461
vn 0.227790 -0.215888 0.949461
vn 0.293069 -0.112278 0.949461
vn 0.313730 0.008393 0.949461
vn 0.286630 0.127812 0.949461
vn 0.215888 0.227790 0.949461
vn 0.112278 0.293069 0.949461
vn -0.191809 0.463057 0.865291
vn -0.008301 0.020081 0.999756
vn 0.268777 -0.411115 0.871029
vn 0.100650 -0.480758 0.871029
vn -0.090976 -0.482681 0.871029
vn -0.268777 -0.411115 0.871029
vn -0.405652 -0.276955 0.871029
vn -0.480758 -0.100650 0.871029
vn -0.482681 0.090976 0.871029
vn -0.411115 0.268777 0.871029
vn -0.276955 0.405652 0.871029
vn -0.075564 0.745445 0.662252
vn 0.047029 0.257454 0.965117
vn 0.609394 0.609394 0.507157
vn -0.020081 -0.008301 0.999756
vn 0.682424 0.028809 0.730338
vn 0.659780 -0.355083 0.662252
vn 0.377575 -0.911557 -0.162633
vn 0.688375 -0.682821 -0.244606
vn -0.003906 -0.969604 -0.244606
vn -0.374676 -0.894284 -0.244606
vn -0.688375 -0.682821 -0.244606
vn -0.897305 -0.367412 -0.244606
vn -0.969604 0.003906 -0.244606
vn -0.894284 0.374676 -0.244606
vn -0.682821 0.688375 -0.244606
vn -0.367412 0.897305 -0.244606
vn 0.003906 0.969604 -0.244606
vn 0.374676 0.894284 -0.244606
vn 0.668752 0.668752 -0.324778
vn 0.911557 0.377575 -0.162633
vn 0.945769 0.000000 -0.324778
vn 0.897305 -0.367412 -0.244606
usemtl bois_harpon.png
s 1
f 16/1/1 1/2/2 17/3/3
f 16/1/1 17/3/3 32/4/4
f 16/1/1 32/4/4 31/5/5
f 16/1/1 31/5/5 15/6/6
f 15/7/6 31/8/5 30/9/7
f 15/7/6 30/9/7 14/10/8
f 14/10/8 30/9/7 29/11/9
f 14/10/8 29/11/9 13/12/10
f 13/12/10 29/11/9 28/13/11
f 13/12/10 28/13/11 12/14/12
f 12/14/12 28/13/11 27/15/13
f 12/14/12 27/15/13 11/16/14
f 11/16/14 27/15/13 26/17/15
f 11/16/14 26/17/15 10/18/16
f 10/18/16 26/17/15 25/19/17
f 10/18/16 25/19/17 9/20/18
f 9/20/18 25/19/17 24/21/19
f 9/20/18 24/21/19 8/22/20
f 8/22/20 24/21/19 23/23/21
f 8/22/20 23/23/21 7/24/22
f 7/25/22 23/26/21 22/27/23
f 7/25/22 22/27/23 6/28/24
f 6/28/24 22/27/23 21/29/25
f 6/28/24 21/29/25 5/30/26
f 4/31/27 5/30/26 21/29/25
f 4/31/27 21/29/25 20/32/28
f 4/31/27 20/32/28 19/33/29
f 4/31/27 19/33/29 3/34/30
f 2/35/31 3/34/30 19/33/29
f 2/35/31 19/33/29 18/36/32
f 1/2/2 2/35/31 18/36/32
f 1/2/2 18/36/32 17/3/3
usemtl fer_harpon.png
f 66/37/33 65/38/34 81/39/35
f 65/38/34 67/40/36 81/39/35
f 68/41/37 81/39/35 67/40/36
f 68/41/37 69/42/38 81/39/35
f 70/43/39 81/39/35 69/42/38
f 71/44/40 81/39/35 70/43/39
f 72/45/41 81/46/35 71/47/40
f 73/48/42 81/46/35 72/45/41
f 74/49/43 81/46/35 73/48/42
f 75/50/44 81/46/35 74/49/43
f 76/51/45 81/46/35 75/50/44
f 77/52/46 81/46/35 76/51/45
f 78/53/47 81/46/35 77/52/46
f 79/54/48 81/46/35 78/53/47
f 80/55/49 81/39/35 79/56/48
f 80/55/49 66/37/33 81/39/35
f 83/57/50 82/58/51 98/59/52
f 84/60/53 83/57/50 98/59/52
f 84/60/53 98/59/52 85/61/54
f 86/62/55 85/61/54 98/59/52
f 86/62/55 98/59/52 87/63/56
f 87/63/56 98/59/52 88/64/57
f 88/65/57 98/66/52 89/67/58
f 89/67/58 98/66/52 90/68/59
f 90/68/59 98/66/52 91/69/60
f 91/69/60 98/66/52 92/70/61
f 92/70/61 98/66/52 93/71/62
f 93/71/62 98/66/52 94/72/63
f 94/72/63 98/66/52 95/73/64
f 95/73/64 98/66/52 96/74/65
f 96/75/65 98/59/52 97/76/66
f 82/58/51 97/76/66 98/59/52
f 1/2/2 16/1/1 97/76/66
f 1/2/2 97/76/66 82/58/51
f 15/6/6 96/75/65 97/76/66
f 15/6/6 97/76/66 16/1/1
f 14/10/8 95/73/64 96/74/65
f 14/10/8 96/74/65 15/7/6
f 13/12/10 94/72/63 95/73/64
f 13/12/10 95/73/64 14/10/8
f 12/14/12 93/71/62 94/72/63
f 12/14/12 94/72/63 13/12/10
f 11/16/14 92/70/61 93/71/62
f 11/16/14 93/71/62 12/14/12
f 10/18/16 91/69/60 92/70/61
f 10/18/16 92/70/61 11/16/14
f 9/20/18 90/68/59 91/69/60
f 9/20/18 91/69/60 10/18/16
f 8/22/20 89/67/58 90/68/59
f 8/22/20 90/68/59 9/20/18
f 7/24/22 88/65/57 89/67/58
f 7/24/22 89/67/58 8/22/20
f 6/28/24 87/63/56 88/64/57
f 6/28/24 88/64/57 7/25/22
f 5/30/26 86/62/55 87/63/56
f 5/30/26 87/63/56 6/28/24
f 5/30/26 4/31/27 85/61/54
f 5/30/26 85/61/54 86/62/55
f 3/34/30 84/60/53 85/61/54
f 3/34/30 85/61/54 4/31/27
f 3/34/30 2/35/31 83/57/50
f 3/34/30 83/57/50 84/60/53
f 2/35/31 1/2/2 82/58/51
f 2/35/31 82/58/51 83/57/50
f 64/77/67 50/78/68 66/37/33
f 64/77/67 66/37/33 80/55/49
f 64/77/67 80/55/49 79/56/48
f 64/77/67 79/56/48 63/79/69
f 63/80/69 79/54/48 78/53/47
f 63/80/69 78/53/47 62/81/70
f 62/81/70 78/53/47 77/52/46
f 62/81/70 77/52/46 61/82/71
f 61/82/71 77/52/46 76/51/45
f 61/82/71 76/51/45 60/83/72
f 60/83/72 76/51/45 75/50/44
f 60/83/72 75/50/44 59/84/73
f 59/84/73 75/50/44 74/49/43
f 59/84/73 74/49/43 58/85/74
f 58/85/74 74/49/43 73/48/42
f 58/85/74 73/48/42 57/86/75
f 57/86/75 73/48/42 72/45/41
f 57/86/75 72/45/41 56/87/76
f 56/87/76 72/45/41 71/47/40
f 56/87/76 71/47/40 55/88/77
f 55/89/77 71/44/40 54/90/78
f 71/44/40 70/43/39 54/90/78
f 54/90/78 70/43/39 69/42/38
f 54/90/78 69/42/38 53/91/79
f 52/92/80 53/91/79 69/42/38
f 52/92/80 69/42/38 68/41/37
f 52/92/80 68/41/37 67/40/36
f 52/92/80 67/40/36 51/93/81
f 49/94/82 51/93/81 65/38/34
f 51/93/81 67/40/36 65/38/34
f 50/78/68 49/94/82 65/38/34
f 50/78/68 65/38/34 66/37/33
f 48/95/83 33/96/84 50/78/68
f 48/95/83 50/78/68 64/77/67
f 48/95/83 64/77/67 63/79/69
f 48/95/83 63/79/69 47/97/85
f 47/98/85 63/80/69 62/81/70
f 47/98/85 62/81/70 46/99/86
f 46/99/86 62/81/70 61/82/71
f 46/99/86 61/82/71 45/100/87
f 45/100/87 61/82/71 60/83/72
f 45/100/87 60/83/72 44/101/88
f 44/101/88 60/83/72 59/84/73
f 44/101/88 59/84/73 43/102/89
f 43/102/89 59/84/73 58/85/74
f 43/102/89 58/85/74 42/103/90
f 42/103/90 58/85/74 57/86/75
f 42/103/90 57/86/75 41/104/91
f 41/104/91 57/86/75 56/87/76
f 41/104/91 56/87/76 40/105/92
f 40/105/92 56/87/76 55/88/77
f 40/105/92 55/88/77 39/106/93
f 39/107/93 55/89/77 54/90/78
f 39/107/93 54/90/78 38/108/94
f 38/108/94 54/90/78 53/91/79
f 38/108/94 53/91/79 37/109/95
f 36/110/96 37/109/95 53/91/79
f 36/110/96 53/91/79 52/92/80
f 36/110/96 52/92/80 51/93/81
f 36/110/96 51/93/81 35/111/97
f 34/112/98 35/111/97 51/93/81
f 34/112/98 51/93/81 49/94/82
f 33/96/84 34/112/98 49/94/82
f 33/96/84 49/94/82 50/78/68
f 32/4/4 17/3/3 33/96/84
f 32/4/4 33/96/84 48/95/83
f 32/4/4 48/95/83 47/97/85
f 32/4/4 47/97/85 31/5/5
f 31/8/5 47/98/85 46/99/86
f 31/8/5 46/99/86 30/9/7
f 30/9/7 46/99/86 45/100/87
f 30/9/7 45/100/87 29/11/9
f 29/11/9 45/100/87 44/101/88
f 29/11/9 44/101/88 28/13/11
f 28/13/11 44/101/88 43/102/89
f 28/13/11 43/102/89 27/15/13
f 27/15/13 43/102/89 42/103/90
f 27/15/13 42/103/90 26/17/15
f 26/17/15 42/103/90 41/104/91
f 26/17/15 41/104/91 25/19/17
f 25/19/17 41/104/91 40/105/92
f 25/19/17 40/105/92 24/21/19
f 24/21/19 40/105/92 39/106/93
f 24/21/19 39/106/93 23/23/21
f 23/26/21 39/107/93 38/108/94
f 23/26/21 38/108/94 22/27/23
f 22/27/23 38/108/94 37/109/95
f 22/27/23 37/109/95 21/29/25
f 20/32/28 21/29/25 37/109/95
f 20/32/28 37/109/95 36/110/96
f 20/32/28 36/110/96 35/111/97
f 20/32/28 35/111/97 19/33/29
f 18/36/32 19/33/29 35/111/97
f 18/36/32 35/111/97 34/112/98
f 17/3/3 18/36/32 34/112/98
f 17/3/3 34/112/98 33/96/84
